<?xml version="1.0" encoding="utf-8"?>

<!DOCTYPE svg PUBLIC "-//W3C//DTD SVG 1.1//EN" "http://www.w3.org/Graphics/SVG/1.1/DTD/svg11.dtd">
<svg version="1.1" id="Layer_1" xmlns="http://www.w3.org/2000/svg" xmlns:xlink="http://www.w3.org/1999/xlink" x="0px" y="0px"
	 viewBox="0 0 2632.844 727.088" enable-background="new 0 0 2632.844 727.088" xml:space="preserve">
<g>
	<path d="M1866.559,207.754c1.541,1.574,8.875,1.851,11.225,0.069c1.003-12.706,0.952-13.65-10.322-12.34
		C1865.595,197.624,1866.235,206.514,1866.559,207.754z"/>
	<path d="M1299.513,321.067c0.498,0.328,1.479,0.994,1.959,1.326c1-0.018,1.421,1.057,10.659,0.117
		c1.33-4.585,0.874-8.977,0.515-13.978l0.472-0.031l-0.498-0.34l-0.009-0.128l-0.174,0.012c-2.264-1.496-13.208-3.371-13.035,2.35
		C1299.291,313.906,1299.364,317.52,1299.513,321.067z"/>
	<path d="M1433.538,317.772l0.038,0c0.237,1.455,0.381,2.364,0.76,3.609c2.009,1.588,12.899,1.454,14.816,0.385
		c3.142-0.318,2.457-4.444,2.499-9.203c0.044-5.015,0.56-10.522-2.698-10.31c-1.28-0.934-2.872-0.902-4.415-0.867
		c-12.429,0.319-10.906-1.549-11,15.885l-0.044,0C1433.549,317.605,1433.54,317.496,1433.538,317.772z"/>
	<path d="M1391.586,332.647c2.624,1.342,4.887,0.151,7.868-0.025c0.05-2.943,0.084-5.348-0.062-8.346l-1.123-0.306l-0.007-0.015
		c-0.172-0.028-0.429-0.104-0.622-0.156l0.027,0.059c-0.543-0.089-1.218-0.197-1.697-0.271l0-0.012
		c-0.284-0.028-0.134-0.009-0.503-0.064l0.001,0.031c-1.504-0.099-2.689,0.173-3.932,0.661
		C1391.554,327.047,1391.443,329.621,1391.586,332.647z"/>
	<path d="M2556.36,428.688c0,0-0.508-60.733-0.546-63.739c-0.576-0.031-1.04-0.056-1.746-0.101l0.012-0.029
		c-0.29,0.004-0.331,0.009-0.538-0.006l-0.006,0.015c-1.429,0.023-2.248,0.063-3.235,0.125c-0.067,7.94-0.187,34.64-0.02,65.107
		c-6.478,0.085-271.012,28.316-310.94,33.166c-0.426-6.216-1.434-13.325-1.773-18.631l0,0c-0.001-0.012-0.003-0.043-0.004-0.057
		l-0.002-0.003c-0.171-1.655-0.259-3.134-0.328-4.302c-2.983-0.076-5.543-0.036-8.321,0.103c-0.066,7.817-0.138,15.839,0.102,23.616
		l-0.168,0.695c-6.209-0.316-112.831,11.868-136.841,13.892c-4.158-6.471-8.291-13.085-12.511-19.855
		c1.231-4.083,1.546-7.658-11.856-12.719c-0.287-1.183-7.841-20.374-8.754-21.941l0.077-0.019c-0.175-0.205-0.223-0.249-0.337-0.433
		l-0.027,0.007l-0.571-0.67c-1.797-0.114-3.779,0.002-5.605-0.17c-2.871-1.499-5.479-3.437-8.493-4.911l0,0
		c-3.206-1.608-5.752-2.909-8.423-4.094l0.003-0.001c-5.027-2.231-18.398-6.769-23.154-8.556l-0.001,0
		c-8.343-3.004-16.983-6.153-25.672-9.254v0c-1.014-0.367-79.751-28.71-85.344-30.328c-0.966-12.046,5.62-13.133,10.349-20.261
		c0.344-0.254,0.955-0.718,1.296-0.977c-0.653-3.985-2.804-7.122-3.968-9.928c-3.623-8.741-10.252-3.462-26.469-4.048
		c0,0-4.087-72.759-5.162-90.375l0,0c-0.26-9.21-1.141-18.139-1.354-27.546c-0.404-0.049-2.603-0.298-2.651-0.304l-0.01,0.002
		c-1.406-0.098-2.785-0.08-4.198-0.079c-0.646,5.625,1.764,93.193,0.983,118.378c-41.043,3.4-43.164,3.858-84.303,5.979
		c-0.787-8.763-6.948-9.586-1.559-24.749l0.002,0l0.05-0.15c0,0,0-0.001,0-0.001l0.134-0.377l-0.018,0.002
		c1.539-4.744,2.562-9.486,3.859-14.315l0.005,0.003c0.109-0.443,0.095-0.382,0.132-0.518l-0.002-0.001
		c1.033-4.181,4.823-18.693,4.823-18.693l0,0c0.039-0.165,8.04-30.405,8.219-31c3.827-1.13,8.247,0.34,12.049-1.621l0.033,0.005
		c0.104-0.081,0.611-0.34,0.727-0.402l-0.235-0.033c1.205-1.078,2.092-2.456,2.775-3.942l-0.01-0.044
		c0.404-3.807,0.091-6.455,0.209-12.887c10.882,0.278,21.914,0.295,32.528,0.117c-0.676-3.977-1.519-6.971-2.661-10.82
		c-1.086-0.003-66.609-0.155-72.378,0.245l-0.003-0.025l-0.207,0.032l-0.302-0.086l0.012,0.116c-2.41,0.301-5.066-0.333-7.024,1.432
		l-0.005-0.004l-1.161,1.038c0.216,2.713-0.721,5.711,1.629,7.735c9.106,0.589,28.178-0.549,32.376,0.653l0.445,1.075
		c-0.483,1.94-2.041,6.558-2.696,8.374c-3.396,0.269-7.09,0.588-10.711,0.42l-0.031,0.166c-3.272-0.115-6.395,0.132-9.489,0.147v0
		c-0.055-0.003-7.873,0.692-15.931,0.563l-0.005-0.005c-0.164,0.006-0.509-0.003-0.688-0.006l0.041,0.044
		c-4.058,0.27-8.189,1.843-11.918,0.358c-1.367-5.005-4.983-11.657-4.908-15.45l0.055,0.068c-0.005-0.131-0.034-0.694-0.021-0.825
		l-0.012-0.015c-0.242-6.067-3.914-92.349-4.685-98.988c-1,0.132-1.888,0.26-2.964,0.453l-0.171-0.194l-0.104,0.242l-0.301,0.055
		l0.187,0.213c-0.164,0.384-0.549,1.278-0.715,1.648c0.034,1.006,1.188,66.13,0.871,77.884c-0.318,0.464-0.638,0.931-0.648,0.946
		c-1.869-5.839-11.682-29.768-13.873-35.481l0.003-0.002c-18.006-45.547-31.89-80.024-47.091-123.385
		c-2.782,0.03-4.948,0.222-7.586,0.597c6.099,13.144,10.443,26.627,15.599,40.259l-0.787-0.013l0.002-0.008
		c-0.365,0.004-0.271,0.004-0.523,0l-0.001,0.004c-3.093,0.026-20.165-0.109-23.167,0.623c-1.036-0.131-2.043-0.245-3.036-0.346
		l-0.023-0.026c-0.158,0.018-0.535-0.031-0.708-0.049l0.103,0.118l-1.944,0.223c0.053,0.988,0.11,1.801,0.238,3.11
		c0.121,0.042,2.067,0.719,2.193,0.74c13.646-0.031,9.873,1.145,21.681,2.524l0.001,0.003c11.632,1.433,5.934-8.43,32.112,69.951
		c9.54,30.539,36.512,101.661,27.18,148.445l-0.001,0c-2.189,9.106-4.97,18.044-13.795,27.748
		c-9.715,0.514-51.119,3.21-57.609,3.361c-0.127-1.883,0.268-3.996-0.802-5.755c0.212-0.082,0.742-0.284,0.99-0.379
		c-0.049-8.732,2.201-7.338-54.675-4.781c0,0-12.1-30.669-12.137-30.772l0.001-0.003c-0.057-0.146-0.216-0.593-0.273-0.755
		l-0.011,0.034c-4.463-11.301-8.813-22.375-13.304-33.312c-0.351-4.684,0.418-1.753-2.507-7.604
		c-3.525-0.128-6.259-0.073-8.859,0.079c-0.384,2.351,0.251,4.154,1.4,6.762l0.003-0.001c0,0,1.167,1.693,2.991,8.455
		c0.365,1.354,0.744,2.754,1.185,4.112l0,0c2.279,7.965,5.235,15.825,7.264,23.832c-20.596,1.529-23.681-1.079-28.131,1.184
		c0.232,1.762,0.29,2.248,0.456,3.248c11.243,1.5,21.112,2.826,30.941,4.066c1.913,7.169,3.978,14.15,5.74,21.297
		c-48.332,2.097-97.192,4.373-145.535,6.279c-0.338-4.807,0.957-9.558-2.001-13.811c-1-0.043-1.95-0.085-3.09-0.121v0
		c-0.394-0.015-0.265-0.011-0.514-0.018l-0.001,0.003c-2.131-0.063-4.266,0.074-6.436,0.238c-0.492,0.983-0.788,1.666-1.178,2.669
		c0,0-0.405,11.71-0.406,11.711c-11.848,0.586-23.801,1.029-33.978,1.385c0.043-2.125-0.254-4.11-0.766-6.123
		c-3.521-0.862-6.959-1.355-10.318,0.008c-0.538,2.212-0.912,4.433-0.699,6.73c-27.369,1.219-52.061,2.306-76.771,3.239
		c-0.286-5.787,0.352-11.616-0.416-17.427l0.631-0.075l-0.676-0.314l-0.015-0.108l-0.18,0.022
		c-4.053-1.851-8.732-1.926-11.987-0.197l-0.016-0.003c-0.141,0.081-0.538,0.296-0.694,0.381l0.025,0.005l-0.297,0.171
		c0,0-0.777,8.081,0.034,18.247c-29.933,1.175-59.794,2.698-90.404,3.801c0.114-10.853,0.128-25.408-0.028-37.839l0.005,0
		c-0.011-0.334-0.007-0.184-0.011-0.5l-0.005,0l-0.016-0.489c-1.967-0.127-3.793-0.18-6.091-0.148
		c0.06,10.176,0.089,19.162,0.002,39.27c-10.647,0.405-21.196,1.082-31.721,1.201c-1.76-0.645-3.573-0.061-5.267,0.026
		c-3.591,0.197-7.557,0.065-12.126-0.408v0c-1.509-0.198-2.997-0.36-4.35-0.511c-6.973-3.066-29.392-1.689-30.745-1.907
		c-2.424-1.123-1.36-4.986-3.544-6.856c-39.568-0.865-41.306-0.478-39.496,2.111c1.101,3.53,2.637,6.976,3.198,10.634
		c-2.583,1.526-0.574,1.506-8.537,1.479c-1.089-0.004-78.6,3.261-78.6,3.261C990.33,355.451,881.276,54.413,876.44,34.479
		c8.104-8.376-2.981-15.228-9.004-11.371c-4.098,1.584-6.728,9.892,3.159,12.776c3.524,6.172,9.423,25.802,11.087,32.34
		l-0.001,0.001c0.037,0.133,0.157,0.611,0.195,0.761l0.009-0.019c16.119,58.439,44,125.438,10.58,158.205
		c-1.971-3.797-10.018-10.711-11.018-11.327c-3.702-1.207-7.334,1.448-10.409,3.509c0.646,1.537,1.283,2.911,2.119,4.668v0
		c0.653,1.588,1.347,2.844,2.157,3.934c-0.23,0.168-0.524,0.384-0.731,0.538c-4.678-1.317-11.944-0.833-16.092,3.496l-0.021-0.113
		c-0.098,0.141-0.3,0.441-0.404,0.559l0.004,0.023c-4.825,7.064,0.324,15.513-3.105,18.594
		c-7.192,6.465-16.913,18.339-17.363,21.156c-0.659,0.882-1.278,1.816-1.887,2.84c-22.429-2.275-64.772-7.352-70.405-7.155
		c-0.017,0.936-0.025,1.678-0.01,2.975c2.078,0.709,4.269,1.282,6.937,1.72l0,0.004c15.98,4.217,32.491,9.676,45.038,20.971
		c1.416,3.975,5.58,6.732,5.054,11.117c-0.451,1-13.366,26.719-18.379,44.776c-3.669,1.738-7.828,19.289-13.555,28.724
		c-5.066,9.599-6.189,17.022-12.031,27.459c-1.06,1.894-2.252,4.033-1.211,6.239c-0.161,0.122-0.354,0.268-0.495,0.373l-0.216,0.003
		l0.003,0.017c-3.297,0.315-6.673,0.18-9.999,0.085c-1.576-0.634-121.868-1.501-114.113-1.563
		c-1.001,0.008-78.503,0.151-108.177-0.763c-4.612-0.131-3.744,1.319-3.729-24.87c0.01-14.874,1.591-15.429-1.009-18.493
		c-2.814,0.196-5.122,0.191-7.596,0.033c-0.037,1.679-0.977,8.271-0.594,43.691c0,0-38.449,0.964-52.718,0.075l-0.005,0.005
		c-0.764-0.045-15.649,0.083-15.994,0.091l-0.004-0.003c-0.148,0.006-0.59,0.016-0.752,0.02l0.012,0.01
		c-0.492,0.02-1.046,0.041-1.465,0.054l0-0.005c-0.304,0.016-0.195,0.012-0.5,0.02l0,0.006c0,0,2.746-0.185-31.716-0.663
		c-1.396,0.055-2.766-0.378-4.085-0.8c-0.017-15.763,0.074-28.459-0.099-44.863c-0.913-0.058-1.266-0.082-2.495-0.132l0-0.03
		c-0.306,0.021-0.192,0.019-0.5,0.008v0.016c-1.886,0.065-3.945-0.422-5.485,0.905l-0.2-0.064v0.235l-0.23,0.217l0.231,0.074
		c0,14.561,0.055,29.594-0.039,44.382c-2.579,0.21-5.032-0.152-7.557-0.698c-0.916,8.334,0.086,15.945-0.544,24.022
		c-5.103,1.748-6.158,8.329-5.28,10.789c1.413,2.618,9.634,0.347,39.145,1.35c6.879,0.46,9.226,10.06,5.296,14.915
		c-4.109,4.733-8.548,9.77-13.186,14.562c-0.227-0.125-0.647-0.356-0.863-0.473c1.077-1.545,1.535-2.178,2.263-3.178
		c-15.458-0.961-31.831-1.1-47.598-1.849c-0.011-0.619-0.012-0.995-0.012-1.384c-3.241-0.323-5.569-0.492-8.235-0.048l-0.444,0.859
		l-0.129-0.05l-0.001,0.115c-6.367,0.095,13.996,0.826-324.445-10.614l0.125-0.672c-0.626-2.775,0.282-44.021-0.746-47.572
		c-2.829-0.208-5.316-0.224-8.659,0.012c0.211,16.935,0.046,31.462,0.012,47.849c-2.276-0.24-3.635-0.418-5.549-0.604
		c-0.218,2.322-0.648,29.634,0.07,31.836l-0.068,0.009c0.191,0.355,0.167,0.313,0.224,0.474l0.047-0.006
		c1.047,1.699,3.196,1.529,4.816,1.957c0.367,4.319,0.595,36.918-0.332,42.344c-0.954,4.832-7.291-3.549-6.476,19.372
		c-1.547,6.796-0.123,39.623,0.777,42.685l-0.008,0.004c0.081,0.247,0.054,0.153,0.143,0.484l0.006-0.003
		c6.107,19.641,2.46,40.25,53.988,83.048c1.086,1.07,2.57,1.231,4.071,1.462c-0.151,0.583-0.208,0.819-0.278,1.114
		c2.714,2.612,12.576,9.071,20.084,12.314H2342.17c1.676-12.487,5.461-10.131,15.363-16.154
		c0.038-0.023,68.035-84.777,77.802-94.784l-0.002-0.005c9.319-9.764,17.075-21.201,61.659-64.445
		c1.24-1.022,89.837-77.813,99.43-93.676C2585.311,425.027,2568.42,428.688,2556.36,428.688z M1806.306,227.811
		c0.536-0.01,2.635,0.006,3.888,0.053c-0.114,3.034,0.741,8.135-6.033,9.727l-0.197-1.025
		C1804.917,233.706,1805.607,230.73,1806.306,227.811z M999.73,386.595c-1.7,0.052-3.393,0.09-5.072,0.126
		c-0.576-5.144,0.205-10.164-0.068-15.391c1.874,0.739,3.986,0.471,5.611,0.488C1000.384,373.221,1000.469,384.497,999.73,386.595z
		 M1230.131,382.806c-1.038-0.043-2.086-0.038-3.193,0.026c-1.368-2.843-0.848-14.871-0.691-18.009
		c1.667-0.105,3.27,0.537,4.7,1.133C1231.001,377.301,1231.527,380.097,1230.131,382.806z M1480.224,353.767
		c-1.508-0.38-1.055-1.372-1.294-3.858c-0.454-4.677,0.538-4.779,2.088-5.507c1.605-1.143,1.504,2.092,1.881,3.985
		C1483.841,353.126,1482.036,354.226,1480.224,353.767z M1779.223,298.251c-1.09,2.659-1.354,5.462-2.205,8.089
		c-0.384,0.223-0.998,0.577-1.441,0.832c-7.978-21.849-18.261-46.583-22.955-59.385c1.246-0.124,25.372-1.173,42.097-0.9
		c-1.18,4.572-15.301,50.853-15.497,51.362L1779.223,298.251z M1950.609,428.029l-1.291-1.047l1.348-0.229
		c0.688-7.973,1.066-16.156-5.053-15.728c-15.244-0.302-19.646-0.948-20.223,5.334l1.049-0.294c-1.045,2.59-0.815,5.42-0.732,8.14
		c-0.192,0.148-0.515,0.399-0.728,0.565c-3.662-8.47-15.653-27.798-21.907-48.983c4.911,0.752,24.649,8.222,29.13,10.015v0.001
		c8.567,3.12,41.577,17.278,47.171,40.772C1964.158,427.546,1960.074,427.807,1950.609,428.029z"/>
</g>
</svg>
