<?xml version="1.0" encoding="utf-8"?>

<!DOCTYPE svg PUBLIC "-//W3C//DTD SVG 1.1//EN" "http://www.w3.org/Graphics/SVG/1.1/DTD/svg11.dtd">
<svg version="1.1" id="Layer_1" xmlns="http://www.w3.org/2000/svg" xmlns:xlink="http://www.w3.org/1999/xlink" x="0px" y="0px"
	 viewBox="0 0 2626.901 991.461" enable-background="new 0 0 2626.901 991.461" xml:space="preserve">
<path d="M2466.445,454.005c-23.752,0.194-19.145,1.033-35.336-12.101c-4.384,1.128-8.832,2.045-13.357,2.192
	c-12.943,2.839-4.932,5.914-14.274,3.814c-4.012-1.207-5.24,3.88-7.679-1.32c-1.237-2.615-0.583-6.019-3.051-7.974
	c-3.428,4.315-1.754,3.059-2.474,15.473c-17.206,0.403-13.567,0.086-21.068-1.993c-0.205-4.429,0.41-8.884-0.334-13.287
	c-2.588-0.518-14.384-1.278-18.85,1.429c-0.103,4.769,0.583,9.723-1.385,14.223c-1,0.068-38.478,2.034-42.053,0.673
	c-4.069-4.993,0.103-3.278-13.281-17.543c-2.75-3.077-6.819-4.942-8.967-8.506c-0.699-12.888,0.661-16.424-3.494-19.517
	c-2.493-0.776-5.288,0.122-7.627-1.32c-0.563-52.033-25.25-104.485,20.819-100.682c0.192-1.224,0.538-2.448,0.417-3.692
	c-0.648-0.84-1.423-1.558-2.096-2.32c0.878-1.993,1.583-4.07,1.885-6.243c-1.59-1.115-2.942-2.493-4.038-4.064
	c-6.991,5.352-3.494,4.738-4.211,10.101c-1.705,0.365-2.314-1.231-3.012-2.384c-0.429,0.654-0.84,1.308-1.224,1.961
	c-0.442-0.897-0.801-1.788-1.147-2.698c-1.006,0.282-2.032,0.519-3,0.743c-0.141-2.07-0.257-4.141-0.269-6.211
	c1.41-0.038,2.827-0.103,4.281-0.288c-1.263-0.763-2.686-1.115-4.07-1.461c-0.141-1.987-0.205-3.974-0.199-5.961
	c1.378-0.083,2.775-0.179,4.198-0.352c-1.173-0.878-2.608-1.077-3.98-1.211c0.006-1.75-0.141-3.493-0.468-5.205
	c1.378-0.314,2.724-0.705,4.076-1.218c-2.575-2.072-15.367-0.429-26.984-1.416c1.054-5.735-1.499-24.819,0.487-31.977
	c2.525-1.929,5.032-3.942,7.659-5.769c-0.109-1.827-0.122-3.653-0.256-5.48c-1.468-0.019-2.91-0.026-4.34-0.032
	c-0.275,0.776-0.525,1.551-0.75,2.327h-2.218c-0.404-0.724-0.762-1.436-1.109-2.154c5.329-5.081,3.881-10.038,3.813-12.114
	c0.526-0.128,1.577-0.372,2.103-0.5c-1.551-1.744-2.603-4.102-1.032-6.217c-1.217-1.833-0.891-3.922-0.307-5.909
	c-1.667-0.231-3.34-0.154-4.993-0.032c0.276,1.442,0.635,2.865,0.923,4.307c-0.603,0.551-1.186,1.096-1.737,1.647
	c0.641,1.141,1.622,2.327,1.288,3.737c-0.512,0.878-1.115,1.679-1.634,2.525c-1.571,0.212-3.75-0.545-4.698,1.064
	c-0.07,1.429,0.205,2.839,0.429,4.25c-10.395,1.728-11.213-0.168-14.658,1.468c3.044,1.282,6.416,1.09,9.659,1.346
	c1.01,4.072,0.199,3.679,0.538,47.207c-7.368-0.02-27.669,1.293-30.785,1.711c0.224,0.372,0.673,1.115,0.897,1.487
	c1.122,0.013,2.276,0.032,3.449,0.045c-0.404,0.609-0.762,1.218-1.096,1.846c0.635,1.301,0.647,2.763,0.583,4.192
	c-1.615,0.211-3.224,0.327-4.756,0.763c1.525,0.256,3.115,0.333,4.705,0.423c0.051,1.654,0.109,3.301,0.18,4.961
	c-1.558,0.718-3.161,1.301-4.762,1.846c2.262,1.628,2.531,4.339,2.948,6.865c-1.423-0.019-2.833-0.038-4.218-0.071
	c-0.032-2.724-0.557-5.769-2.634-7.691c-2.526-1.147-5.679-1.391-8.166-0.051c1.333,3.391,3.423,7.339,1.519,10.922
	c-2.211-0.192-4.41-0.34-6.595-0.186c0.445,5.038,2.296,3.965,5.372,5.153c11.835,0.479,11.719-2.191,22.606,13.979
	c0.284,4.365-9.774,57.345-9.909,58.347c-9.403,0.974-18.857,1.391-28.292,1.218c-4.077,1.328-61.191,4.083-72.294,2.032
	c-3.292-1.818-19.856-23.027-21.549-26.395c0.288-0.974,0.801-1.865,1.294-2.763c-1.974-0.82-4.493-0.82-5.749-2.763
	c-0.314-1.493-0.225-3.032-0.308-4.538c2.422-0.09,4.884-0.481,6.864-2.025c-9.719-5.524-23.139,1.274-34.041-5.147
	c0.154-3.852-1.244-7.653-0.391-11.486c0.551-2.442,0.147-4.942-0.744-7.249c-0.82,0.032-1.615,0.071-2.378,0.109
	c-1.436,2.795-0.987,5.897-0.462,8.852c-3.595,0.423-3.692-4.237-6.877-4.666c-0.058,1.352,0.077,2.705,0.314,4.038
	c-0.661,0.628-1.314,1.25-1.929,1.891c-0.385-2.128-0.154-4.596-2.141-5.98c-0.57,1.096-0.993,2.263-1.134,3.493
	c-1.032-1.16-2.314-2.045-3.666-2.756c-0.314,0.955-0.603,1.923-0.865,2.891c-1.295-0.852-2.462-1.891-3.545-2.961
	c-0.705,1.013-1.327,2.064-1.923,3.115c-1.192-1-2.339-2.038-3.493-3.045c-0.743,1.282-1.417,2.589-1.987,3.948
	c-0.622-1.295-1.302-2.602-2.442-3.493c-0.673,1.519-1.218,3.077-1.763,4.634c-1.807,0.064-3.608,0.154-5.384,0.276
	c-3.17,3.805,0.638,6.034-2.82,12.627c-2.191-0.147-15.491-0.444-18.242,1.564c0.346,2.198-0.603,28.6-0.603,28.6
	c9.673,8.488,5.615-8.491,23.196,24.722c2.73,7.536,2.431,2.332-2.897,17.767c-5.605,12.846-9.132,27.105-13.614,31.375
	c-1.444,0.175-7.153-3.631-7.877-7.198c-0.179-4.455,0.635-8.884,0.628-13.332c-0.705-1.596-2.295-2.628-3.66-3.602
	c-11.494-2.952-19.123,0.105-22.69-3.128c-0.212-1.167,0.904-1.884,1.519-2.711c-0.66-0.788-1.385-1.538-1.865-2.436
	c-0.237-1.878-0.122-3.782-0.115-5.666c0.936-0.462,1.891-0.91,2.871-1.365c-1.359-1.34-3.108-2.686-2.891-4.826
	c-0.635-2.064,0.705-3.75,2.083-5.096c-0.25-0.583-0.468-1.154-0.66-1.724c-48.48-3.679-125.288,1.167-125.288,1.167
	c-2.237-16.366-1.693-11.134,1.263-15.902c7.443-11.426,10.129-13.486,11.512-16.889c-1.219-7.292-2.27-21.212-0.199-27.427
	c-3.698-2-7.98-1.57-12.018-1.558c-0.423-2.852-0.391-5.737-0.269-8.602c-9.617-7.784-4.061-6.285-6.679-11.249
	c-0.897-0.442-1.923-0.462-2.846-0.635c-0.564,2.641-0.257,5.333,0.596,7.871c-0.429-0.545-0.827-1.09-1.205-1.641
	c-0.302,0.032-0.571,0.083-0.82,0.141c-0.596-1.154-1.256-2.275-2.032-3.301c-0.295,0.981-0.564,1.974-0.795,2.968
	c0.545,0.397,1.154,0.795,1.763,1.192c-1.186,0.41-2.307,0.936-3.391,1.519c-0.051-0.846-0.09-1.686-0.103-2.519
	c-0.231-0.115-0.705-0.359-0.942-0.481c-0.462-0.75-0.975-1.474-1.5-2.147c-0.391,1.397-0.667,2.827-1.012,4.237
	c-1.269-1.282-2.558-2.532-3.788-3.833c-0.737,1.359-1.641,2.615-2.808,3.628c-0.557-1.365-1.23-2.673-2.019-3.897
	c-0.641,1.199-1.134,2.455-1.48,3.762c-0.289-0.308-0.552-0.609-0.789-0.904c-0.141,0.59-0.257,1.186-0.352,1.782
	c0.109-1.699-0.673-3.032-2.058-3.936c-0.282,0.718-0.545,1.436-0.789,2.16c0.545,0.365,1.141,0.737,1.744,1.102
	c-3.877,1.483-0.772,5.72-4.666,12.646c-39.11,2.728-38.767,0.296-39.817,3.154c0.179,3.346,1.391,6.974-0.782,9.98
	c0.429,1.038,0.859,2.07,1.295,3.121c-4.545,7.308-4.867,7.067-15.415,6.608c-2.442-0.699-5.609-0.57-7.256-2.763
	c-2.459-17.287,1.619-13.065-1.41-18.299c-0.769-0.045-1.526-0.083-2.256-0.128c-0.884,1.622-1.295,3.41-1.115,5.262h1.955
	c-1.564,1.243-1.654,3.218-1.231,5.025c-1.654-0.34-3.327-0.436-4.98-0.519c-0.032-1.75-0.398-3.468-1.064-5.076
	c-1.115,0.769-2.18,1.577-3.269,2.34c-0.673-0.577-1.321-1.154-1.962-1.718c-1.474,0.192-2.961,0.212-4.423,0.109
	c-0.808,0.859-1.603,1.718-2.423,2.545c-0.84-0.949-1.621-1.91-2.43-2.865c-2.657,4.914-1.377,3.918-7.781,5.294
	c-0.897,3.641,0.019,7.403-0.622,11.082c-17.458,0.036-19.041,0.615-21.17,1.647c-1.154,3.583-1.167,7.339-1.378,11.05
	c-0.637,1.563-106.553,6.989-107.553,7.038c-0.077,0.686-0.128,1.378-0.167,2.07c1.263,0.179,2.532,0.359,3.827,0.545
	c0.224,2.295,0.205,4.609-0.09,6.897c-1.596,0.372-3.089,1.019-4.454,1.904c1.365,0.711,2.801,1.256,4.294,1.679
	c0.051,1.917-0.013,3.846-0.346,5.743c-1.109,1.103-2.775,1.327-4.134,1.955c1.128,1.09,2.468,1.91,3.865,2.666
	c-2.25,1.628-4.09,3.737-6.301,5.384c-1.679,0.333-3.416,0.276-5.083,0.09c-1.243-0.487-2.211-1.41-3.352-2.026
	c-4.861,1.728-35.47,2.628-35.47,2.628c-1.224,1.327-0.41,3.269-0.474,4.871c-2.48,0.167-4.968,0.167-7.429,0.064
	c0.654-4.974,0.308-9.961-0.224-14.915c6.616-13.418,9.621-14.738,16.729-16.216c-2.719-39.818,3.918-23.832-13.646-29.574
	c-0.833-3.609,0.589-7.429-0.456-11.069c-1.596-0.218-3.179-0.436-4.749-0.635c-0.917-1.916-0.378-3.955,0-5.922
	c-0.359-1.474-1.801-2.442-2.718-3.589c-2.295,2.91-0.256,6.82-2.327,9.832c-1.612-0.787-1.687-3.207-2.664-4.614
	c-1.041,0.717-0.628,0.433-1.669,1.15c0.443,0.745,0.943,1.487,1.475,2.239c-0.699,0.34-1.378,0.699-2.039,1.058
	c-0.775-1.487-1.654-2.916-2.448-4.378c-0.5,0.692-0.981,1.391-1.436,2.09c-1.102-0.474-2.172-0.974-3.23-1.468
	c-0.475,0.84-0.91,1.686-1.359,2.525c-0.795-0.026-1.564-0.051-2.333-0.038c-0.07-0.782-0.128-1.558-0.167-2.327
	c-1.038,0.884-1.763,2.397-3.243,2.532c-0.853-0.769-1.48-1.724-2.192-2.583c-0.346,1.288-0.622,2.596-0.911,3.903
	c-1.141-1.179-2.288-2.352-3.487-3.448c-1.311,4.702-2.91,13.524-2.91,13.524c-1.827,2.724-5.589,0.647-7.935,2.461
	c-8.211,3.576,5.686-1.318-27.17,0.526c-2.564,0.545-2.455,3.57-2.551,5.621c-8.595,0.564-17.088-1.295-25.683-0.917
	c-0.025-1.769-0.096-3.538-0.282-5.294c-1.756-0.173-3.526-0.263-5.262-0.045c1.275,0.711,2.75,0.66,4.185,0.609
	c-0.064,1.34-0.103,2.686-0.103,4.032c-1.506-0.32-3.025-0.596-4.557-0.615c0.179-1.372,0.282-2.75,0.346-4.128
	c-0.346-0.026-1.045-0.077-1.391-0.109c-0.122,1.487-0.224,2.974-0.307,4.467c-2.995,0.59-59.963,0.777-60.225,0.686
	c2.621-0.974,5.467-0.282,8.198-0.667c-4.282-1.795-9.043-0.513-13.396-1.692c-0.987-1.994-0.878-4.244-1.154-6.385
	c-0.328-0.263-0.553-0.444-0.88-0.708c-2.791,0.157-5.57,0.156-8.349,0.074c-0.308,0.255-0.532,0.441-0.84,0.696
	c-0.244,1.91-0.07,3.843-0.051,5.771c-7.293,0.878-20.52-0.097-20.889-0.032c-0.468,0.353-0.897,0.731-1.282,1.154
	c7.255,0.115,14.517-0.103,21.773,0.122c-2.168,1.466-23.036,0.883-25.523,0.173c1.199-0.135,2.423-0.212,3.66-0.237
	c-0.128-0.564-0.276-1.115-0.436-1.654c-10.246,1.043-17.802-0.701-21.363-0.506c3.615,1.929,7.89,0.673,11.749,1.763
	c-6.685,0.07-13.383,0.455-20.055-0.019c0.025-0.32,0.083-0.961,0.115-1.282c1.327-0.09,2.647-0.212,3.993-0.417
	c-1.237-0.404-2.519-0.602-3.769-0.795c-1.102-2.955-0.192-6.801-2.846-9.031c-2.782-0.769-5.717-0.699-8.57-0.91
	c-3.026-5.932-0.475-8.875-3.558-11.294c-40.981-10.178-13.377,3.411-34.272-4.301c-10.999-4.078-3.253-6.632-14.697-4.185
	c-2.962,1.096-5.256-1.936-8.134-1.981c-1.154,0.474-1.884,1.602-2.82,2.372c-1.513,1.577-3.871,1.724-5.564,3.019
	c1.25-0.039,2.519-0.173,3.795-0.288c-0.359,0.692-0.705,1.391-1.032,2.09c-1.41-0.006-2.814-0.019-4.205-0.019
	c-0.314,0.968-0.75,1.904-0.904,2.916c0.282,1.897,1.109,3.852,0.481,5.769c-0.455,1.32-0.686,2.698-0.519,4.089
	c-0.074,0.015-37.891-4.976-44.149-4.961c22.814-4.377,24.797-3.638,25.773-5.525c0,0-37.621,5.96-37.624,5.961
	c-0.013-2.019-0.128-4.044-0.776-5.961c-4.012-0.07-8.012-0.147-12.018-0.263c-0.154,2.532-0.167,5.07-0.321,7.602
	c-27.027,5.929-44.834,6.388-52.821,7.865c-0.263-2.006-0.391-4.012-0.526-6.025c-3.288-0.192-6.583-0.41-9.877-0.365
	c-0.045,2.538-0.141,5.076-0.167,7.615c-1.167,0.186-2.307,0.391-3.435,0.641c0.487,0.545,0.993,1.083,1.506,1.634
	c-0.852-0.494-1.647-1.083-2.557-1.417c-1.001,0.013-47.094,7.589-57.456,6.942c-1.513-5.053-0.979-4.03-5.224-4.442
	c-3.602,0.491-3.888-1.345-4.397,5.685c-4.717,0.904-9.396,2.006-14.165,2.589c0.212,0.519,0.461,1.058,0.711,1.583
	c-2,0.115-3.98,0.327-5.967,0.288c1.756-0.513,3.968-0.16,5.262-1.705c-4.389,0.19-32.572,5.071-64.262,5.647
	c-2.68,0.135-4.833-2.025-7.576-1.615c-2.992,3.598-3.725,4.165-5.775,17.62c-2.931,13.077,1.401,9.181,1.295,14.127
	c0.28,10.342,1.111,10.95,0.122,13.101c-2.102,0.769-4.974-0.244-6.448,1.769c-10.413,12.046-6.528,7.997-16.755,9.512
	c0.936,1.961,1.212,4.115,1.192,6.275c-4.538,2.11-48.12-0.159-52.725-0.07c-1.129-2.414-6.527-59.611,14.306-74.454
	c-0.074-0.016-0.148-0.026-0.222-0.042c2.175-2.213,3.566-5.28,3.727-8.294c11.006,0.764,10.023-0.18,12.134-1.451
	c1.231,1.192,2.442,2.404,3.679,3.602c2.141-0.397,4.128-1.269,5.89-2.545c2.858-0.008,41.36-9.641,41.989-14.191
	c-0.07-7.025,0.09-14.063-0.558-21.062c-2.641-0.129-44.415-0.223-57.398-2.25c0.186-1.602-0.269-3.512,0.993-4.782
	c0,0,45.468,0.449,45.47,0.449c0.269,0.692,0.545,1.385,0.853,2.077c0.481-0.513,0.981-1.019,1.487-1.525
	c2.538,0.019,5.083-0.051,7.634-0.077c0.186,1.032,0.391,2.064,0.622,3.096c0.167-2.224,0.59-4.602,2.961-5.455
	c0.288-3.179,0.429-6.378,0.09-9.557c-2.75-0.212-5.506-0.378-8.256-0.218c-0.243-7.038,0.09-14.069,0.019-21.107
	c1.282,0.122,2.57,0.218,3.871,0.256c-13.677-7.346-15.712-2.709-41.823-4.858c-8.667,1.46-16.344,6.268-18.19,3.077
	c-0.756-5.679,0.808-11.486-0.577-17.114c-0.885-0.051-1.756-0.09-2.622-0.128c-1.029-8.024,0.645-9.326-0.795-21.901
	c0,0-58.81-1.965-60.237-1.968c-0.064-2.801-0.218-5.935,1.666-8.236c1-1.244,2.263-2.865,1.122-4.455
	c-0.468-1.718-2.205-2.045-3.698-2.378c-0.43,0.481-0.853,0.968-1.256,1.455c0.192-2.109,0.795-4.16,0.955-6.268
	c-0.417,0.224-1.243,0.667-1.654,0.891c-5.039-6.13-0.022-8.063-1.942-12.255c-2.003-5.215,4.572-10.609-5.23-16.05
	c-14.872-8.644-26.206,14.525-19.037,19.812c-0.602,0.442-1.211,0.891-1.801,1.34c-0.659,12.154,2.235,5.703,8.986,14.011
	c0.699-0.686,1.41-1.359,2.147-2.019c0.231,0.66,0.468,1.327,0.711,1.994c-5.911,10.786,10.128,14.687-43.098,10.448
	c0.192-4.801-0.558-9.711,0.686-14.402c-0.327-2.647-1.654-5.525-4.391-6.384c0.096-3.698-0.43-7.384-0.866-11.044
	c-1.547,3.592,0.369,5.43-0.602,10.461c-1.846,3.155-2.215,0.62-2.686,6.691c1.801,0.494,3.628,0.872,5.448,1.295
	c0,3.507-2.851,11.898-3.275,13.037c-1.808,0.109-3.615,0.16-5.41,0.186c-0.141,2.096-0.34,4.185-0.474,6.275
	c-2.5,0.019-5.032-0.711-7.486,0.019c1.506,1.275,3.525,0.917,5.352,1.013c-1.468,0.987-2.923,2.134-4.692,2.481
	c-1.371-0.385-2.577-1.167-3.801-1.84c-1.551,1.788-3.974,1.416-6.089,1.481c0.301-0.763,0.609-1.526,0.91-2.288
	c-1.705-1.692-3.128-3.852-1.705-6.211c1.423-0.032,2.852-0.064,4.288-0.109c-4.265-13.338,1.426-11.777,1.013-15.684
	c1.497-7.8-6.131-10.675-13.204-7.717c-3.425-20.797-0.338-65.63-4.173-76.402c-1.167,6.807,0.026,13.672,0.224,20.498
	c1.719,77.087-0.897,61.842-0.897,76.806c-6.679,0.494-13.37,0.179-20.049-0.058c0.83-8.699-0.346-20.068-0.346-20.068
	c0.16-1.487,1.436-2.859,0.897-4.384c-0.468-1.077-0.269-2.916-1.839-2.923c-1.711,1.801-1.032,4.583-0.923,6.845
	c-5.869,1.05-6.505,2.707-4.839,7.192c1.66-0.622,3.416-0.859,5.185-0.942c-0.461,1.653-1.09,3.307-2.436,4.454
	c0.461,0.051,1.372,0.16,1.827,0.212c-1.301,3.115-2.436,6.294-3.057,9.627c-0.062-0.006-51.611-1.67-53.219-1.801
	c-0.678-11.338,2.447-20.544,2.442-20.703c-0.744,0.307-1.468,0.641-2.173,1c-0.372,0.788,0.077,1.609,0.25,2.397
	c-0.269-0.18-0.801-0.532-1.07-0.705c-0.064-1.006-0.122-2.013-0.186-3.012c0.391,0.006,1.167,0.026,1.557,0.032
	c-0.051-0.378-0.154-1.128-0.198-1.506c-0.314-0.019-0.942-0.051-1.256-0.07c-0.013-0.808-0.019-1.615-0.019-2.417
	c-0.455,0.103-1.359,0.308-1.807,0.41c0.026,1.391,0.083,2.782,0.179,4.173c-1.429,0.147-2.846,0.352-4.269,0.551
	c-0.769,1.801-1.602,3.679-1.429,5.685c0.654,0.071,1.327,0.141,1.993,0.218c0.103-0.346,0.212-0.692,0.327-1.038
	c1.057,0.365,2.128,0.679,3.218,0.974c0.333,3.429-0.641,6.672-2.038,9.762c-0.878-1.981-1.756-3.968-2.416-6.031
	c-1.173,0.66-2.455,1.064-3.756,1.346c1.058,2.839,0.43,5.737-0.545,8.493c-40.71,1.145-26.533-7.594-30.388-26.042
	c-1.433-7.286,3.734-6.397,10.64-5.454c-0.32-0.942-0.66-1.871-1-2.801c0.75-0.654,1.513-1.301,2.269-1.955
	c-0.647-0.263-1.288-0.519-1.923-0.782c1.147,0.199,2.307,0.41,3.467,0.628c-0.231-2.878,0.737-5.576,1.481-8.294
	c-0.551-0.763-1.179-1.461-1.884-2.077c-0.987,1.128-1.775,2.429-1.66,3.98c-1.288,0.808-2.544,1.673-3.839,2.461
	c1.628-3.955,5.884-6.294,7.531-10.294c0.461-0.122,1.378-0.365,1.84-0.487c-0.25-0.91-0.205-2.083-1.051-2.686
	c-0.186,0.449-0.551,1.34-0.737,1.788c-0.038-0.929-0.103-1.859-0.154-2.782c1.57,0.218,2.577,1.384,3.538,2.532
	c-0.936,1.276-1.686,2.666-2.275,4.128c0.526,0.218,1.064,0.442,1.609,0.667c-0.442,2.07-1.346,4.262-0.904,6.365
	c1.006,0.987,2.141,3.192,3.775,2.179c4.926-19.77,4.718-18.049,4.07-21.85c-3.141,0.526-6.224,1.288-9.178,2.48
	c-3.332-11.498-0.008-2.838-1.449-11.447c2.038-0.449,4.134-0.5,6.224-0.564c-0.209-1-1.289-11.108-0.993-26.728
	c-2.897-1.115-6.256-0.34-8.922-2.058c0.628-0.564,1.256-1.122,1.885-1.686c-1.551-0.289-3.102-0.526-4.653-0.788
	c-2.884-5.326-0.372-11.262,1.532-16.447c-1.096-1.506-1.782-3.243-2.359-4.993c4.245-5.372,2.684-2.459,3.109-7.063
	c-0.224,0.231-0.679,0.686-0.904,0.917c-0.25-0.481-0.5-0.955-0.744-1.423c-1.006,0.628-2.006,1.256-3.013,1.872
	c-0.134-1.333-0.058-2.711-0.461-4c-1.192-1.064-2.737-1.609-4.256-2c0.244,0.763,0.5,1.525,0.776,2.282
	c-0.84-1.583-2.237-2.73-4.057-2.91c-1.332,8.814,0.39,7.041,0.692,11.755c1.026-0.141,2.051-0.282,3.09-0.397
	c-1.987,5.27-7.324,2.513-15.223,4.499c3.577,2.404,7.781,3.647,11.839,4.993c-0.749,12.584-3.671,12.409-5.269,15.409
	c-2.493-0.179-4.993-0.179-7.48-0.295c-1.929,0.038-3.134-2.224-5.115-1.84c-11.278,1.141-4.203,2.234-13.576-0.622
	c-3.737,0-25.391,7.802-16.421-12.608c24.104-0.286,19.574-0.023,21.895-2.679c-5.297-2.594-13.963-0.412-27.991-1.756
	c0.763-0.436,1.539-0.852,2.32-1.275c-0.243-0.218-0.487-0.442-0.718-0.66c1.699,0.051,3.404-0.038,5.102-0.211
	c-1.301-1.718-1.449-3.763-1.039-5.807c-0.743-0.372-1.474-0.769-2.192-1.16c-0.987,1.622-2.051,3.32-4.218,3.089
	c-3.481-5.532-6.754-23.851-4.346-26.42c2.134-1.032,4.583-0.923,6.852-1.506c0.449-0.583,0.731-1.269,1.045-1.936
	c0.846-0.141,1.692-0.275,2.558-0.404c-0.204-1.752-0.453-3.496-0.705-5.233c-0.756-0.079-0.657-0.068-1.413-0.147
	c-0.66,1.828-1.153,3.708-1.76,5.554c-0.686-0.596-1.353-1.205-2.013-1.814c-1.006,0.487-2.026,0.942-3.07,1.327
	c-0.34-1.366-0.667-2.731-1.051-4.083c-1.59-0.455-3.154-1.282-3.288-3.128c0.897-0.968,2.134-1.513,3.25-2.205
	c-1.385-0.359-2.769-0.705-4.128-1.134c1.814-0.026,11.755-0.141,14.96,0.115c-0.641-0.788-1.32-1.532-1.993-2.275
	c0.808-1.179,1.416-2.525,1.468-3.974c-0.596-0.942-1.346-1.775-2.038-2.641c2.838-8.845,3.513-10.452,2.365-13.582
	c-1.615,1.269-2.891,2.878-4.051,4.551c-1.089-0.833-2.09-1.763-3.064-2.717c-0.795,0.756-1.577,1.525-2.397,2.249
	c0.513,1.814,1.673,3.295,3.006,4.589c0.481-0.481,0.968-0.968,1.461-1.449c-0.244,0.718-0.481,1.442-0.711,2.166
	c-0.558-0.32-1.109-0.647-1.647-0.968c-0.635,2.314-2.013,4.295-3.205,6.339c-1.237-0.609-2.461-1.231-3.686-1.84
	c0.814-0.288,1.628-0.583,2.449-0.891c-2.516-3.103-2.599-1.874-5.032-1.058c0.481,0.692,0.993,1.365,1.513,2.038
	c-1.134,1.154-2.115,2.506-3.474,3.404c-4.083,0.532-8.339-0.263-12.262,1.282c0.019-2.897,0.378-5.993-0.814-8.717
	c-5.234-5.741-11.543,5.712-5.666,8.896c-0.378,0.654-0.743,1.32-1.083,1.987c-4.865,0.211-9.73,0.006-14.556-0.603
	c0.135,0.974,0.276,1.949,0.423,2.923c7.139,2.623,3.739-1.526,14.761,2.371c0.69,5.261,1.207,3.127,4.243,4.006
	c-0.513,1.865-1.372,3.602-2.089,5.39c3.948,0.391,7.839,1.147,11.749,1.795c0.641,4.012,1.314,8.134,0.282,12.153
	c-3.25,0.24-24.713,0.565-28.548-0.365c-4.634,0.974-9.39,0.167-14.082,0.244c1.128-3.192,1.577-6.846,0.564-10.108
	c0.359-0.045,1.07-0.135,1.423-0.18c-1.019-1.808-3.743-4.006-5.474-1.776c-0.731,3.737-1.686,7.839,0.487,11.307
	c-0.526,0.82-1.064,1.634-1.583,2.461c7.646,3.941,14.024,0.697,17.473,4.827c2.66,2.974,24.622,26.826,26.677,33.099
	c-1.634,1.269-3.685,1.551-5.666,1.827c-0.583-0.66-1.16-1.32-1.743-1.968c-0.135,0.429-0.397,1.288-0.532,1.718
	c-7.057,1.058-23.855,2.566-31.574,1.654c0.66-4.32,0.641-8.685,0.429-13.031c-1.378-0.513-2.814-0.513-4.218-0.141
	c0.142,1.003,0.485,8.264-0.872,16.088c5.658,2.202,16.764,2.009,20.671,3.621c2.269,4.044,1.352,8.788,1.538,13.198
	c-0.174,0.001-38.372,0.617-38.541,0.66c0.289,0.295,0.872,0.891,1.167,1.192c5.582,1.078,28.817-0.033,34.003,2.449
	c-0.141,1.269-0.231,2.545-0.218,3.827c0.961-0.667,1.307-1.788,1.705-2.833c10.23,2.345,8.11,4.616,12.287,5.884
	c1.231,0.538,2.673,0.814,3.666,1.795c0,0-1.56,46.104-1.308,59.526c-0.423-2.5-0.051-5.095-0.769-7.544
	c-1.403-2.033-11.423-1.841-13.101-1.647c-3.647,0.282-7.095-1.493-10.736-0.942c-1.287-13.88,3.059-24.225-5.974-32.234
	c-1.499-1.303-7.228-2.173-8.909,4.506c-0.186,3.512,3.718,5.5,3.589,9.038c-0.359,6.166-0.301,12.358-0.372,18.536
	c-0.865,0.148-1.724,0.308-2.577,0.462c0.039-8.574,0.67-12.846-2.5-20.831c-2.271-1.544-8.655-10.404-14.396,1.891
	c-3.327-1.57-7.358-3.064-10.877-1.205c-2.365-3.846-0.628-8.217-0.904-12.364c4.688-4.257,5.153,0.502,13.313-1.397
	c3.077-3.777,3.911-18.959,3.929-19.96c-4.858,1.654-9.717,3.307-14.563,4.986c-12.015-9.45-13.855,4.799-14.793,7.576
	c-0.865-0.071-1.724-0.109-2.57-0.269c-8.832-12.388-17.178-13.871-27.888-2.057c-8.008,9.489,1.057,16.653,2.859,20.21
	c2.743,6.217,1.372,13.146,1.25,19.69c-1.128,0.564-2.237,1.167-3.339,1.763c-0.487-2.705,0.038-5.423,0.122-8.134
	c-0.884-0.359-1.775-0.692-2.66-1.013c0.533-7.804-2.1-16.541-9.332-13.031c-0.301-0.91-0.596-1.82-0.91-2.718
	c0.308,2.557,0.314,5.134-0.243,7.666c0.205,0.493,0.622,1.48,0.827,1.974c0.064-0.647,0.205-1.949,0.276-2.596
	c1.33,3.513,2.915,4.075,1.327,12.454c-0.885,0.019-1.769,0.039-2.647,0.064c-0.199,0.91-0.385,1.827-0.577,2.743
	c-2.16,0.474-3.935,1.878-5.986,2.628c-1.006-6.379-1.799-40.638-3.025-42.624c-0.558,3.141-0.32,6.41-1.359,9.461
	c-1.019-1.205-1.981-2.48-3.224-3.461c-1.827-1.199-4.166-1.699-5.628-3.41c-1.981-11.615,1.1-18.869-2.16-19.902
	c-0.06,1-1.005,31.235-0.276,42.028c-0.782-1.07-1.417-2.314-2.519-3.083c-6.464-1.744-17.125,2.603-12.646,14.133
	c0.993,0.487,2.045,0.897,2.942,1.564c0.904,2.846,0.814,5.891,1.045,8.845c-3.141,0.359-6.384,0.397-9.409,1.34
	c-0.125,0.32-3.065,12.25-3.218,13.255c-1.224,0-2.442,0.019-3.66,0.09c-4.929-28.135-0.087-20.362-5.089-23.709
	c0.013,1.647,0.096,3.301,0.346,4.935c-8.157,8.736,2.052,14.236-0.865,20.607c-1.434,2.775,2.299,10.757-0.385,13.96
	c8.41,10.686-19.462,9.255-33.605,18.87c0.75,1.256,1.872,2.096,3.358,2.211c0.045,6.358,0.212,12.717,0.026,19.075
	c-2.913-0.198-9.487-4.59-10.492-5.506c-1.038-0.84-0.128-2.192-0.083-3.262c-1.634,0.743-3.41,0.891-5.173,0.801
	c-0.135-0.949-0.269-1.891-0.423-2.833c2.128-0.135,4.211-0.583,6.237-1.256c0.263-1.487,1.231-3.141,0.34-4.576
	c-1.115-2.339-3.583-4.66-6.365-4.057c-5.118,3.627-3.811,10.675-0.493,12.794c-0.064,1.263-0.083,2.525-0.083,3.794
	c6.257,2.545,8.538,1.14,7.621,4.929c0,0-13.695,0.343-19.152,1.66c-0.032,3.878-2.814,6.794-3.577,10.46
	c0.949,1.077,2.077,2.051,2.698,3.365c0.692,8.006,1.673,16.12,0.256,24.106c0.462,0.968,1.128,1.82,1.75,2.705
	c-0.577,1.865-0.981,3.801-1.058,5.762c4.587,15.578,6.193-36.093,4.557,90.971c-40.571-0.932-73.871,0.949-73.871,0.949
	c-0.448-4.523,9.258-26.08,9.909-27.081c7.296-13.941-2.108-7.664-67.967-11.672c-2.951-0.59-30.782,72.646-35.387,81.985
	c-1.961,0.026-3.942-0.506-5.884-0.231c-0.13,0.299-6.192,15.755-6.192,15.755c0.84,1.756,2.538,2.936,3.75,4.435
	c-1.799,6.449-17.532,44.167-18.69,47.444c-1.005-0.013-15.43,0.089-16.691,1.795c1.916,0.487,3.891,0.667,5.826,1.045
	c0.013,1.705-0.006,3.416,0.077,5.128c-1.955,0.526-4.48-0.199-5.929,1.5c1.904,0.269,3.852,0.192,5.749,0.532
	c0.891,1.256,0.038,3.077,0.077,4.551c-2.109-0.07-4.512-0.519-5.967,1.436c0.654,0.596,1.288,1.243,2.013,1.775
	c3.288,0.731,6.685,0.68,10.031,0.564c6.658,9.855,4.04,59.77,1.429,64.718c8.384,9.972-5.743,9.004-19.351,11.236
	c1.346,2.045,1.224,4.878-0.346,6.775c0.718,0.026,1.551-0.148,2.083,0.481c0.096,1.942-0.077,3.897-0.16,5.846
	c-0.385-0.192-1.154-0.57-1.538-0.763c1.359,2.532,0.564,5.333,0.032,7.967c-1.141,0.718-2.25,1.481-3.333,2.288
	c0.613,6.026,6.673,20.332,7.615,25.049c1.846,2.942,3.218,6.128,4.57,9.319c15.149,36.964,43.728,62.895,48.591,68.98
	c-2.404,1.769-4.724,3.634-7.012,5.551c2.064,4.04,1.668,9.021,1.051,14.3c0.865,0.352,1.827,0.57,2.551,1.198
	c0.643,1.008,9.126,16.538,8.903,19.113c-5.201,0.205-32.555-3.441-43.733,0.07c0.011,0.059,51.747,49.634,51.79,49.675
	c17.033,16.272,38.573,27.043,61.85,30.66c715.046,111.117,1444.47,127.01,2194.324,7.594
	c75.189-11.974,85.694-113.282,114.405-164.115c16.861-29.852,36.878-56.778,58.68-83.048c38.978-46.962,17.121-3.887,42.495-104.69
	C2597.225,454.571,2625.102,459.697,2466.445,454.005z M2004.621,364.13c-0.744,0.064-1.468,0.135-2.167,0.211
	c-0.59-1.846-1.135-3.75-1.025-5.704c0.532-0.904,1.57-1.32,2.416-1.949C2005.672,358.836,2005.249,361.605,2004.621,364.13z
	 M2004.621,353.971c-0.808,0.474-1.577,0.968-2.333,1.468c-1.096-2.391-1.096-5.032-1.025-7.595c1.397,0.07,2.827,0.141,4.256,0.269
	C2005.172,350.061,2004.781,351.997,2004.621,353.971z M2010.287,364.079c-0.257,0.051-0.776,0.147-1.039,0.192
	c-0.269-2.423-1.025-4.865-0.365-7.288c0.385,0.026,1.153,0.077,1.538,0.102C2011.287,359.38,2010.889,361.778,2010.287,364.079z
	 M2010.973,353.862c-0.654,0.045-1.276,0.103-1.878,0.16c-0.044-2.013-0.083-4.025-0.429-6.006c0.788-0.019,1.589-0.038,2.429-0.051
	C2011.049,349.926,2011.037,351.894,2010.973,353.862z M1536.708,357.81c1.282-0.045,2.557-0.058,3.865-0.058
	c0,1.84-0.051,3.686-0.147,5.532c-1.327-0.013-2.622-0.032-3.91-0.077C1536.593,361.406,1536.688,359.611,1536.708,357.81z
	 M1536.304,366.95c1.365-0.026,2.744-0.026,4.141-0.013c0.82,2.666-0.507,6.66-3.775,6.467
	C1536.163,371.283,1536.131,369.104,1536.304,366.95z M878.417,275.806c0.301-1.16,0.628-2.314,0.929-3.474
	c3.141,0.045,12.806,0.711,14.518,0.846c0.045,0.82,0.103,1.647,0.179,2.481C886.802,274.702,894.143,276.676,878.417,275.806z
	 M914.394,266.602c0,0,0.447,3.248,0.743,23.049c-6.499-0.615-13.031-0.058-19.536-0.429c0.474-4.756,2.378-9.364,2-14.191
	c1.417-0.147,2.807-0.474,4.173-0.891c-1.545,0.077-3.083,0.128-4.615,0.167C898.459,270.068,904.073,271.353,914.394,266.602z
	 M911.676,266.493c-2.275,0.115-4.544-0.122-6.801-0.135c0.904,0.365,1.827,0.705,2.763,1.058
	c-11.258,3.679-14.396,5.357-24.427,2.814C886.724,268.892,900.561,263.283,911.676,266.493z M892.409,265.467
	c-4.576,1.775-9.48,2.564-14.024,4.429c0.019-1.506,0.006-3.006-0.006-4.512C891.029,266.443,887.93,266.252,892.409,265.467z
	 M868.572,267.871c2.538-0.545,4.999-1.365,7.461-2.192c-0.109,1.416-0.205,2.846-0.282,4.269c-3.32,0.545-6.679,0.365-9.999-0.019
	c1.276-0.391,2.577-0.724,3.871-1.058C869.36,268.621,868.834,268.121,868.572,267.871z M859.188,272.845
	c1.526-1.673,4.16-1.372,6.249-1.66c3.506,0.782,7.108,0.737,10.672,1.134c0.147,0.513,0.436,1.545,0.583,2.057
	c-2.673,1.051-5.583,0.679-8.377,0.852c0.006,0.397,0.006,1.199,0.013,1.596c6.512-0.096,12.992,0.731,19.504,0.628
	c-0.647,0.205-1.282,0.41-1.904,0.615c0.673,1.218,1.365,2.448,2.294,3.512c-0.314,0.34-0.609,0.686-0.891,1.038
	c0.968,0.641,1.981,1.218,3.044,1.705c0.263,1.404,0.519,2.814,0.859,4.205c-1.891-0.231-3.788-0.115-5.538,0.667
	c0-0.686,0.013-1.359,0.039-2.032c-1.981,1.961-4.801,1.564-7.326,1.493c-0.039-2.224-0.256-4.455-1.019-6.551
	c-0.397,2.154-0.615,4.339-0.737,6.525c-5.98-0.179-12.082,0.442-17.953-0.904c1.266-4.276-0.261-2.998-0.737-11.537
	c1.205-0.038,2.41-0.096,3.628-0.154C860.675,275.062,859.694,274.101,859.188,272.845z M855.323,229.33
	c-0.269,1.577-0.442,3.166-0.545,4.769c-3.019-0.115-6.032-0.051-9.044-0.064c-0.013-0.885-0.019-1.763-0.019-2.641
	C848.792,230.195,852.035,229.567,855.323,229.33z M855.676,237.233c-0.289,1.064-0.551,2.134-0.801,3.205
	c-3.064,0.18-6.115,0.609-9.178,0.449c-0.013-1.468,0-2.929-0.006-4.391C849.022,236.406,852.638,235.272,855.676,237.233z
	 M845.766,242.95c3.045-0.109,6.096-0.224,9.115-0.692c0.051,1.526,0.102,3.045,0.077,4.577c-3.064,0.583-6.211,0.673-9.281,0.07
	C845.709,245.585,845.747,244.271,845.766,242.95z M588.716,125.732c0.314,1.73,0.077,3.506,0.077,5.256
	c-0.84-0.257-1.679-0.506-2.513-0.744c0.449-2.525-0.455-4.91-2.038-6.852C586.005,123.514,587.748,124.155,588.716,125.732z
	 M582.159,172.285c-0.974-0.353,0.006-1.417,0.673-1.391C584.473,170.682,583.242,172.874,582.159,172.285z M582.48,126.219
	c-0.141,1.352-0.263,2.711-0.391,4.07c-0.942-0.32-1.884-0.635-2.82-0.929c-0.057-1.026-0.109-2.045-0.167-3.064
	C580.223,126.276,581.345,126.251,582.48,126.219z M582.839,152.934c0,1.429,0.103,2.852,0.231,4.275
	c-2.109-0.167-4.205-0.532-6.23-1.135C578.384,154.312,580.461,153.088,582.839,152.934z M584.159,180.758
	c-3.314,0.308-6.679,0.404-9.986-0.019C577.493,180.431,580.839,180.508,584.159,180.758z M519.524,36.305
	c0.891-0.269,1.205,0.045,0.949,0.942C519.576,37.51,519.262,37.196,519.524,36.305z M487.342,59.11
	c-1.884-0.045-2.346-1.628-2.589-3.218c0.968,0.026,1.949,0.039,2.929,0.039C487.573,56.989,487.464,58.053,487.342,59.11z
	 M76.827,618.584c-2.788,0.122-5.589,0.295-8.352-0.199c-0.462-3.602,1.487-6.749,1.807-10.242c2.218-0.173,4.455-0.212,6.666,0.07
	c0.096-0.359,0.295-1.083,0.391-1.449C77.237,610.713,77.449,614.655,76.827,618.584z M77.583,602.093
	c-2.5-0.064-5-0.026-7.499-0.019c-3.568-8.44,1.051-8.88,1.224-16.511c0.071-2.5,1.115-4.794,1.795-7.153
	c1.692-0.179,3.397-0.276,5.096-0.391C78.436,586.056,77.442,594.061,77.583,602.093z M99.286,602.445
	c-4.967,0.359-9.877-0.455-14.819-0.711c-0.109-7.301,0.346-14.627-0.314-21.908c0.154-0.212,0.455-0.622,0.603-0.827
	c3.814-0.058,7.942-1.122,11.544,0.558c1.609,1.493,2.429,3.692,3.468,5.602C99.986,587.168,99.35,601.444,99.286,602.445z
	 M111.086,428.521c1.975,7.654-5.86,12.988-10.23,23.075C101.404,448.904,108.553,431.166,111.086,428.521z M118.662,602.887
	c-4.186,0.295-8.409,0.25-12.582-0.199c-0.141-10.564-1.138-11.245,5.224-10.319c2.557,0.891,5.929,0.622,7.512,3.224
	C119.175,598.01,118.906,600.471,118.662,602.887z M130.629,429.489c-1.468,0.019-2.936,0.045-4.403,0.07
	c-0.397-4.118,0.721-3.06,4.807-3.416C130.969,427.265,130.828,428.38,130.629,429.489z M139.096,421.047
	c-2.393,0.389-21.731,2.762-21.959,2.878c-0.628-2.128-1.788-4.083-2.295-6.237c0.85-5.585,7.762-21.528,7.986-22.53
	c1.889-7.683,3.933-6.323,9.916-6.493c7.528,0.43,21.875-1.132,33.599,0.91c0.276,0.404,0.833,1.211,1.115,1.615
	c-3.515,2.617-18.497-1.085-28.965,1.654c-0.506-0.743-0.993-1.487-1.493-2.218c-0.718,0.333-1.436,0.679-2.147,1.026
	c0.673,1.968,1.186,3.987,1.628,6.019C143.892,399.096,140.818,413.707,139.096,421.047z M155.678,431.899
	c-0.288-0.57-0.583-1.115-0.878-1.66c1.449-0.532,2.891-1.09,4.314-1.679c-0.846-0.487-1.705-0.942-2.564-1.391
	c0.884,0.192,1.782,0.378,2.679,0.57c0.038,1.461,0.051,2.923,0.071,4.391C158.088,432.059,156.883,431.988,155.678,431.899z
	 M159.203,425.701c-0.981-0.038-1.961-0.064-2.942-0.09c-0.372-0.57-0.744-1.141-1.122-1.705c1.173-1.07,2.634-1.622,4.211-1.724
	C159.293,423.348,159.235,424.521,159.203,425.701z M144.711,419.804c-1.372-4.705-0.397-9.582-0.641-14.383
	c0.372-7.383-2.477-6.355,16.191-5.916C161.627,407.579,167.829,427.136,144.711,419.804z M166.875,424.899
	c-1.705-0.019-3.41-0.045-5.108-0.019c0.071-0.224,0.218-0.667,0.288-0.891c0.622-0.231,1.237-0.455,1.859-0.673
	c-0.006-0.711-0.013-1.41-0.013-2.102c1-0.019,2-0.038,3-0.051C166.882,422.406,166.882,423.649,166.875,424.899z M169.119,418.855
	c-1.179-0.032-2.352-0.051-3.525-0.051c-3.15-8.932-2.196-1.901-1.814-11.428c-0.064-2.122-0.532-4.224-0.32-6.339
	c1.065-4.438,6.526-0.135,4.615-11.191c4.186-1.115,8.57-0.263,12.806,0.071C180.761,391.536,169.557,417.852,169.119,418.855z
	 M182.771,423.021c-2.141-0.07-4.256-0.385-6.397-0.378c2.442-0.545,4.647-1.808,7.108-2.295
	C183.213,421.227,182.982,422.118,182.771,423.021z M185.598,423.009c-0.006-1.026-0.013-2.051-0.013-3.07
	c2.968-0.154,5.967-0.147,8.826,0.769c0.077,0.583,0.154,1.173,0.231,1.763C191.744,423.585,188.61,423.041,185.598,423.009z
	 M206.121,422.4c-3.102,0.083-6.243,0.199-9.23-0.788c2.878-1.583,6.057-2.308,9.275-2.807
	C206.128,419.996,206.115,421.195,206.121,422.4z M218.838,422.412c-2.666-0.167-5.326-0.487-7.935-1.058
	c0.167-2.487,2.647-3.282,4.769-2.763c1.128,0.897,2.115,1.961,3.198,2.916C218.863,421.733,218.851,422.188,218.838,422.412z
	 M240.951,423.06c-4.708-1.577-8.571,0.012-18.19-0.731c0-1.275,0.006-2.545-0.006-3.814c0.314,0.006,0.936,0.013,1.25,0.019
	c0.224,0.686,0.455,1.384,0.686,2.083c4.117-2.861-0.391-1.943,18.332-2.07C242.374,420.073,241.675,421.573,240.951,423.06z
	 M297.048,254.725c0.045,1.038,0.096,2.077,0.154,3.128c-5.269-1.141-10.762-0.212-15.934-1.936
	C291.717,254.646,277.841,254.835,297.048,254.725z M294.279,274.928c-2.669,0.449-11.931,1.803-14.479,0.846
	c-0.115-5.576,0.705-11.102,1.538-16.594c5.275-0.391,10.569-0.186,15.857-0.109C297.258,275.3,296.057,267.835,294.279,274.928z
	 M302.861,271.755c-1.269,0-2.538,0.039-3.801,0.09c-0.218-5.653,0.013-11.313-0.006-16.966c1.301,0.314,2.647,0.397,3.987,0.308
	c-0.82,0.41-1.622,0.846-2.397,1.314c0.34,0.699,0.692,1.404,1.058,2.102c-0.782-0.346-1.558-0.679-2.333-0.993
	c-0.026,0.487-0.064,1.461-0.083,1.955c1.327,0.006,2.666,0.006,3.999-0.019C302.464,263.563,303.117,267.685,302.861,271.755z
	 M300.413,252.225c-0.256-0.359-0.763-1.09-1.013-1.449c0.923-0.417,1.852-0.833,2.769-1.288c0.602,0.57,1.211,1.134,1.827,1.705
	C302.81,251.578,301.618,251.93,300.413,252.225z M310.463,235.47c0.058-1.75,0.109-3.5,0.32-5.237
	c0.461,1.679,0.513,3.436,0.609,5.166C311.161,235.419,310.694,235.451,310.463,235.47z M410.497,184.995
	c-0.634-2.102-0.474-4.301-0.532-6.461c0.34,0.064,1.019,0.192,1.359,0.256C411.254,180.88,411.1,182.976,410.497,184.995z
	 M408.267,174.996c-0.494-1.981-1.128-3.916-1.75-5.852c1.776,1.122,3.564,2.243,5.339,3.378c0.019,0.596,0.051,1.192,0.083,1.794
	C410.702,174.496,409.478,174.727,408.267,174.996z M430.918,187.706c-0.84-0.41-0.846-0.846-0.019-1.314
	C431.732,186.789,431.739,187.232,430.918,187.706z M479.843,141.096c-1.718,0.308-3.448,0.538-5.185,0.654
	c0.064-0.583,0.128-1.167,0.192-1.744c1.673-0.07,3.346-0.147,5.025-0.237C479.868,140.102,479.849,140.762,479.843,141.096z
	 M475.183,137.852c0.038-1.212-0.006-2.436,0.25-3.622c0.59-0.833,1.32-1.558,2.025-2.301c1.186,0.487,2.378,0.981,3.57,1.468
	c0.993-0.692,1.763-2.416,3.186-1.968c1.417,1.705,2.122,3.846,2.916,5.877C487.128,137.307,475.183,137.852,475.183,137.852z
	 M554.95,173.861c0.872,0.596,0.135,1.718,0.141,2.551c-1.807,0.026-3.608,0.013-5.41-0.096c-0.269-0.904-0.545-1.801-0.807-2.699
	C550.893,173.746,552.931,173.656,554.95,173.861z M552.867,184.642c-1.557,0.167-2.66-1.391-3.955-2.032
	c0.083-1.5,0.301-2.987,0.667-4.442c1.75,0.013,3.513,0.026,5.269,0.038C555.764,180.623,554.758,183.027,552.867,184.642z
	 M554.54,189.866c-2.506,0.019-5.051,0.147-7.493-0.493c-0.019-0.429-0.064-1.288-0.083-1.718
	C549.637,187.789,552.047,189.02,554.54,189.866z M549.611,122.63c0.064,1.038,0.128,2.07,0.212,3.109
	c-2.339,0.051-4.679,0.038-7.012,0c-0.09-1.333-0.16-2.673-0.224-4.006C544.939,121.899,547.265,122.341,549.611,122.63z
	 M535.888,182.739c1.167-1.372,2.205-3.205,3.948-3.827c1.506,0.346,2.782,1.545,3.801,2.686c0.82,2.455,0.949,5.051,1.013,7.621
	c-4.173-0.135-8.461,0.481-12.492-0.897c0.314-1.115,0.66-2.224,0.961-3.339c2.974-0.635,6.031-0.263,9.038-0.539
	c0.634-0.487,1.211-1.032,1.73-1.654C541.208,182.815,538.516,183.649,535.888,182.739z M540.779,159.978
	c-4.967,2.94-4.061,2.201-6.108,6.256c0.724,0.429,1.455,0.852,2.199,1.275c-0.039,1.763-0.045,3.525-0.032,5.294
	c-1.089-1.032-2.192-2.038-3.301-3.038c0.41-0.866,0.821-1.731,1.218-2.602c-4.323-0.018-5.55,1.892-15.774-9.903
	C526.153,155.103,535.591,154.132,540.779,159.978z M535.401,175.49c-3.102,1.468-6.781,1-9.96,0.026
	C529.466,169.123,533.849,174.102,535.401,175.49z M526.825,139.198c2.019-1.82,4.743-1.449,7.243-1.372
	c0.34,0.692,0.705,1.372,1.064,2.057C532.35,139.948,529.517,140.006,526.825,139.198z M534.536,122.45
	c0.282,1.538,0.404,3.102,0.551,4.66c-2.807-1.429-5.73-0.103-8.634,0.026c-0.634-1.41-1.166-2.878-1.211-4.435
	C528.254,121.719,531.459,121.649,534.536,122.45z M534.459,129.545c-0.026,2.192,0.006,4.391-0.013,6.589
	c-2.679-0.026-5.352-0.039-8.025-0.116c0.288-0.692,0.583-1.378,0.878-2.064c-0.93-1.263-1.756-2.596-2.41-4.019
	C528.017,129.154,531.261,129.501,534.459,129.545z M522.685,137.134c-0.013,0.66-0.013,1.32-0.006,1.981
	c-1.808-0.006-3.596-0.269-5.262-0.968C519.178,137.878,520.935,137.519,522.685,137.134z M508.378,89.229
	c1.256,1.808,2.102,3.846,2.59,5.987c-1.455,0.558-2.891,1.141-4.294,1.782C507.321,94.427,507.673,91.793,508.378,89.229z
	 M503.135,156.824c0.782,0.596,1.577,1.186,2.384,1.75c-0.948,1.666-1.743,3.403-2.544,5.14c-0.853-0.718-1.737-1.416-2.487-2.237
	c-0.212-1.058-0.09-2.141-0.077-3.205C501.321,157.805,502.225,157.312,503.135,156.824z M498.065,64.02
	c-2.391-0.506-4.865-0.686-7.268-0.211c-0.917-2.057-1.397-4.301-1.538-6.538c0.122-0.167,0.372-0.5,0.494-0.667
	c4.019-0.474,8.127-0.192,12.076,0.692C500.456,59.457,498.245,61.315,498.065,64.02z M499.873,78.845
	c-0.231-1.654-0.301-3.32-0.218-4.98C500.238,75.461,500.495,77.211,499.873,78.845z M495.367,182.13
	c-1.058,0.032-2.109,0.077-3.147,0.122c0.468-1.596,0.955-3.205,1.737-4.679C495.524,176.881,495.587,180.197,495.367,182.13z
	 M492.515,176.047c0.205-3.358,0.167-6.73,0.122-10.095c0.846,2.564,2.352,4.858,3.166,7.429
	C495.681,175.175,494.066,175.823,492.515,176.047z M497.174,111.778c-2.923,0.5-5.064-1.929-5.518-4.609
	c1.615-0.929,3.352-1.634,5.249-1.66C497.181,107.586,497.206,109.688,497.174,111.778z M485.682,101.164
	c-1.762-1.167-2.192-3.262-2.275-5.224c-3.717-1.692-5.736-5.416-8.929-7.781c0.18-1.038,0.359-2.076,0.571-3.108
	c0.001,0,24.292,3.621,24.292,3.622C493.832,98.855,503.234,104.012,485.682,101.164z M498.014,167.298
	c1.083-0.006,2.179,0,3.275,0.013c-0.654,0.756-1.301,1.519-1.936,2.282C498.899,168.823,498.456,168.06,498.014,167.298z
	 M500.655,197.442c0.545-1.744,1.006-3.622,2.301-4.98c2.32-0.321,2.679,2.641,3.365,4.23
	C504.43,196.949,502.546,197.256,500.655,197.442z M503.597,174.579c0.173-1.192,0.391-2.378,0.577-3.57
	c0.942,0.051,1.891,0.09,2.846,0.135c0.141,0.686,0.308,1.378,0.385,2.089C506.827,174.835,504.904,174.38,503.597,174.579z
	 M512.852,118.373c-1.737,0.564-3.564,0.743-5.346,1.077c-0.128-2.551-0.295-5.102-0.211-7.659c2.557,0.968,3.493,3.948,6.127,4.903
	C513.243,117.258,513.057,117.816,512.852,118.373z M514.487,159.863c10.929,5.493,6.092,4.551,13.87,9.775
	c-2.41,1.82-5.615,2.641-7.179,5.448C520.178,175.05,509.396,176.948,514.487,159.863z M523.185,186.136
	c-1.449,1.968-3.538,3.82-6.134,3.717c-0.352-3.108,0.385-6.14,1.276-9.089c1.135,0.731,2.288,1.442,3.448,2.154
	c0.436-0.205,0.885-0.41,1.333-0.609C523.172,183.578,523.377,184.867,523.185,186.136z M525.421,178.425
	c2.839-0.288,5.698-0.224,8.55-0.365c-0.583,0.205-1.167,0.404-1.743,0.602c0.327,0.41,0.667,0.827,1.006,1.243
	c-6.521,3.577-3.095,2.67-7.878,2.199C525.408,180.88,525.434,179.649,525.421,178.425z M526.678,197.263
	c0.006-1.968-0.083-3.935-0.186-5.903c2.679-0.526,5.557-0.141,7.73,1.615c0.667,0.955,1.166,2.013,1.705,3.051
	c1.301-0.115,2.48,0.378,3.327,1.391C535.068,197.641,530.844,197.859,526.678,197.263z M555.957,198.051
	c-1.904,0.032-3.807,0.032-5.705,0.026c-0.929-1.122-1.852-2.237-2.782-3.339c-2.025,0.385-4.089,0.936-6.108,0.269
	c0-1.038,0.013-2.064,0.038-3.096c-1.006-0.301-2-0.616-2.987-0.942c2.224,0.077,4.454,0.058,6.685,0.045
	c0.026,1.115,0.064,2.224,0.128,3.346c0.506-0.071,1.519-0.218,2.025-0.295c-0.09-0.987-0.167-1.974-0.256-2.961
	c6.318,1.267,7.761-0.607,10.986,1.776C558.059,194.801,556.61,196.333,555.957,198.051z M558.085,125.251
	c1.91-0.782,3.878-1.615,5.98-1.654c0.814,0.288,1.077,1.263,1.615,1.878C563.148,125.572,560.591,125.713,558.085,125.251z
	 M568.468,135.089c-1.519-0.532-2.057,1.814-3.557,1.641c1.73-2.327,4.685-2.327,7.3-2.461c-0.102,1.167-0.179,2.327-0.244,3.493
	c-0.961,0-1.916,0.013-2.865,0.039C568.93,136.884,568.853,135.942,568.468,135.089z M605.791,211.197
	c0.237,0.961,0.461,1.942,0.679,2.916c-0.833-0.006-1.667-0.013-2.481-0.013C604.439,213.043,604.977,212.024,605.791,211.197z
	 M576.916,238.739c3.071-5.809,5.067-4.742,8.506-1.827C581.242,239.635,581.995,239.364,576.916,238.739z M585.601,232.797
	c-2.057-0.154-4.147,0.083-6.172-0.308c-1.75-1.057-0.75-3.359-1.006-5.012c2.583-0.09,5.172-0.038,7.762-0.077
	C585.761,229.17,585.607,230.984,585.601,232.797z M586.204,226.433c-2.468-0.622-5.013-0.795-7.538-0.628
	c5.989-3.135,2.306-3.669,8.025-4.66C586.344,222.888,586.229,224.657,586.204,226.433z M588.78,221.856
	c6.185-0.173,12.384,0.147,18.575-0.045c-1.006,2.583-0.84,5.788-3.365,7.518c0.058,1.288,0.115,2.583,0.128,3.871
	c-4.461-0.788-9.006-0.096-13.499-0.429C589.485,229.221,588.05,225.664,588.78,221.856z M589.793,234.547
	c3.32,0.045,6.634-0.09,9.954-0.07c0.103,1.737,0.314,3.474,0.583,5.198c-3.224,0.288-6.39-0.558-9.595-0.615
	C590.427,237.553,590.101,236.054,589.793,234.547z M601.099,242.457c-2.16,0-4.32,0.077-6.467-0.122
	c2.186-0.679,4.474-0.872,6.717-1.282C601.285,241.406,601.164,242.104,601.099,242.457z M611.233,242.296
	c-2.596,0.051-5.185,0.154-7.775,0.205c-0.051-0.327-0.141-0.968-0.186-1.295c2.564,0.57,5.205,0.5,7.826,0.558
	c-0.026-0.493-0.064-1.481-0.083-1.974c-2.391,0.192-4.788,0.128-7.172,0.077c0.218-1.59,0.5-3.173,0.872-4.73
	c2.058-0.327,4.141-0.423,6.224-0.417c0.013-0.301,0.038-0.904,0.051-1.199c-1.679-0.051-3.346-0.096-5.012-0.135
	c0.333-1.807,0.872-3.57,1.564-5.275c1.128,0.218,2.263,0.417,3.41,0.609C611.707,233.214,611.316,237.771,611.233,242.296z
	 M624.007,233.925c-0.026-1.506-0.026-3.012-0.058-4.506c-2.115,0.769-4.006,2.077-6.153,2.718c-1.468-0.327-2.808-1.038-4.185-1.59
	c0.154-0.455,0.468-1.352,0.622-1.807c3.474-0.154,6.942,0.34,10.422,0.154C624.296,230.548,624.123,232.233,624.007,233.925z
	 M630.398,227.587c-5.583-0.186-11.191,0.199-16.742-0.59c0.026-1.551,0.013-3.109-0.026-4.66
	c5.871-0.038,11.768-0.167,17.594,0.718C630.955,224.568,630.667,226.074,630.398,227.587z M633.57,222.689
	c16.04,1.706,5.062-0.083,17.659,0.929c-0.096,1.609-0.186,3.224-0.398,4.833c-1.372-0.289-14.942-1.862-16.306-1.5
	C634.263,225.516,633.974,224.087,633.57,222.689z M641.307,240.681c-2.487,0.128-4.621-1-6.519-2.487
	c2.628-0.917,4.993-2.756,7.916-2.519C642.653,237.444,642.166,239.137,641.307,240.681z M648.928,244.194
	c-1.788-0.34-3.589-0.59-5.371-0.929c1.711-0.301,3.525-0.449,5.051-1.384c-0.218-1.211-1.75-1.41-2.602-2.077
	c0-1.295-0.032-2.589-0.071-3.878c1.218-0.019,2.442-0.032,3.673-0.058C649.447,238.643,649.255,241.431,648.928,244.194z
	 M650.312,233.477c-2.045,0.346-4.115,0.558-6.185,0.545c-0.384-1.224-0.833-2.429-1.32-3.609c-0.442,1.224-0.737,2.5-0.936,3.788
	c-0.583-0.109-1.154-0.218-1.724-0.32c-0.09-1.327-0.167-2.66-0.25-3.98c-0.769,0.474-1.519,0.968-2.25,1.481
	c0.25-0.59,0.494-1.173,0.743-1.763c4.294-0.231,8.595-0.25,12.903-0.186C650.96,230.778,650.607,232.118,650.312,233.477z
	 M656.177,238.861c0.006-0.833,0.026-1.66,0.051-2.487c1.756-0.013,3.538,0,5.281,0.34
	C659.837,237.669,658.036,238.374,656.177,238.861z M664.734,228.388c-3.666-0.006-7.333-0.019-10.98-0.378
	c-0.051,0.359-0.141,1.064-0.192,1.417c3.006,0.064,5.999,0.353,8.999,0.622c-0.141,0.449-0.263,0.897-0.397,1.352
	c0.41,0.276,0.833,0.558,1.262,0.846c-3.391-0.026-6.788-0.026-10.153,0.417c-0.519-3.128-0.263-6.307-0.654-9.448
	c3.871,0.436,7.781,0.41,11.678,0.417C664.76,225.176,665.125,226.779,664.734,228.388z M665.054,232.56
	c0.192-0.84,0.378-1.673,0.564-2.506c1.519-0.026,3.038-0.051,4.57-0.103c0.019,0.917,0.064,1.84,0.122,2.763
	C668.554,232.618,666.804,232.58,665.054,232.56z M666.394,228.163c0.494-1.429,1-2.859,1.474-4.294
	c0.788-0.096,1.59-0.199,2.397-0.295c0.013,1.801,0.019,3.609,0.096,5.41C669.047,228.65,667.721,228.368,666.394,228.163z
	 M670.374,222.331c-0.756,0.66-2.314-0.385-1.583-1.275C669.516,220.356,671.092,221.459,670.374,222.331z M672.637,238.508
	c-0.032-0.673-0.064-1.346-0.083-2.006c6.859,0.279,4.659-0.339,7.813,2.384C677.803,238.515,675.214,238.534,672.637,238.508z
	 M672.592,232.676c-0.135-2.904,0.096-5.807,0.038-8.704c4.045,0.724,8.198,0.173,12.294,0.231c-0.019,1.59,0.045,3.173,0.064,4.762
	c-3.922,0.5-8.038-0.782-11.813,0.327c0.045,0.199,0.135,0.603,0.179,0.808c3.839,0.365,7.922-0.545,11.499,1.346
	c0.051,0.308,0.16,0.929,0.212,1.243C680.905,232.624,676.745,232.727,672.592,232.676z M688.936,228.638
	c-0.295-1.936,0.59-4.006,2.763-4c0.417,1.218,1.019,2.416,1.038,3.737C691.795,229.368,690.129,228.689,688.936,228.638z
	 M698.903,218.28c-0.282-0.891-0.538-1.788-0.776-2.679c1.051,0.558,2.096,1.135,3.16,1.692
	C700.487,217.626,699.692,217.959,698.903,218.28z M744.194,230.727c-2.968,0.16-5.916-0.346-8.845-0.737
	c0.301-1,0.628-1.987,0.968-2.98c0.404,0.43,0.814,0.865,1.237,1.301c-0.058-0.737-0.103-1.468-0.135-2.192
	c2.891-0.058,5.788-0.019,8.685-0.045C745.732,227.695,745.693,229.67,744.194,230.727z M748.437,230.945
	c-0.07-1.743-0.211-3.493-0.602-5.198c1.697,0.312,19.821,1.314,20.825,1.404C767.94,227.318,750.948,230.78,748.437,230.945z
	 M790.855,225.882c-2.032-0.019-4.051-0.038-6.07-0.147c-1.649-4.596,2.035-3.871-1.711-10.55c-0.199-0.949-0.109-1.916-0.122-2.872
	c1.487-0.833,2.827-1.936,4.371-2.666c1.551-0.276,3.134-0.173,4.711-0.179c0.154,3.102,0.205,6.211,0,9.307
	c0.359-0.058,1.07-0.186,1.429-0.25C792.297,220.863,791.458,223.343,790.855,225.882z M814.609,228.183
	c0.327,1.481,0.449,2.993,0.539,4.512c-4.525-0.346-9.038,0.468-13.556,0.038c0.064-0.827,0.051-1.647,0.026-2.468
	c0.397,0.032,1.192,0.096,1.59,0.128c-0.006-1.859-2.096-2.064-3.339-2.878C804.764,228.067,809.668,228.394,814.609,228.183z
	 M815.25,237.182c-4.961-0.923-10.044-0.449-15.05-0.5c0.41-0.968,0.788-1.955,1.167-2.942c3.327-0.372,6.365,1.115,9.557,1.699
	c1.481-0.192,2.827-0.917,4.205-1.455C815.141,235.047,815.186,236.118,815.25,237.182z M810.591,238.855
	c-3.961,0.711-8.159,0.692-12.063-0.327C802.546,238.258,806.585,238.553,810.591,238.855z M809.443,244.546
	c0.167-0.359,0.494-1.077,0.654-1.429c-2.891-0.269-5.814,0.147-8.679-0.276c-0.256-0.237-0.782-0.718-1.038-0.955
	c6.888-2.678,3.736-0.671,14.492-1.083c0.039,1.141,0.128,2.282,0.237,3.423c-0.718,0.102-1.429,0.218-2.122,0.327
	c0.288,0.391,0.59,0.782,0.897,1.173c-5.608-0.192-11.242-0.538-16.838-0.122C801.098,244.488,805.38,245.501,809.443,244.546z
	 M814.712,248.565c-4.705-0.917-9.518,0.135-14.248-0.442c4.935-0.487,9.941-0.955,14.896-0.41
	C815.199,247.924,814.872,248.353,814.712,248.565z M826.807,234.387c-3.681,1.753-3.807,3.039-8.781,1.654
	c-0.224-0.705-0.429-1.404-0.628-2.102C820.5,234.477,823.666,234.592,826.807,234.387z M817.93,244.566
	c1.237-0.545,2.519-1.026,3.807-1.461c-1.711,0.224-3.141-0.532-4.147-1.897c2.519-0.474,5.089-0.314,7.64-0.179
	c0.564,1.34,1.115,2.679,1.654,4.038C823.967,246.033,820.474,246.847,817.93,244.566z M826.538,239.797
	c-3.186,0.019-7.442,0.981-9.217-2.519c3.314-0.269,6.672-0.186,9.935,0.545C826.999,238.476,826.756,239.137,826.538,239.797z
	 M828.223,244.322c2.891-0.167,5.756-0.66,8.647-0.949c-0.006,1.141,0.032,2.295,0.096,3.442
	C833.857,246.802,830.486,246.783,828.223,244.322z M833.755,241.527c0.833-0.551,2.16-0.571,3.012,0.006
	C836.517,242.527,834.05,242.425,833.755,241.527z M837.876,240.297c-2.974-0.128-5.948-0.25-8.916-0.436
	c-0.006-0.859,0-1.711,0.013-2.564c3.307-0.243,6.64-0.115,9.935-0.596C838.491,237.874,838.133,239.072,837.876,240.297z
	 M828.986,235.329c0-0.199-0.013-0.596-0.019-0.795c3.218-0.109,6.518,0.808,9.659-0.263c-3.083-0.75-6.262-0.91-9.416-0.91
	c-0.288-0.699-0.577-1.391-0.859-2.083c3.115,0.231,6.211-0.461,9.313-0.295c1.32,0.859,1.006,2.916,1.308,4.333
	C835.639,235.291,832.313,235.284,828.986,235.329z M847.561,434.02c-2.083-0.051-4.192-0.135-6.128-0.949
	c2.346-0.84,4.763-1.487,7.211-2.006C848.279,432.046,847.907,433.033,847.561,434.02z M861.662,448.858
	c0.148-1.205,0.34-2.404,0.615-3.583c3.846,0.122,7.698,0.314,11.55,0.442c0.109,1.199,0.276,2.397,0.468,3.596
	C870.104,448.743,865.873,448.942,861.662,448.858z M862.271,441.789c0.038-1.122,0.07-2.243,0.109-3.359
	c3.769,0.34,7.551,0.173,11.326,0.397c0.16,1.147,0.352,2.307,0.59,3.455C870.341,441.41,866.271,442.007,862.271,441.789z
	 M863.104,436.988c3.826-0.808,7.756,0.064,11.633-0.141C870.924,437.661,866.944,437.475,863.104,436.988z M874.603,435.315
	c-0.264-0.012-22.276-0.548-23.991-0.699c0.91-0.782,1.763-1.628,2.698-2.391c2.948-0.433,18.702-0.064,21.517,0.212
	C874.731,433.386,874.654,434.347,874.603,435.315z M880.468,432.757c4.051-0.429,8.14-0.199,12.21-0.205
	c0.026,0.865,0.064,1.743,0.122,2.621c-4.769,0.026-9.525,0.295-14.287,0.199C879.116,434.469,879.692,433.533,880.468,432.757z
	 M883.134,449.358c-1.974,0.051-4.051-0.474-5.942,0.096c-1.057,1.447,2.236,1.022,6.256,1.384
	c-2.205,0.372-4.448,0.436-6.659,0.583c0.16,2.038,2.352,1.833,3.846,2.288c-1.32,0.186-2.615,0.455-3.897,0.776
	c-0.603-3.577-0.071-7.147-0.051-10.73c1.949-0.199,3.993,0.058,5.871-0.609c-0.558-1.25-2.417-1.128-3.5-1.756
	c0.224-0.756,0.481-1.494,0.731-2.237c1.211-0.179,2.429-0.442,3.506-1.102c-1.763-0.34-3.532-0.5-5.275-0.891
	c1.859-0.038,3.718,0.026,5.589-0.019C882.429,441.109,883.416,445.282,883.134,449.358z M897.614,449.397
	c-3.231,0.051-6.467,0.147-9.691,0.019c-0.205-1.134-0.391-2.269-0.538-3.397c3.743,0.026,7.506-0.135,11.242,0.244
	C898.28,447.301,897.94,448.346,897.614,449.397z M894.345,442.545c-0.006-1.09-0.013-2.186-0.013-3.269h-1.583
	c0.122,1.218,0.275,2.436,0.417,3.653c-1.769-0.237-3.538-0.442-5.307-0.532c-1.115-1.615-2.224-3.262-2.782-5.16
	c2.647,0.09,5.333-0.115,7.954,0.41c-2.346,0.359-4.839-0.25-7.063,0.615c0.077,0.16,0.244,0.481,0.32,0.641
	c4.448,0,8.903,0.224,13.358,0.16c-0.013,1.109,0.006,2.218,0.058,3.339C897.909,442.436,896.12,442.474,894.345,442.545z
	 M908.971,427.316c-0.833-0.417-1.667-0.833-2.481-1.237c0.186-1.077,0.16-2.307,1.115-3.045c1.019-0.295,1.795,0.019,2.327,0.942
	C909.683,425.111,909.298,426.207,908.971,427.316z M906.959,420.727c-0.686-0.231-1.359-0.455-2.019-0.679
	c1.186-1.654,2.608-3.134,4.23-4.365c0.308,0.955,0.628,1.91,0.936,2.878C909.036,419.265,907.984,419.977,906.959,420.727z
	 M1162.381,338.126c-0.75,0.603-1.179,0.455-1.295-0.442C1161.804,337.075,1162.234,337.223,1162.381,338.126z M1152.549,332.941
	c-0.199,1.705-0.346,3.75-2.064,4.653c-2.48,0.385-5.012,0.154-7.499,0.173c-0.045-1.763-0.071-3.519-0.083-5.275
	C1146.114,332.563,1149.344,332.511,1152.549,332.941z M1139.883,340.209c0.449-0.199,1.743-0.34,1.634,0.5
	c-0.66,0.622-1.737,0.878-2.602,0.718C1138.05,340.921,1139.396,340.267,1139.883,340.209z M1079.55,341.312
	c2.186,0.173,4.378,0.455,6.525,0.955c0.276,1.352,0.59,2.698,0.866,4.057c-2.115,1.634-4.833,1.34-7.326,1.199
	C1079.505,345.452,1079.492,343.382,1079.55,341.312z M1008.576,352.465c1.506,0.321,3.025,0.583,4.57,0.782
	c-0.013,1.122-0.026,2.243-0.032,3.365c-1.359-0.295-2.692-0.654-4.025-1c-0.16,0.224-0.487,0.679-0.647,0.904
	C1008.506,355.163,1008.557,353.817,1008.576,352.465z M1004.167,358.804c0.346-0.647,1.942-0.602,1.763,0.34
	C1005.545,359.791,1003.955,359.733,1004.167,358.804z M1002.712,359.534c-2.352,0.955-4.916,0.961-7.403,0.884
	C997.719,359.771,1000.206,359.406,1002.712,359.534z M973.157,364.079c-2.205,0.314-4.442,0.327-6.634,0.006
	C968.722,363.842,970.946,363.848,973.157,364.079z M963.472,364.848c-3.525,0.654-7.128,1.199-10.711,0.763
	C956.249,364.713,959.896,364.88,963.472,364.848z M923.354,408.523c-1.981-0.224-3.974-0.109-5.878,0.474
	c-0.439-13.095-0.745-11.486,0.052-14.556c2.128-0.301,5.166-0.417,5.871-2.91c0.795,2.801-0.827,6.044,0.513,8.884
	c0.32-1.154,0.648-2.301,0.981-3.448C924.201,400.799,924.015,404.69,923.354,408.523z M927.175,366.399
	c11.311,0.614,19.766-1.474,25.01-0.109c-5.514,1.65-24.009,3.456-25.01,3.333C927.2,368.546,927.213,367.469,927.175,366.399z
	 M939.526,410.394c-1.718,0.026-3.435,0.058-5.134,0.077c0-2.743-0.679-5.66,0.558-8.236c2.872-6.718,0.112-8.195,5.583-9.672
	c0.519,0.891,1.16,1.75,1.538,2.743c0.083,1.705-0.481,3.352-0.609,5.038C941.114,405.509,943.43,399.81,939.526,410.394z
	 M929.777,403.504c0.141-3.653-0.359-7.429,1.384-10.826c0.635,0.494,1.282,0.994,1.936,1.506c0.276,5.499-2.064,10.64-3.711,15.774
	C927.149,408.273,929.687,405.626,929.777,403.504z M931.86,428.642c-0.29-1.219,0.364-9.452,2.98-14.684
	c1.75,0.032,3.493,0.064,5.249,0.135c-0.288,3.839,0.801,7.877-0.942,11.505c1.25,0.897,2.493,1.795,3.73,2.75
	C939.295,429.117,935.488,429.066,931.86,428.642z M940.635,433.629c-0.763,0.583-1.179,0.423-1.25-0.487
	C940.122,432.552,940.539,432.719,940.635,433.629z M939.622,455.236c-0.18-0.699-0.359-1.384-0.545-2.057
	c1.737,1.359,3.967,1.231,6.051,1.5C943.378,455.409,941.455,455.178,939.622,455.236z M939.462,448.051
	c-0.256-1.936-0.314-3.884-0.16-5.826c1.75,0.019,3.5,0.026,5.262,0.006c0.026,1.141,0.07,2.288,0.141,3.442
	c-1.615,0.077-3.371-0.487-4.865,0.282c-0.045,0.404-0.128,1.211-0.167,1.622c1.916-0.026,3.858-0.141,5.794-0.135
	C943.513,448.057,941.468,447.955,939.462,448.051z M952.044,453.025c0.314-1.923,0.833-3.795,1.359-5.666
	c0.455-0.013,1.365-0.045,1.82-0.058c0.218,2.09,0.244,4.198,0.282,6.301C954.345,453.39,953.185,453.198,952.044,453.025z
	 M956.242,446.339c-1.961,0.096-4.365,0.256-5.429-1.775c-0.365-1.961,1.263-3.243,2.34-4.621c1.256,0.91,2.557,1.801,3.583,2.993
	C957.024,444.09,956.531,445.231,956.242,446.339z M950.371,438.533c0.071-1.243,0.352-2.461,0.673-3.66
	c1.936,0.461,3.198,2.032,4.218,3.647C953.621,438.571,951.992,438.558,950.371,438.533z M958.55,432.219
	c-1.135-0.051-2.256-0.096-3.365-0.154c0.359-0.878,0.737-1.756,1.122-2.622c0.782,0.09,1.57,0.186,2.372,0.288
	C958.614,430.553,958.575,431.386,958.55,432.219z M961.075,453.326c0.039-1.718,0.077-3.429,0.135-5.134
	c0.263-0.083,0.789-0.25,1.058-0.333c0,1.782,0.071,3.557,0.179,5.339C962.107,453.23,961.415,453.294,961.075,453.326z
	 M961.979,416.759c-1.583,0.545-3.275,0.641-4.878,1.07c-0.833-1.788-1.365-3.698-1.282-5.679c2.089-0.064,4.185-0.135,6.288-0.154
	C962.511,413.554,963.03,415.323,961.979,416.759z M956.409,403.87c1.993-0.045,4.096,0.058,5.955,0.878
	c0.128,1.102-0.045,2.205-0.173,3.301c-2.102,0.147-4.211,0.205-6.294-0.083C956.095,406.626,955.505,404.965,956.409,403.87z
	 M987.534,387.249c-0.263-1.365-0.596-2.718-0.891-4.07c-0.117-0.001-10.508,0.929-11.159,1.231
	c-0.839-0.34-1.679-0.679-2.493-1.006c-0.385,0.859-0.744,1.724-1.083,2.602c-0.692-0.961-1.404-1.917-2.102-2.852
	c-0.75,0.827-1.468,1.673-2.154,2.545c-0.814-0.641-1.634-1.263-2.455-1.859c-0.449,1.16-0.872,2.333-1.295,3.506
	c-7.273,2.155-5.309-2.403-6.538,11.242c-3.717,0.827-7.64,0.237-11.287,1.481c-1.577-9.677,1.05-7.426,0.218-16.159
	c0.001,0,43.335-1.436,43.335-1.436c0.224,1.82,0.352,3.679,1.038,5.41C989.604,387.679,988.566,387.467,987.534,387.249z
	 M999.302,429.527c4.89-1.076,10.281,8.334,10.794,9.352c-2.378,0.038-4.762,0.167-6.961,1.141
	C997.936,433.766,997.344,431.792,999.302,429.527z M1007.442,406.267c-0.282,0.699-0.545,1.397-0.788,2.109
	c-2.359-0.404-4.73-0.75-7.115-0.75c-0.071-1.199-0.122-2.397-0.141-3.583C1006.44,403.48,1005.156,404.091,1007.442,406.267z
	 M1006.583,401.966c0.923-0.122,1.846-0.231,2.795-0.327c0.917,1.449,0.468,2.904-0.404,4.224
	C1008.211,404.536,1007.404,403.248,1006.583,401.966z M1008.025,409.6c-0.115,1.32-0.218,2.647-0.333,3.98
	c-1.288-1.064-2.372-2.346-3.269-3.743c-1.09-0.09-2.166-0.179-3.231-0.282C1003.468,409.523,1005.743,409.593,1008.025,409.6z
	 M1003.429,411.522c2.167,1.224,2.949,3.692,4.083,5.749c-2.788-0.558-5.634-0.532-8.448-0.487
	c-0.038-1.666-0.019-3.333,0.071-4.993C1000.552,411.632,1001.987,411.362,1003.429,411.522z M1006.814,418.458
	c-0.013,0.731-0.006,1.468,0.013,2.211c-2.513,0.103-5.012,0.109-7.512,0.019c-0.179-0.737-0.346-1.468-0.506-2.192
	C1001.474,418.451,1004.141,418.426,1006.814,418.458z M1007.654,447.602c-0.141-1.134-0.231-2.263-0.327-3.397
	c0.878-0.032,1.769-0.083,2.679-0.122c0.205,0.686,0.436,1.378,0.673,2.077C1009.653,446.628,1008.653,447.115,1007.654,447.602z
	 M1019.146,413.24c3.48,0.212,4.602,4.134,6.461,6.487c-1.756,0.026-3.525,0.045-5.185,0.609c0.455-0.59,0.91-1.192,1.378-1.788
	C1020.133,417.201,1018.915,415.471,1019.146,413.24z M1023.716,433.834c-1.795-0.968-3.692-2.98-2.641-5.134
	c1.16,0.026,2.352-0.013,3.525,0.167c1.635,1.231,2.904,2.929,3.737,4.807C1026.792,433.821,1025.248,434.039,1023.716,433.834z
	 M1026.286,426.316c-0.641-1.282-1.282-2.564-1.897-3.846c1.449-0.038,2.916-0.032,4.391-0.019
	C1028.081,423.823,1027.248,425.117,1026.286,426.316z M1045.682,425.675c-1.275-0.006-2.544,0.013-3.801,0.038
	c0.083-1.07,0.167-2.141,0.256-3.198c1.205-0.058,2.41-0.109,3.628-0.154C1045.72,423.457,1045.694,424.566,1045.682,425.675z
	 M1063.75,432.059c-0.045-0.859-0.083-1.718-0.115-2.57c2.782-0.128,5.538,0.327,8.038,1.622
	C1069.089,431.867,1066.436,432.328,1063.75,432.059z M1082.979,431.123c-0.814,0.141-1.635,0.276-2.417,0.436
	c-0.205-1.795-0.224-3.589-0.237-5.384c1.314-0.019,2.641-0.026,3.974-0.019c0.564,0.654,1.141,1.314,1.743,1.968
	c-1.327,0.404-2.66,0.769-3.98,1.115C1082.351,429.86,1082.659,430.489,1082.979,431.123z M1090.799,418.778
	c11.299-1.26,11.345-0.049,11.992,3.833c-3.865-0.282-7.749-0.423-11.595-0.891c1.519-1.442,3.717-1.365,5.647-1.84
	C1094.773,419.81,1092.523,420.156,1090.799,418.778z M1102.861,428.085c-5.062,0.065-7.3,4.339-11.697-2.256
	c4.153-0.679,8.364-0.769,12.531-1.352C1103.419,425.675,1103.137,426.88,1102.861,428.085z M1113.585,430.065
	c-1.551,0.045-3.096,0.07-4.621,0.122c-0.173-1.192-0.352-2.378-0.346-3.577c1.417-1.833,4.07-0.346,6.044-0.455
	C1114.309,427.463,1113.944,428.764,1113.585,430.065z M1118.104,422.368c-4.025-0.148-8.121,0.487-12.044-0.654
	c-0.045-1.256-0.083-2.506-0.122-3.756c4.275,0.256,8.512-0.231,12.729-0.917C1118.264,418.785,1118.11,420.573,1118.104,422.368z
	 M1123.847,421.97c0.263-1.346,0.596-2.673,0.955-3.993c1.718,0.718,2.686,2.115,2.756,3.98
	C1126.314,421.964,1125.064,421.97,1123.847,421.97z M1142.505,389.679c-6.575,9.22-3.762,3.532-4.532,19.735
	c-1.391,0.391-2.782,0.756-4.166,1.109c0.449,1.263,0.994,2.5,1.673,3.673c-4.66,0.699-9.486,1.064-14.14,0.282
	c-0.468-1.564,1.135-1.993,2.167-2.641c-1.417-0.212-2.827-0.442-4.205-0.776c-0.384,1.141-0.75,2.288-1.07,3.455
	c-4.531,0-8.89,1.429-13.415,1.506c-0.019-0.942-0.019-1.884,0-2.814c-1.077-0.282-2.211-1.179-3.263-0.417
	c-0.205,0.987-0.212,2.006-0.25,3.013c-4.5,0.237-9.505,2.16-13.563-0.654c0.846-0.397,1.731-0.756,2.615-1.122
	c-1.917,0.128-3.775-0.288-5.602-0.75c0.205,0.814,0.461,1.634,0.744,2.449c-0.635-0.436-1.256-0.859-1.878-1.263
	c-0.039,0.929-0.058,1.865-0.052,2.807c-4.391,0.397-8.807,0.282-13.178-0.102c-0.385-1.288-0.801-2.564-1.244-3.82
	c-1.769,1.384-3.313,3.032-4.596,4.871c-3.128,0.019-6.249,0.122-9.365,0.385c-0.532-1.699-0.179-4.044-2.102-4.929
	c-3.044-0.468-2.154,3.653-4.031,4.961c-2.276,0.346-4.583,0.147-6.859,0.096c-0.288-1.795,0.199-4.41-1.91-5.23
	c-1-0.09-1.987-0.064-2.961-0.058c0.045,2.263-0.66,4.365-2.096,6.108c-2.308-0.045-4.628,0.192-6.91-0.115
	c-3.056-2.301-7.119-9.862-7.8-10.864c-1.756-1.583-3.698-3.064-4.666-5.294c1.788-0.743,3.647-1.359,5.307-2.391
	c-0.032-0.269-0.109-0.808-0.141-1.083c-7.084-3.105-16.35,2.052-27.959-4.109c-0.096-4.73-0.25-9.525,0.699-14.191
	c1.968-0.091,147.651-5.544,149.626-5.397C1144.306,380.641,1143.556,385.25,1142.505,389.679z M1151.997,380.577
	c-1.724,1.211-3.859,1.686-5.929,1.807c-0.314-2.16-0.167-4.333,0.224-6.461c2.57-0.385,5.275-0.532,7.73,0.513
	C1153.401,377.84,1152.856,379.289,1151.997,380.577z M1154.138,338.427c2.115-0.244,4.256-0.378,6.403-0.205
	C1158.478,338.998,1156.247,338.69,1154.138,338.427z M1160.503,378.5c-0.038-0.75-0.058-1.5-0.07-2.243
	c1.891-0.692,3.807-1.397,5.852-1.532c-0.006,0.731,0,1.468,0.026,2.211C1164.374,377.494,1162.484,378.18,1160.503,378.5z
	 M1215.094,334.8c-0.545,1.102-1.455,1.801-2.603,2.147c-0.103-0.551-0.295-1.654-0.391-2.205
	C1213.081,334.748,1214.081,334.768,1215.094,334.8z M1183.84,418.381c-0.212-1.16-0.429-2.307-0.705-3.442
	c1.365-0.41,2.762-0.711,4.198-0.859c0.013,1.519,0.045,3.038,0.244,4.544C1186.327,418.509,1185.077,418.432,1183.84,418.381z
	 M1205.646,407.728c-4.482,0.163-3.399-0.033-7.102,2.891c0.622,0.34,1.263,0.673,1.916,1.013
	c-3.365-0.038-6.724,0.032-10.082-0.026c0.071-1.256,0.853-2.929-0.474-3.756c-2.474,0.147-4.923,0.654-7.403,0.487
	c-0.686-3.795-2.968-7.993-0.461-11.608c-1.115-0.724-2.256-1.391-3.371-2.083c11.539-3.51,24.456-4.003,40.227,12.396
	C1213.61,411.528,1210.586,416.485,1205.646,407.728z M1214.555,424.226c0.961-1.622,2.564-2.596,4.243-3.352
	c0.513,1.186,1.051,2.372,1.602,3.551C1218.446,424.419,1216.491,424.38,1214.555,424.226z M1220.837,417.971
	c1.57-0.974,3.41-0.961,5.147-0.474C1224.413,418.445,1222.548,418.131,1220.837,417.971z M1227.554,418.144
	c0.211-1.263,0.468-2.513,0.763-3.756c1.051,0.295,2.416,0.167,3.147,1.16c0.211,0.859,0.294,1.75,0.448,2.634
	C1230.451,418.195,1228.996,418.182,1227.554,418.144z M1229.31,392.287c-0.968,1.846-1.923,3.698-2.903,5.531
	c-3.128-1.109-6.467-2.904-7.922-6.051c3.357-0.243,16.123-0.25,18.767,0.32C1234.604,392.313,1231.951,392.236,1229.31,392.287z
	 M1245.661,340.35c2.109-0.782,4.384-0.917,6.615-1.16c-0.046,7.414-0.78,6.298-7.057,6.653
	C1245.244,344.03,1244.411,341.914,1245.661,340.35z M1245.68,350.144c-0.25-0.961-0.5-1.917-0.705-2.865
	c2.25-0.211,4.512-0.468,6.781-0.647c0.25,1.282,0.442,2.577,0.654,3.878C1250.154,350.76,1247.891,350.522,1245.68,350.144z
	 M1252.256,338.235c-1.635,0.058-3.256,0.154-4.865,0.295c0.469-3.051-0.783-4.515,5.307-5.192
	C1252.038,334.902,1251.615,336.582,1252.256,338.235z M1273.26,353.195c-5.197,0.925-4.12-1.826-14.281-1.878
	c-0.423-1.186-0.807-2.391-1.128-3.602c5.551-0.07,11.672-0.199,16.434,3.115C1273.959,351.625,1273.62,352.42,1273.26,353.195z
	 M1273.549,346.581c-8.422,1.69-5.581-2.336-15.063-2.904c-0.032-1.179-0.07-2.352-0.096-3.525c10.384,0,2.198,0.911,17.268,1.519
	C1276.587,343.69,1275.209,345.51,1273.549,346.581z M1276.235,340.549c-0.001,0-12.197-3.48-12.197-3.48
	c-4.604-1.888-4.747,0.911-5.692-4.32c8.312-0.54,4.846-0.744,19.267,2.436C1278.094,337.158,1277.491,339.004,1276.235,340.549z
	 M1282.356,355.125c0.859-0.57,2.192-0.538,3.096-0.006C1285.112,356.003,1282.631,356.086,1282.356,355.125z M1287.458,353.17
	c-2.359,0.276-4.73,0.378-7.089,0.276c-0.186-2.532,0.173-5.128,2.115-6.948c-0.647-0.32-1.276-0.641-1.885-0.968
	c2.167-0.013,4.333,0.026,6.512-0.051c-1.224,0.397-2.441,0.801-3.608,1.308c1.5,0.474,3.07,0.769,4.666,0.859
	C1288.111,349.503,1287.99,351.375,1287.458,353.17z M1352.874,355.259c-1.936,0.692-4.038,0.288-6.031,0.417
	c-0.013-1.852-0.025-3.705-0.025-5.551c2.519-0.026,5.05-0.038,7.589-0.096C1353.554,351.67,1353.733,353.702,1352.874,355.259z
	 M1375.282,358.829c0.961-0.622,2.276-0.365,3.353-0.096C1380.016,359.472,1375.436,359.934,1375.282,358.829z M1385.089,359.579
	c1.001-0.036,33.02-0.29,36.952-0.006C1419.261,361.643,1387.833,359.742,1385.089,359.579z M1422.687,360.182
	c1.667-0.237,3.352-0.07,5.038,0.064c0.134,0.365,0.295,0.731,0.474,1.096C1426.501,360.412,1424.514,360.553,1422.687,360.182z
	 M1430.43,361.79c-0.064-0.57-0.186-1.705-0.25-2.269c1.01,0.041,23.455,1.358,25.209,2.051
	C1449.35,362.136,1432.739,361.631,1430.43,361.79z M1459.869,360.451c-0.032-0.776-0.045-1.545-0.039-2.307
	c1.436,0.032,2.878,0.103,4.339,0.224C1463.279,360.015,1461.619,360.496,1459.869,360.451z M1467.567,361.329
	c0.718-0.602,1.135-0.442,1.256,0.474C1468.073,362.393,1467.65,362.233,1467.567,361.329z M1470.099,360.515
	c-0.936-0.148-1.839-0.295-2.737-0.442c0.186-0.647,0.391-1.288,0.622-1.923c0.705,0.006,1.435,0.013,2.179,0.032
	C1470.125,358.951,1470.099,359.733,1470.099,360.515z M1475.701,360.489c0.288-0.718,0.596-1.442,0.917-2.16
	c0.846-0.07,1.698-0.135,2.583-0.199c-0.013,0.776,0,1.551,0.026,2.333C1478.034,360.464,1476.861,360.477,1475.701,360.489z
	 M1531.285,420.663c-0.769,0.026-1.525,0.058-2.256,0.096c-0.058-1.372-0.134-2.743-0.192-4.102c1,0.077,2.013,0.16,3.051,0.256
	C1531.683,418.156,1531.51,419.413,1531.285,420.663z M1539.502,427.034c0.461-1.179,0.859-2.416,1.641-3.436
	c1.109-0.686,2.564-0.282,3.846-0.461c0.064,1.327,0.16,2.666,0.282,4.006C1543.335,427.156,1541.412,427.136,1539.502,427.034z
	 M1545.617,419.938c-1.744-0.07-3.461-0.16-5.173-0.301c-0.006-0.961,0-1.916,0.019-2.871c1.814-0.173,3.704-0.327,5.448,0.41
	C1545.835,417.868,1545.688,419.246,1545.617,419.938z M1542.361,412.958c0.089-0.692,0.198-1.378,0.32-2.064
	c1.384,0,2.782,0.026,4.185,0.07c0.025,0.602,0.077,1.211,0.141,1.833C1545.444,412.856,1543.899,412.907,1542.361,412.958z
	 M1600.227,415.368c-0.981,1.59-2.878,1.487-4.493,1.596c-0.282-1.346-0.596-2.686-0.878-4.019c1.763-0.064,3.532-0.186,5.313-0.34
	C1600.201,413.522,1600.291,414.445,1600.227,415.368z M1606.015,384.653c-2.801-0.058-5.589,0.071-8.377,0.032
	c-0.096-0.692-0.186-1.384-0.25-2.07c2.929-0.455,5.909-0.494,8.877-0.353C1606.162,383.058,1606.079,383.852,1606.015,384.653z
	 M1613.059,383.577c-0.673,0.987-2.237-0.173-1.468-1.083C1612.219,381.513,1613.77,382.66,1613.059,383.577z M1632.493,385.532
	c2.307-1.455,4.903-0.301,7.307,0.263C1637.351,385.942,1634.89,386.044,1632.493,385.532z M1652.369,384.923
	c0.23-0.801,0.5-1.59,0.788-2.378c1.788-0.013,3.596,0.026,5.416,0.064c0.038,0.635,0.103,1.269,0.192,1.904
	C1656.618,383.666,1654.375,383.839,1652.369,384.923z M1678.385,393.883c-1.936,0.071-3.538-0.865-4.929-2.096
	c1.711-0.192,3.448-0.301,5.192-0.365C1678.539,392.242,1678.449,393.056,1678.385,393.883z M1667.553,383.295
	c1.512-1.182,9.885-1.916,11.293-1.916c0.295,0.667,0.641,1.327,0.993,1.993C1675.738,383.416,1671.63,383.724,1667.553,383.295z
	 M1691.736,383.397c-1.481,0.083-2.929,0.109-4.378,0.122c-0.051-0.801-0.077-1.596-0.09-2.384
	C1689.109,381.077,1690.66,381.904,1691.736,383.397z M1686.872,390.089c0-1.237,0.032-2.468,0.096-3.692
	c1.365-0.032,2.762-0.051,4.166-0.058c0.397,1.378,0.878,2.737,1.397,4.096C1690.628,390.326,1688.743,390.236,1686.872,390.089z
	 M1696.787,377.846c0.276-1.936,2.776-0.583,3.795,0.051C1699.486,378.302,1697.249,379.641,1696.787,377.846z M1699.767,369.412
	c-0.897,0.032-1.775,0.064-2.628,0.115c-1.089-2.134-0.519-4.397,0.314-6.493c1.615,0.532,2.718,1.801,3.512,3.269
	C1700.53,367.328,1700.139,368.367,1699.767,369.412z M1708.324,369.072c-1.179,0.327-2.41,0.308-3.589,0.391
	c-0.5-2.051-0.942-4.166-0.449-6.262c1.808-0.038,3.602,0.301,5.198,1.224C1709.196,365.989,1709.331,367.739,1708.324,369.072z
	 M1713.702,368.046c-0.006-1.141,0-2.275,0.013-3.41c0.635-0.032,1.295-0.064,1.974-0.09c-0.02,1.199-0.013,2.397,0.019,3.596
	C1715.016,368.104,1714.35,368.072,1713.702,368.046z M1753.339,368.053c-0.026-1.154-0.051-2.301-0.064-3.448
	c0.416-0.006,1.25-0.019,1.673-0.026c0.468,1.186,0.974,2.359,1.481,3.538C1755.371,368.091,1754.352,368.072,1753.339,368.053z
	 M1774.369,346.664c0.327-1.449,0.718-2.878,1.052-4.326c0.532,0.147,1.596,0.449,2.128,0.602
	C1776.561,344.247,1775.497,345.491,1774.369,346.664z M1795.085,362.931c-0.686,0.942-2.263-0.18-1.474-1.09
	C1794.245,360.88,1795.809,362.008,1795.085,362.931z M1797.604,358.188c-2.218,0.09-4.435,0.09-6.634-0.064
	c0.571-2.115,1.186-4.217,1.821-6.32c1.609,0.006,3.237,0.006,4.871-0.013C1797.584,353.919,1797.584,356.054,1797.604,358.188z
	 M1798.078,347.664c-2.622,0.327-5.256,0.41-7.871,0.25c0.59-2.269,1.82-4.275,3.038-6.256c1.532-0.019,3.07-0.083,4.628-0.167
	C1798.071,343.536,1798.11,345.6,1798.078,347.664z M1848.976,341.703c0.571-0.378,1.167-0.756,1.782-1.128
	c0.917,1.807,0.821,3.839,0.782,5.813c-0.897-0.051-1.769-0.09-2.622-0.122C1848.925,344.741,1848.951,343.222,1848.976,341.703z
	 M1852.002,350.189c0.211,1.788,0,3.589-0.949,5.147c-0.782-0.051-1.545-0.096-2.282-0.135c-0.256-1.59-0.443-3.179-0.577-4.775
	C1849.451,350.317,1850.707,350.234,1852.002,350.189z M1840.24,350.471c1.423-0.128,2.865-0.25,4.327-0.314
	c-0.064,2.134-0.148,4.262-0.193,6.397c-1.519,0.026-3.025,0.038-4.512,0.045C1839.779,354.548,1839.792,352.484,1840.24,350.471z
	 M1843.977,361.707c-1.224-0.032-2.423-0.064-3.602-0.096c0.103-0.301,0.302-0.904,0.398-1.205c0.987-0.083,1.987-0.167,3.006-0.25
	C1843.83,360.547,1843.926,361.323,1843.977,361.707z M1840.952,378.904c-0.839-2.897-1.147-5.903-1.122-8.909
	c3.198-0.167,6.249-1.134,9.352-1.878C1847.626,370.686,1842.535,377.814,1840.952,378.904z M1852.092,417.362
	c-1.174-0.077-2.333-0.154-3.468-0.244c0.269-0.795,0.602-1.577,0.923-2.352c0.872-0.032,1.756-0.058,2.673-0.09
	C1852.156,415.567,1852.111,416.464,1852.092,417.362z M1852.514,412.952c-1.724-0.224-3.224-1.102-4.672-1.974
	c1.686-0.102,3.384-0.154,5.096-0.192C1852.771,411.503,1852.63,412.228,1852.514,412.952z M1847.522,407.408
	c1.801-1.058,4.795-1.936,5.756,0.66C1851.31,408.343,1849.348,408.113,1847.522,407.408z M1866.231,416.695
	c-0.897,0.019-1.763,0.051-2.609,0.09c-0.051-0.743-0.077-1.481-0.083-2.218c1.423,0.045,2.858,0.096,4.313,0.16
	C1867.295,415.375,1866.75,416.028,1866.231,416.695z M1862.962,410.587c1.641-0.455,3.365-0.308,5.076-0.288
	C1867.597,413.098,1862.222,412.686,1862.962,410.587z M1862.975,405.972c2.929-0.564,5.942-0.391,8.922-0.224
	C1870.517,407.871,1864.577,407.418,1862.975,405.972z M1867.859,401.402c0.006-0.218,0.013-0.647,0.019-0.865
	c3.23,0.353,6.646-0.66,9.755,0.59C1874.384,401.626,1871.109,401.229,1867.859,401.402z M1900.08,408.318
	c2.615-0.397,5.269-0.628,7.941-0.493c-0.077,0.833-0.122,1.666-0.141,2.513c-2.583,0.038-5.154-0.013-7.718-0.077
	C1900.112,409.606,1900.087,408.959,1900.08,408.318z M1899.696,405.465c1.82-2.198,5.121-2.013,7.73-2.391
	c0.224,0.878,0.449,1.769,0.68,2.66C1905.291,405.78,1902.477,405.805,1899.696,405.465z M1902.541,419.323
	c0.295-0.679,0.609-1.352,0.942-2.025c1.449-0.026,2.923-0.032,4.41-0.032c-0.025,0.667-0.013,1.34,0.02,2.019
	C1906.112,419.323,1904.317,419.349,1902.541,419.323z M1907.829,415.407c-1.276,0.006-2.532,0.019-3.776,0.038
	c-0.038-0.737-0.064-1.474-0.058-2.198c1.577-0.378,3.224-0.359,4.737,0.365C1908.406,414.202,1908.105,414.804,1907.829,415.407z
	 M1899.682,399.831c3.045-0.782,6.237-1.096,9.39-0.897C1906.553,400.682,1901.672,400.129,1899.682,399.831z M1964.881,400.588
	c-0.032,2.064,0.314,5.089-2.378,5.551c-0.089-1.897-0.115-3.788-0.115-5.672C1963.195,400.498,1964.022,400.543,1964.881,400.588z
	 M1950.402,400.53c2.679,0.058,5.365,0.013,8.063-0.019c-0.032,1.551-0.212,3.096-0.513,4.621c-2.224,0.385-4.314,1.481-6.576,1.429
	C1949.152,405.408,1950.209,402.491,1950.402,400.53z M1957.952,410.208c-0.032,1.808-0.077,3.615-0.058,5.423
	c-2.596,0.352-5.204,0.199-7.756-0.224c-0.071-1.615-0.077-3.224-0.032-4.833C1952.69,410.215,1955.324,410.215,1957.952,410.208z
	 M1918.328,403.453c2.666-0.801,5.647-2.493,8.198-0.404c-0.032,0.718-0.039,1.436-0.02,2.154
	C1923.642,405.369,1920.629,405.401,1918.328,403.453z M1919.347,407.068c2.314-0.429,4.673-0.705,7.044-0.57
	c0.039,0.82,0.109,1.647,0.205,2.481c-2.66,0.532-5.384,0.756-8.044,0.231C1918.79,408.484,1919.065,407.773,1919.347,407.068z
	 M1920.809,417.464c2.063-0.295,4.166-0.353,6.268-0.115C1925.245,418.701,1922.796,418.041,1920.809,417.464z M1926.155,414.702
	c-2.295-0.41-4.455-1.327-6.545-2.288c2.519-0.775,5.198-0.993,7.794-0.346C1927.084,412.99,1927.09,414.157,1926.155,414.702z
	 M1930.975,398.671c-3.91,0.218-7.813,0.058-11.717,0.064c0.006-0.173,0.006-0.506,0.013-0.673
	c3.903-0.013,7.858,0.199,11.723-0.635C1930.987,397.742,1930.981,398.364,1930.975,398.671z M1944.909,414.631
	c-3.121,0.481-6.313,0.122-9.416-0.211c0.115-1.186,0.308-2.359,0.487-3.538c3.269-0.404,6.576-0.718,9.89-0.385
	C1945.576,411.862,1945.89,413.503,1944.909,414.631z M1945.55,406.042c-0.635-0.654-1.192-1.295-1.756-1.948
	c0.013,0.449,0.039,1.346,0.051,1.795c-2.577-0.711-5.243-0.699-7.858-1.058c-0.044-1.006-0.044-2-0.051-3
	c3.108-0.026,6.236-0.654,9.351-0.327C1947.005,402.395,1946.075,404.671,1945.55,406.042z M1946.575,427.297
	c2.872,0.18,5.775,2.275,8.583,0.763c2.096-0.885,4.236-1.737,6.544-1.936c-0.006,1.134,0.013,2.275,0.052,3.423
	C1948.029,429.77,1950.434,429.786,1946.575,427.297z M1964.054,414.888c-0.397-0.051-1.186-0.154-1.583-0.205
	c-0.372-1.75,0.045-3.48,0.775-5.07C1964.157,411.067,1965.997,413.49,1964.054,414.888z M1989.052,437.898
	c0,0-4.976-2.311-17.178-7.031c-0.032-1.147-0.051-2.295-0.064-3.429C1992.63,425.382,1989.353,428.908,1989.052,437.898z
	 M2015.607,348.023c1.635-0.058,3.288-0.09,4.961-0.09c0.212,1.699,0.557,3.378,0.853,5.076c-2.013,0.282-4.038,0.288-6.032,0.135
	C2015.453,351.433,2015.536,349.728,2015.607,348.023z M2013.319,377.5c1.006-0.032,2.031-0.071,3.096-0.103
	c0.423,1.474,0.615,3.025-0.212,4.403c2.916,1.128,3.301,4.48,4.095,7.102C2016.94,385.82,2015.254,381.506,2013.319,377.5z
	 M2020.651,432.61c-0.526,1.865-2.59,1.256-4.012,1.359c0.749-2.333,2.012-4.435,3.256-6.531
	C2020.984,428.937,2021.862,430.879,2020.651,432.61z M2021.734,363.233c-2.051,0.135-4.096,0.212-6.128,0.192
	c-0.09-1.833-0.128-3.666-0.16-5.499c1.955-0.205,3.948-0.167,5.91,0.186C2021.638,359.797,2021.875,361.508,2021.734,363.233z
	 M2074.075,345.087c1.551,0.91,3.057,1.917,4.544,2.968C2077.618,354.75,2072.4,350.376,2074.075,345.087z M2071.729,352.593
	c-1.628,0.006-3.23-0.019-4.827-0.083c-0.083-1.115-0.134-2.224-0.16-3.333C2069.152,348.843,2070.78,350.574,2071.729,352.593z
	 M2071.709,355.4c0.141,0.814,0.244,1.647,0.295,2.487c-1.519-0.07-3-0.122-4.48-0.154c-0.34-0.622-0.66-1.237-0.955-1.852
	C2068.178,355.144,2069.96,354.984,2071.709,355.4z M2068.345,360.098c0.692,0.34,1.384,0.724,2.083,1.16
	c-1.172,1.077-2.686,0.782-4.051,0.474C2066.896,361.085,2067.319,360.053,2068.345,360.098z M2070.813,364.643
	c-0.096,0.91-0.174,1.827-0.212,2.75c-1.346-0.09-2.673-0.199-3.98-0.34c0.192-0.801,0.429-1.602,0.686-2.391
	C2068.454,364.656,2069.621,364.649,2070.813,364.643z M2068.249,385.852c-1.891-2.102-3.667-4.564-3.59-7.525
	c0.994-0.039,2.026-0.096,3.077-0.006c1.314,1.045,1.718,2.711,1.795,4.314c0.942,0,1.955-0.224,2.897,0.135
	c1.122,1.096,2.044,2.378,3,3.641C2073.094,387.557,2070.479,386.82,2068.249,385.852z M2076.697,362.694
	c-0.308-1.07-0.622-2.128-0.942-3.173c0.609,0.064,1.25,0.128,1.91,0.199c0.461,1.019,0.929,2.051,1.397,3.089
	C2078.235,362.765,2077.459,362.733,2076.697,362.694z M2090.323,382.211c-1.429-3.059-1.566-1.769,0.083-7.192
	c1.577,2.147,3.295,4.352,3.519,7.121C2092.701,382.173,2091.503,382.192,2090.323,382.211z M2088.817,367.373
	c-0.006-0.353,0.02-0.699,0.071-1.045c1.128-0.391,2.198-0.846,3.345-1.314c-2.705-3.205-7.136,1.152-5.39-8.134
	c0.684,1.008,16.622,21.525,18.139,25.247C2096.573,381.577,2095.842,372.255,2088.817,367.373z M2115.846,389.736
	c2.577-5.627,5.333-2.207,6.396-1.545C2120.577,390.038,2118.115,389.993,2115.846,389.736z M2133.332,403.812
	c-2.814,0.179-5.627,0.211-8.416-0.103c2.051-3.192,6.141-2.461,9.313-1.788C2133.902,402.543,2133.594,403.171,2133.332,403.812z
	 M2124.96,396.736c2.859-0.333,5.73,0.122,8.608,0.199c0.231,1.019,0.455,2.045,0.66,3.083
	C2128.257,400.033,2125.193,400.8,2124.96,396.736z M2124.544,393.069c3.365-0.385,6.781-0.34,10.184-0.154
	C2133.685,394.768,2126.174,394.806,2124.544,393.069z M2123.993,388.32c5.16-2.269,10.704,0.192,16.076-0.615
	c0.013,0.218,0.039,0.654,0.045,0.872C2134.735,388.256,2129.345,388.986,2123.993,388.32z M2140.953,399.197
	c-0.532,0-1.038,0.013-1.513,0.026c-0.096-0.82-0.167-1.634-0.205-2.442c0.622,0,1.269,0,1.942,0.006
	C2141.068,397.588,2140.998,398.389,2140.953,399.197z M2141.229,393.717c-0.911-0.032-1.782-0.051-2.635-0.064
	c-0.006-0.192-0.013-0.564-0.013-0.756c0.865-0.019,1.756-0.038,2.686-0.058C2141.254,393.056,2141.241,393.499,2141.229,393.717z
	 M2150.836,398.774c-1.077-0.039-2.128-0.071-3.16-0.096c-0.122-0.647-0.218-1.288-0.288-1.923c1.647,0.019,3.314,0.019,4.999,0.013
	C2151.843,397.434,2151.323,398.101,2150.836,398.774z M2153.349,393.883c-2.16,0.404-4.32-0.083-6.435-0.359
	c0.025-0.596,0.077-1.199,0.147-1.788c2.122-0.167,4.25-0.205,6.397-0.173C2153.394,392.332,2153.355,393.101,2153.349,393.883z
	 M2146.747,387.993c0.275-0.487,0.577-0.974,0.904-1.461c4.48-0.032,8.96-0.09,13.453-0.026c0.006,0.179,0.013,0.545,0.019,0.724
	C2156.304,387.076,2151.516,387.345,2146.747,387.993z M2165.63,392.185c2.378-0.878,5.051-0.673,7.339-1.942
	c0.09,0.705,0.199,1.41,0.352,2.128C2170.75,392.403,2168.168,392.518,2165.63,392.185z M2166.296,386.98
	c2.66-0.731,5.461-0.583,8.198-0.346C2171.892,387.698,2168.995,387.249,2166.296,386.98z M2185.858,391.108
	c0.006-0.199,0.019-0.59,0.026-0.788c2.307,0.032,4.66-0.16,6.954,0.391C2190.531,391.249,2188.172,391.069,2185.858,391.108z
	 M2186.044,394.3c2.16,0.006,4.34-0.058,6.531-0.179c-0.032,0.846-0.026,1.692,0.006,2.538c-2.25,0.167-4.493,0.019-6.666-0.462
	C2185.928,395.563,2185.973,394.928,2186.044,394.3z M2191.672,406.267c-1.705,0.109-3.391,0.205-5.064,0.295
	c0-0.724,0.025-1.436,0.077-2.147c1.98,0.051,3.974,0.083,5.993,0.064C2192.307,405.068,2191.973,405.664,2191.672,406.267z
	 M2188.512,401.716c0.006-0.814,0.032-1.615,0.083-2.416c1.269-0.006,2.551-0.019,3.859-0.019c0.199,0.692,0.443,1.397,0.699,2.096
	C2191.595,401.594,2190.057,401.78,2188.512,401.716z M2185.852,385.987c0-0.199-0.006-0.603-0.006-0.801
	c3.622,0.199,7.32-0.461,10.903,0.385C2193.165,386.41,2189.474,385.801,2185.852,385.987z M2200.197,401.37
	c-0.699-0.019-1.372-0.026-2.019-0.026c-0.025-0.699-0.032-1.391-0.013-2.083c0.673-0.019,1.372-0.045,2.096-0.058
	C2200.21,399.921,2200.19,400.639,2200.197,401.37z M2208.215,400.94c-1.044-0.231-2.077-0.429-3.076-0.615
	c0.564-0.795,1.141-1.59,1.724-2.397c0.448,0.5,0.936,0.993,1.455,1.493C2208.247,399.921,2208.221,400.427,2208.215,400.94z
	 M2205.273,396.261c0.231-1.173,0.5-2.339,0.75-3.506c1.148,0.705,2.314,1.417,3.461,2.192
	C2208.093,395.479,2206.696,395.934,2205.273,396.261z M2206.356,389.999c-0.006-0.263-0.025-0.795-0.038-1.064
	c1.333,0.083,2.673,0.173,4.051,0.346C2209.1,389.858,2207.683,389.884,2206.356,389.999z M2206.362,384.762
	c0-0.231-0.013-0.686-0.019-0.917c1.744,0.039,3.5,0.077,5.262,0.308C2209.939,384.871,2208.1,384.698,2206.362,384.762z
	 M2242.263,277.036c-2.199,0.66-4.526,0.43-6.685-0.16C2237.789,276.786,2240.026,276.838,2242.263,277.036z M2229.604,282.536
	c-3.538,1.115-7.268,1.199-10.909,1.647c-0.039-1.852-0.058-3.698-0.058-5.538C2222.694,278.318,2226.38,280.273,2229.604,282.536z
	 M2230.815,284.478c-0.263,0.974-2.743,0.955-2.987,0.026C2228.636,283.959,2229.956,283.901,2230.815,284.478z M2222.303,313.661
	c-1.032-0.731-1.865-1.679-2.66-2.609c1.089-0.147,2.205-0.256,3.352-0.359C2223.085,311.764,2223.22,312.892,2222.303,313.661z
	 M2228.796,298.778c-0.744,0.032-1.455,0.064-2.135,0.103c-0.961-1.609-1.923-3.205-2.878-4.794
	c1.539,0.045,3.096,0.038,4.673,0.045c0.333,0.615,0.718,1.237,1.122,1.852C2229.283,296.913,2229.008,297.842,2228.796,298.778z
	 M2231.027,291.176c-4.128-0.064-8.256,0.045-12.371-0.192c-0.025-1.743,0-3.493,0.032-5.23c11.001,0.854,9.374,0.818,12.39,0.064
	C2230.994,287.599,2230.982,289.388,2231.027,291.176z M2235.545,279.081c2.423,0.5,4.98,0.192,7.365,1.006
	c-0.571,0.59-1.07,1.186-1.59,1.776c0.141,0.308,0.301,0.622,0.493,0.936c-2.237-0.102-4.468-0.058-6.678,0.019
	C2235.244,281.568,2235.391,280.325,2235.545,279.081z M2236.603,288.811c0.006-0.801,0.058-1.602,0.09-2.397
	c1.544,0.013,3.109-0.013,4.698-0.071c-0.334,0.372-0.635,0.75-0.911,1.128c0.891,0.199,1.782,0.404,2.731,0.628
	C2241.558,290.272,2238.711,290.279,2236.603,288.811z M2245.41,282.901c0.173-1.263,0.372-2.525,0.666-3.769
	c0.853,0.391,1.744,0.788,2.634,1.199C2247.589,281.183,2246.493,282.042,2245.41,282.901z M2245.66,275.03
	c0.045-4.288-0.128-8.589,0.782-12.806c0.538-0.019,1.109-0.038,1.699-0.051c0.122,4.307,0.16,8.615,0.115,12.928
	C2247.358,275.069,2246.5,275.043,2245.66,275.03z M2247.621,234.47c0.918,3.781,0.668,17.57,0.481,19.921
	c-0.474-2.551-0.949-5.089-2.32-7.339c0.918-13.888-0.068,0.856-0.167-18.312c1.32,0.09,2.679,0.173,4.038,0.205
	C2248.909,230.759,2248.005,232.548,2247.621,234.47z M2273.464,296.855c-0.955,0.596-1.884,1.199-2.794,1.801
	c0.744-1.25,1.519-2.48,2.301-3.718c-1.25-0.711-2.557-1.269-3.903-1.647c2.044-0.256,4.115-0.199,6.166,0.205
	c-0.025,2.032-0.058,4.064,0.071,6.096C2274.695,298.662,2274.067,297.752,2273.464,296.855z M2269.26,285.978
	c1.955-0.045,3.922-0.263,5.858-0.692c0.077,1.942,0.096,3.891,0.129,5.833c-2.013-0.045-4.012-0.032-5.999,0.058
	C2269.318,289.439,2269.292,287.708,2269.26,285.978z M2275.163,278.12c0.006,1.782,0.026,3.564,0.084,5.352
	c-1.98-0.019-3.942-0.032-5.891-0.006c-0.089-1.686-0.275-3.365-0.583-5.025C2270.882,278.248,2273.016,278.165,2275.163,278.12z
	 M2254.659,285.805c-1.372-2-0.353-4.339-0.026-6.474c0.603,0.09,1.231,0.18,1.891,0.276c0.02,1.019,0.071,2.038,0.16,3.057
	c-0.91,0.064-1.788,0.128-2.64,0.205C2254.236,283.837,2254.46,284.811,2254.659,285.805z M2258.427,285.728
	c-0.224-2.243-0.282-4.506-0.019-6.749C2258.838,281.203,2258.742,283.497,2258.427,285.728z M2260.838,284.741
	c0.09-1.782,0.218-3.557,0.538-5.314c-0.404-0.09-1.224-0.263-1.634-0.352c2.378-0.288,4.775-0.269,7.185-0.333
	c-0.039,1.987-0.045,3.974-0.006,5.961C2264.882,284.645,2262.85,284.683,2260.838,284.741z M2266.824,285.824
	c0.154,2.205,0.205,4.416,0.237,6.621c-0.705-0.051-1.378-0.096-2.019-0.135c-0.385-2.154-0.897-4.275-1.083-6.448
	C2264.876,285.85,2265.844,285.837,2266.824,285.824z M2268.119,311.071c1.557-0.295,3.173-0.173,4.788-0.179
	c-1.154,3.916-4.397,6.64-6.461,10.044C2263.8,317.292,2264.244,313.931,2268.119,311.071z M2275.862,425.579
	c-0.252-1-2.049-9.123-2.038-11.877c1.263,0.788,2.525,1.609,3.82,2.397c0.077,3.198-0.269,6.422,0.231,9.602
	C2277.182,425.656,2276.49,425.611,2275.862,425.579z M2357.033,452.589c-0.212-1.026-0.404-2.045-0.551-3.064
	c2.026-0.135,4.07-0.513,5.897-1.5c0.526,1.506,1.013,3.032,1.487,4.57C2361.571,452.634,2359.295,452.621,2357.033,452.589z
	 M2362.795,445.955c-1.763,0.295-3.558,0.122-5.307,0.237c-0.225-1.077-0.404-2.154-0.551-3.23c2.673-0.801,5.506-0.904,8.185,0.032
	C2364.5,444.09,2363.923,445.301,2362.795,445.955z"/>
</svg>
