<?xml version="1.0" standalone="no"?>
<!DOCTYPE svg PUBLIC "-//W3C//DTD SVG 20010904//EN"
 "http://www.w3.org/TR/2001/REC-SVG-20010904/DTD/svg10.dtd">
<svg version="1.0" xmlns="http://www.w3.org/2000/svg"
 width="1467.000000pt" height="780.000000pt" viewBox="0 0 1467.000000 780.000000"
 preserveAspectRatio="xMidYMid meet">
<metadata>
Created by potrace 1.12, written by Peter Selinger 2001-2015
</metadata>
<g transform="translate(0.000000,780.000000) scale(0.100000,-0.100000)"
fill="#000000" stroke="none">
<path d="M4400 7767 l0 -32 -10 -35 -11 -35 -10 -65 -11 -65 0 -39 0 -40 19
-14 18 -13 28 5 28 6 45 -12 46 -13 13 18 12 17 15 0 15 0 27 21 26 20 0 20 0
20 29 10 28 10 14 25 13 25 28 17 28 16 0 13 0 12 50 50 50 50 0 21 0 20 -50
0 -50 0 -6 -30 -6 -30 -8 0 -8 0 -81 -81 -81 -81 0 -8 0 -7 -30 -6 -30 -6 0
-14 0 -13 -29 -17 -29 -17 -19 0 -20 0 -18 20 -18 20 20 17 20 18 12 105 11
105 0 13 0 12 -35 0 -35 0 0 -33z"/>
<path d="M4552 7783 l3 -16 13 -5 12 -4 0 21 0 21 -16 0 -15 0 3 -17z"/>
<path d="M4980 7779 l0 -20 10 6 10 6 0 15 0 14 -10 0 -10 0 0 -21z"/>
<path d="M5510 7778 l0 -23 -8 -10 -7 -10 -20 -11 -20 -11 -12 -43 -13 -44
-12 -8 -13 -8 -23 0 -23 0 -17 -30 -17 -30 -18 -6 -17 -5 -15 -29 -15 -29 -22
-7 -21 -6 -49 -46 -48 -45 0 -10 0 -10 -19 -41 -19 -41 -6 -18 -5 -17 -25 -10
-24 -9 -36 11 -37 12 -27 -21 -27 -20 -3 -16 -3 -16 31 -19 31 -19 42 10 42
10 13 3 14 4 15 39 15 39 40 6 39 6 11 30 10 30 31 8 31 8 9 33 8 34 42 48 42
48 25 11 25 10 23 33 22 33 0 13 0 12 30 11 31 10 6 29 6 29 20 0 21 0 28 27
28 27 0 33 0 33 -55 0 -55 0 0 -22z"/>
<path d="M4954 7728 l-7 -11 18 -13 18 -13 -8 -128 -8 -128 -1 -26 -1 -26 -11
-14 -11 -14 -5 -28 -5 -27 21 6 21 7 21 8 22 8 7 77 7 77 24 22 24 22 0 5 0 6
-19 5 -20 5 -3 63 -3 64 -27 13 -28 13 0 20 0 19 -9 0 -10 0 -7 -12z"/>
<path d="M4860 7626 l0 -16 21 0 21 0 -4 13 -5 12 -16 3 -17 3 0 -15z"/>
<path d="M3622 7299 l4 -13 13 -4 14 -4 -5 13 -4 13 -13 4 -13 5 4 -14z"/>
<path d="M3922 7299 l4 -10 9 0 10 0 3 10 4 11 -17 0 -17 0 4 -11z"/>
<path d="M4100 7295 l0 -15 15 0 15 0 0 15 0 15 -15 0 -15 0 0 -15z"/>
<path d="M3665 7270 l-6 -10 15 -6 15 -6 11 7 10 6 -5 10 -6 9 -14 0 -14 0 -6
-10z"/>
<path d="M3845 7271 l-6 -10 20 -11 20 -10 6 10 6 10 -6 10 -6 10 -14 0 -14 0
-6 -9z"/>
<path d="M3980 7265 l0 -15 15 0 15 0 0 15 0 15 -15 0 -15 0 0 -15z"/>
<path d="M4074 7266 l-6 -16 6 -16 6 -15 10 6 10 6 0 19 0 19 -10 6 -10 6 -6
-15z"/>
<path d="M855 7260 l6 -10 15 0 14 0 0 10 0 10 -21 0 -20 0 6 -10z"/>
<path d="M4222 7238 l-12 -12 0 -12 0 -12 -15 -12 -15 -12 0 -54 0 -54 18 0
17 0 20 33 19 32 8 18 7 17 11 0 10 0 0 21 0 20 -10 20 -11 19 -17 0 -18 0
-12 -12z"/>
<path d="M4003 7173 l-30 -28 -15 -10 -16 -10 -7 -24 -7 -24 36 7 36 7 0 -99
0 -98 13 -16 12 -15 16 -6 17 -5 11 11 11 11 0 153 0 152 -19 11 -20 10 -4 0
-4 0 -30 -27z"/>
<path d="M3694 7176 l-31 -11 -26 -25 -27 -25 0 -33 0 -33 26 -35 26 -34 19 0
19 0 0 31 0 30 -11 20 -11 21 18 19 17 19 15 0 14 0 24 -22 24 -23 0 -11 0
-12 -16 -13 -17 -14 -24 -39 -25 -39 -35 -32 -36 -33 6 -24 7 -25 46 -7 47 -6
38 0 38 0 16 16 16 16 -3 22 -3 21 -47 3 -48 3 0 8 0 8 25 23 25 23 0 12 0 12
20 23 20 23 0 17 0 18 6 31 7 32 -22 6 -21 5 0 14 0 14 -26 10 -25 10 -17 -1
-17 -1 -31 -12z"/>
<path d="M568 7162 l-20 -14 6 -47 5 -46 7 -85 7 -85 0 -25 1 -25 -5 -14 -4
-14 33 -19 32 -20 13 10 13 11 53 3 54 3 29 36 29 36 -11 42 -11 41 -8 0 -9 0
-5 22 -6 22 17 19 17 19 -1 38 -1 38 -19 26 -19 25 -17 6 -18 6 -71 3 -71 2
-20 -14z m137 -64 l25 -11 0 -11 0 -11 6 -22 6 -23 -13 0 -12 0 -18 -16 -18
-16 -20 7 -21 6 -6 25 -6 24 6 24 6 25 18 4 17 5 2 1 2 1 26 -12z m28 -175
l10 -23 9 0 8 0 0 -18 0 -19 -22 -11 -23 -10 -27 -6 -26 -6 -16 6 -15 6 6 46
6 47 10 7 11 7 29 -1 29 -1 11 -24z"/>
<path d="M500 7115 l0 -15 10 0 10 0 0 15 0 15 -10 0 -10 0 0 -15z"/>
<path d="M4795 7091 l-5 -10 10 -6 10 -6 10 6 10 6 -5 10 -6 9 -9 0 -9 0 -6
-9z"/>
<path d="M4925 7090 l-6 -10 26 0 26 0 -6 10 -6 10 -14 0 -14 0 -6 -10z"/>
<path d="M1253 7043 l5 -27 -16 -33 -16 -33 -13 0 -13 0 0 33 0 33 -29 11 -30
11 -5 -6 -6 -5 0 -28 0 -27 14 -29 14 -28 10 -25 10 -25 6 -17 5 -18 30 0 30
0 11 40 11 39 9 6 10 6 8 -18 8 -18 19 -32 20 -33 12 0 13 0 20 40 20 39 0 23
1 23 14 19 15 20 0 28 0 29 -16 6 -15 6 -25 -12 -25 -11 6 -21 7 -20 -7 -27
-6 -26 -14 25 -14 24 -10 22 -10 22 -21 21 -20 20 -11 0 -11 0 5 -27z"/>
<path d="M2915 7060 l-6 -10 21 0 21 0 -6 10 -6 10 -9 0 -9 0 -6 -10z"/>
<path d="M3010 7025 l-23 -24 6 -15 6 -14 53 -6 53 -6 211 3 211 2 16 14 17
13 0 19 0 18 -18 10 -18 10 -246 0 -245 1 -23 -25z"/>
<path d="M920 7030 l0 -10 -25 -12 -25 -11 -10 -36 -10 -36 0 -31 0 -31 41
-36 41 -37 49 0 50 0 25 28 25 27 16 17 16 17 -12 14 -11 14 6 16 6 16 -23 33
-22 33 -14 12 -15 11 -33 -5 -32 -5 -7 11 -7 11 -15 0 -14 0 0 -10z m94 -82
l16 -22 0 -21 0 -21 -30 -22 -29 -22 -9 0 -8 0 -27 28 -27 28 0 7 0 8 22 29
22 30 27 0 28 0 15 -22z"/>
<path d="M2877 6944 l-6 -7 5 -8 5 -9 34 0 33 0 17 6 17 7 -14 8 -13 9 -36 0
-36 0 -6 -6z"/>
<path d="M2870 6875 l0 -16 25 3 26 3 0 10 0 10 -26 3 -25 3 0 -16z"/>
<path d="M4367 6794 l-6 -7 10 -18 10 -19 18 0 19 0 6 16 6 16 -6 9 -5 9 -23
0 -23 0 -6 -6z"/>
<path d="M4283 6710 l-33 -20 0 -26 0 -25 -11 -21 -11 -21 12 -38 13 -39 13 0
13 0 6 20 6 20 9 0 8 0 11 28 11 27 20 30 19 30 -12 25 -13 25 -14 3 -15 2
-32 -20z"/>
<path d="M4422 6678 l3 -23 15 0 15 0 0 20 0 20 -18 3 -19 4 4 -24z"/>
<path d="M623 6658 l-31 -8 -14 -22 -15 -23 -6 -33 -7 -33 23 -40 22 -39 17 0
16 0 52 -27 51 -26 10 -20 11 -19 -18 -20 -19 -20 -30 7 -30 6 -35 2 -35 2 -3
-22 -3 -22 18 -9 18 -10 53 -11 53 -11 19 10 20 10 25 38 25 37 0 34 0 34 -34
32 -34 32 -54 19 -53 19 -3 23 -3 22 15 6 16 6 0 14 0 14 22 0 21 0 18 -16 18
-16 26 6 25 6 0 18 0 17 -9 13 -8 14 -60 7 -59 7 -31 -8z"/>
<path d="M3982 6618 l-42 -32 0 -11 0 -11 33 -15 32 -14 0 -98 0 -98 15 -9 15
-10 12 0 13 0 14 23 15 22 -6 143 -6 142 -27 0 -26 0 -42 -32z"/>
<path d="M3705 6632 l-20 -4 -15 -13 -15 -12 -18 -6 -17 -6 -10 -27 -10 -26 6
-9 5 -9 29 0 29 0 6 -10 6 -10 1 -89 1 -89 24 -13 24 -13 17 11 17 11 -3 28
-3 29 -5 104 -5 103 11 13 10 12 -12 10 -13 10 -10 5 -10 4 -20 -4z"/>
<path d="M1575 6581 l-5 -10 10 -6 10 -6 10 6 10 6 -5 10 -6 9 -9 0 -9 0 -6
-9z"/>
<path d="M8750 6575 l0 -17 11 4 11 4 0 9 0 10 -11 3 -11 4 0 -17z"/>
<path d="M8810 6563 l-1 -28 -5 -114 -5 -114 15 -48 16 -48 0 -41 0 -41 -15
-5 -15 -6 0 -18 0 -18 26 -19 26 -19 4 -55 4 -54 6 -60 7 -60 3 -65 2 -65 13
-70 12 -70 2 -110 1 -110 22 -59 22 -59 0 -61 1 -61 10 -45 10 -45 9 -95 9
-95 7 -47 7 -48 -12 -14 -12 -14 -1 -98 -1 -97 20 -16 20 -16 17 -27 18 -27
-7 -11 -7 -11 13 -64 13 -64 -17 -19 -17 -19 0 -11 0 -11 21 -35 21 -35 -7
-11 -7 -11 -76 3 -77 3 -3 -107 -3 -108 -20 -11 -21 -11 -18 17 -19 17 -3 22
-3 21 -72 3 -71 3 -14 16 -13 16 -2 71 -1 71 -1 17 -1 17 -19 6 -18 6 -12 62
-13 62 -10 45 -9 45 -10 64 -9 65 -9 30 -10 31 -6 75 -7 75 -7 10 -6 10 -3 35
-3 35 -2 95 -2 95 -9 14 -9 15 -6 60 -6 61 -25 0 -25 0 1 -50 0 -50 5 -20 4
-20 -10 -3 -10 -3 -3 23 -4 23 -14 8 -14 8 0 16 0 16 -21 18 -21 18 -52 -26
-51 -26 -32 -24 -32 -23 -10 0 -10 0 -13 -12 -13 -13 -65 -34 -65 -33 -37 -20
-36 -19 -27 -56 -28 -55 7 -54 6 -53 9 -23 9 -23 10 -50 11 -50 14 -70 15 -70
17 -90 17 -90 20 -90 20 -90 9 -23 9 -23 0 -38 0 -37 -35 -17 -36 -17 -17 0
-18 0 -12 -12 -13 -13 -167 -3 -168 -4 -13 16 -13 16 12 15 12 15 22 0 21 0
23 6 22 6 0 19 0 19 8 0 8 0 11 -11 11 -11 78 5 79 4 68 13 67 13 0 12 0 13
-25 6 -25 6 -157 -1 -158 -1 -75 1 -75 2 -43 25 -43 25 -32 -3 -32 -3 -10 -22
-9 -22 -29 -7 -28 -6 -22 15 -22 14 -34 6 -34 7 -19 -17 -18 -16 -38 -6 -37
-6 -3 -31 -3 -31 15 -16 15 -15 58 2 58 2 39 -13 39 -13 33 0 33 0 6 -11 7
-10 -18 -14 -19 -15 -27 6 -27 5 -17 -9 -18 -10 -18 11 -18 11 -11 -11 -12
-12 -18 12 -18 11 -26 -12 -27 -13 -14 12 -13 11 -20 -7 -19 -6 -7 21 -6 20 1
28 2 27 -1 23 -1 22 -24 0 -24 0 -16 6 -16 6 0 34 0 34 8 1 7 0 111 3 111 3
11 7 12 7 0 19 0 19 -11 7 -12 7 -91 3 -91 3 -58 12 -58 12 -37 -11 -37 -11
-90 -6 -90 -5 -14 -14 -14 -14 6 -15 5 -14 35 -6 34 -5 74 3 74 3 22 -5 21 -5
7 -89 7 -89 -12 -15 -12 -15 -48 0 -47 0 -7 -7 -7 -7 -67 -2 -67 -2 -15 -3
-15 -2 -57 1 -57 2 -11 21 -12 21 5 4 4 5 59 0 59 0 73 11 72 11 6 22 6 23 -4
22 -3 23 -50 14 -50 14 -38 10 -38 9 -33 -25 -33 -25 -7 0 -8 0 -28 30 -28 30
-21 0 -22 0 -37 -16 -37 -16 -70 -6 -70 -6 -50 1 -50 0 -60 3 -60 3 -95 -12
-95 -13 -9 -9 -10 -9 11 -11 10 -10 89 -10 89 -10 81 -6 81 -5 7 11 7 11 8 0
8 0 -1 -22 -1 -22 30 -6 30 -5 0 -25 0 -24 -30 -6 -30 -5 -217 5 -217 5 -14
20 -15 19 4 11 4 10 4 88 4 88 -20 14 -20 13 -15 -5 -15 -6 -9 14 -9 14 6 17
5 17 -20 10 -20 11 -28 0 -28 0 -22 -6 -23 -6 0 -39 0 -38 -37 -3 -38 -3 -3
-50 -3 -50 -16 -12 -17 -13 -8 0 -8 0 -20 20 -20 20 0 24 0 23 -37 6 -38 6
-17 58 -18 58 -26 105 -26 105 -7 73 -6 73 -25 19 -24 18 -8 -4 -7 -5 -7 -34
-6 -35 12 -15 12 -15 -16 0 -16 0 0 16 0 15 -32 -3 -33 -3 -3 -22 -3 -21 18
-6 18 -6 30 -28 31 -28 22 -31 22 -31 0 -39 0 -39 19 -54 19 -55 -9 -17 -10
-18 -7 -1 -7 -2 -119 -6 -119 -6 -4 -12 -4 -12 23 -13 23 -12 55 -6 55 -5 0
-25 0 -25 -85 -3 -84 -3 -19 -17 -19 -17 -14 20 -14 19 0 19 0 18 26 34 25 33
-10 7 -11 6 0 26 0 27 12 33 12 34 -11 17 -10 17 -29 0 -28 0 -6 30 -7 30 -11
21 -11 21 -13 11 -14 11 -40 6 -39 7 -28 -26 -27 -25 0 -46 0 -46 -80 3 -80 3
0 10 -1 10 36 5 36 5 0 10 0 10 -48 7 -48 8 -46 6 -46 6 -22 -11 -21 -12 0
-14 0 -15 26 -6 26 -7 -14 -8 -13 -9 -38 0 -37 0 -10 -25 -9 -25 7 -57 7 -57
31 -6 31 -7 11 -7 12 -7 0 -38 0 -37 -15 -20 -14 -19 -1 -21 0 -21 -21 -19
-21 -19 -114 0 -114 0 1 10 0 10 52 17 52 17 39 1 38 0 -6 118 -7 117 -2 45
-2 45 -8 13 -9 13 -121 -7 -122 -6 -34 -14 -33 -14 -42 0 -41 0 -11 -8 -10 -7
-26 -35 -27 -35 -193 1 -193 2 -17 -9 -18 -10 0 -14 0 -14 11 -7 11 -6 171 -4
172 -4 17 -6 16 -5 7 -73 7 -74 -13 -28 -14 -29 -185 -1 -185 -1 -27 -1 -28
-2 0 -123 0 -124 -18 -16 -19 -17 -111 0 -111 0 -7 11 -7 11 14 9 14 9 52 0
52 0 24 9 24 9 5 14 5 13 -8 95 -9 95 -5 69 -5 70 -13 8 -12 8 -44 0 -45 0
-55 -10 -56 -9 -60 -12 -60 -11 -38 -3 -39 -2 -18 -30 -18 -31 -23 -16 -23
-16 -86 0 -85 0 -98 -7 -98 -6 3 -26 3 -26 179 -7 179 -7 4 -5 5 -5 2 -93 1
-93 -119 -3 -119 -3 -16 15 -17 15 -99 3 -100 2 -33 -18 -34 -18 -135 4 -134
3 -10 17 -9 16 -20 -5 -20 -5 -16 13 -17 14 7 121 6 122 -6 16 -6 16 -19 0
-19 0 0 -69 0 -68 -52 -7 -53 -6 -85 0 -85 0 -40 -10 -40 -9 -80 -2 -80 -2
-25 -10 -25 -9 -42 -3 -43 -4 -20 -6 -20 -6 0 -47 0 -46 18 -20 19 -21 23 -70
22 -70 14 -60 13 -60 12 -55 12 -55 19 -16 20 -15 66 2 67 2 330 6 330 6 810
10 810 10 385 5 385 4 1355 6 1355 6 325 9 325 9 1555 6 1555 6 145 4 146 4
14 5 15 5 1025 7 1025 7 320 3 320 2 6 1 7 1 15 33 15 32 7 59 8 59 13 26 14
26 0 37 0 37 9 6 10 5 7 58 6 57 10 11 9 12 6 53 6 54 9 18 9 18 16 82 15 82
5 32 5 33 -23 8 -24 9 -105 -4 -105 -4 -75 -10 -75 -11 -320 -1 -320 -2 0 18
0 18 -15 9 -15 10 -25 0 -25 0 -14 -9 -14 -9 -6 -38 -6 -39 -42 -3 -42 -3 -16
25 -17 26 -77 -7 -76 -6 -12 -10 -13 -9 0 -19 0 -19 -102 0 -103 -1 -75 -11
-75 -11 -112 -2 -113 -3 0 11 0 10 17 20 18 19 -4 68 -3 68 19 6 18 5 151 0
151 -1 32 16 32 17 -6 9 -6 10 -27 14 -27 13 -20 -8 -20 -8 -162 0 -162 -1
-27 36 -27 35 -26 13 -26 13 -65 11 -65 12 -105 9 -105 9 -26 -14 -26 -13 -1
-78 -1 -78 -10 -45 -11 -45 0 -41 0 -42 13 -10 12 -10 70 -6 70 -7 18 -5 18
-6 -11 -13 -10 -13 -41 -6 -41 -7 -12 10 -12 10 -14 -9 -15 -10 -62 0 -63 0 0
19 0 19 -14 11 -14 11 -33 -2 -33 -3 -10 34 -10 33 13 73 12 73 -7 26 -6 26
-27 0 -26 0 -38 6 -37 7 7 21 8 21 -3 42 -2 42 22 15 22 16 166 0 166 0 18 13
18 13 -18 15 -17 14 -189 1 -190 2 -24 13 -25 13 -5 22 -6 22 -30 6 -31 6 -42
0 -43 0 -35 15 -36 15 -93 0 -93 0 -21 -6 -21 -6 -2 -61 -2 -62 -3 -27 -2 -28
-2 -47 -2 -47 -10 10 -9 9 -1 30 -2 30 7 78 6 79 -6 19 -6 19 -57 0 -57 0 -15
10 -15 9 35 15 35 14 -38 7 -37 7 -24 19 -24 19 -6 -15 -5 -15 -26 0 -26 0
-20 -11 -20 -10 12 -15 11 -14 24 0 23 0 -6 -36 -6 -37 16 -9 17 -9 0 -13 0
-13 -24 -22 -23 -22 -7 16 -6 17 0 25 0 25 -12 -4 -12 -4 -11 -34 -12 -35 -7
30 -8 30 -15 17 -16 18 12 14 12 14 -23 4 -23 3 -3 68 -3 69 12 14 11 14 27 0
27 0 19 14 19 14 3 83 4 84 -15 10 -14 11 -109 -3 -108 -3 -25 -31 -26 -30
-27 6 -27 7 -14 -12 -15 -11 -38 3 -38 3 -3 22 -3 22 25 7 26 6 0 17 0 16 -6
23 -6 22 -10 0 -10 0 -5 -20 -5 -20 -29 0 -30 0 23 31 23 30 -18 30 -17 31 0
48 0 49 -12 11 -13 10 -51 40 -52 40 -8 0 -9 0 -24 25 -23 25 -13 0 -13 0 -5
-20 -5 -20 -26 0 -26 0 0 19 0 20 15 15 16 16 -11 19 -10 20 0 13 0 14 32 12
32 12 33 -26 33 -25 28 3 27 3 3 18 3 17 -31 18 -31 17 6 20 7 20 5 23 5 22
-12 15 -12 15 -25 0 -25 0 7 18 8 17 4 27 5 26 -20 11 -20 11 -26 -21 -26 -20
0 -37 1 -37 14 -19 15 -19 -25 -23 -25 -23 -27 -13 -27 -13 -27 -47 -28 -47
10 -7 10 -6 0 -41 0 -42 0 -150 0 -150 11 -13 11 -13 -11 -11 -10 -10 4 -12 5
-12 -9 -25 -9 -24 -92 0 -92 -1 -9 -13 -8 -14 2 -76 2 -76 -4 -12 -4 -13 -38
0 -38 0 -10 13 -11 13 -16 154 -16 155 -9 85 -10 85 -10 29 -10 29 0 61 0 61
-15 70 -15 70 0 65 0 66 -15 58 -15 58 1 90 1 89 24 10 25 9 5 15 6 15 -11 13
-11 14 -30 -5 -30 -4 0 15 0 15 52 17 52 17 4 -12 5 -13 13 32 13 32 -36 50
-36 50 -15 -3 -16 -3 -9 -35 -9 -35 -9 -9 -9 -10 -11 11 -10 10 -6 39 -5 39
-5 65 -4 66 20 18 21 19 0 23 0 23 -19 11 -20 10 -3 27 -3 28 -22 10 -22 9 5
23 6 23 -16 0 -15 0 -1 -27z m772 -1295 l4 -13 -4 -72 -4 -73 -36 0 -37 0 -13
9 -13 8 3 33 3 33 35 11 35 12 -2 19 -2 20 4 13 4 12 10 0 9 0 4 -12z m105
-60 l12 -10 7 -35 7 -34 -10 -10 -9 -9 -31 6 -32 6 -5 15 -6 15 6 39 7 40 21
-7 21 -6 12 -10z m-1359 -176 l3 -22 -16 -6 -16 -7 -23 11 -22 10 -10 -13 -9
-13 -40 -6 -40 -7 28 26 28 25 17 0 17 1 20 15 20 15 20 -3 20 -3 3 -23z
m1375 0 l28 -19 -16 -13 -15 -12 0 -29 0 -29 -18 0 -18 0 -12 -12 -12 -12 -24
13 -24 14 -26 -7 -25 -6 -10 17 -9 17 -26 -13 -25 -14 -16 13 -16 13 3 36 3
36 31 10 32 10 83 3 84 2 28 -18z m487 -132 l0 -30 -21 -21 -22 -22 -65 7 -65
7 -26 -25 -26 -25 -75 -3 -75 -3 0 -17 0 -17 -11 -11 -11 -11 -44 3 -44 3 0
38 0 38 -15 9 -15 10 -30 0 -30 0 -12 -8 -11 -7 1 -38 1 -37 -13 -13 -12 -12
-132 -3 -132 -4 -35 9 -35 9 -3 64 -3 63 10 10 11 11 7 -8 7 -7 1 -47 0 -47
124 -3 123 -3 15 13 15 12 -6 37 -6 37 14 12 15 11 253 4 253 3 32 7 32 7 5
14 5 14 26 0 25 0 0 -30z m-1791 -36 l11 -25 -5 -10 -6 -9 -23 0 -24 0 -11
-13 -11 -14 -51 -1 -51 -1 -14 -12 -14 -11 -72 -5 -73 -4 -9 -10 -10 -9 -27 0
-28 0 -15 16 -16 15 0 20 0 19 20 0 19 0 9 16 9 17 82 3 83 3 24 16 25 16 17
-5 17 -4 45 8 45 7 21 2 21 1 12 -26z m1099 -11 l3 -23 -90 0 -90 0 -6 10 -7
11 13 15 12 15 81 -3 81 -3 3 -22z m-1081 -98 l6 -16 -19 -14 -19 -14 -40 0
-40 0 -35 19 -35 19 5 1 5 1 54 5 55 4 5 5 4 5 24 0 24 0 6 -15z m1563 -5 l0
-10 -15 0 -15 0 0 10 0 10 15 0 15 0 0 -10z m-1866 -58 l-29 -28 -38 -13 -38
-13 -14 19 -14 18 3 10 3 10 64 11 64 11 14 2 13 1 -28 -28z m1974 -52 l3 -54
-17 -13 -18 -13 -8 0 -8 0 -15 24 -16 24 16 38 16 38 12 8 12 8 10 -3 10 -4 3
-53z m-1660 28 l12 -12 0 -24 0 -24 15 -67 14 -66 12 -60 11 -60 9 -54 10 -54
10 -18 10 -19 -10 -19 -10 -18 -61 -6 -61 -7 -19 -10 -19 -10 -51 0 -52 0 -31
-14 -32 -14 -42 -5 -42 -5 -9 12 -9 11 -22 120 -22 120 -15 70 -14 70 -3 50
-2 50 26 1 26 1 13 8 13 8 86 15 86 14 67 6 66 7 8 8 7 7 7 0 6 0 12 -12z
m1370 -55 l3 -62 -20 -10 -20 -11 -310 -2 -311 -2 -5 6 -6 6 -6 55 -6 54 13 8
12 8 272 4 271 4 4 5 5 4 50 -2 51 -3 3 -62z m164 51 l30 -16 -5 -44 -5 -44
-12 -15 -12 -15 -54 0 -54 0 -10 26 -10 26 3 34 4 34 6 7 7 6 37 7 38 8 3 1 3
1 31 -16z m-892 -114 l0 -40 -10 0 -10 0 -16 25 -16 25 6 15 5 15 21 0 20 0 0
-40z m1408 -23 l3 -38 -12 -15 -11 -14 -29 0 -29 0 0 -9 0 -8 41 -6 41 -5 9
-9 8 -8 -6 -62 -6 -63 -9 0 -8 0 -12 25 -11 25 -26 1 -26 2 -25 1 -25 1 -3 37
-3 38 26 12 26 12 -6 15 -7 16 -5 32 -6 33 13 15 13 16 41 -3 41 -3 3 -38z
m325 25 l28 -12 40 0 40 0 53 -50 54 -51 -2 -57 -2 -57 -94 -7 -95 -8 -93 4
-94 4 -11 11 -11 11 22 0 22 0 1 13 1 12 -2 30 -2 30 -9 12 -10 11 11 7 10 6
0 48 0 48 6 6 6 6 52 -3 51 -3 28 -11z m-662 -42 l19 -11 0 -40 0 -41 -22 -19
-23 -19 15 -10 15 -10 -15 -10 -15 -10 -52 2 -53 1 -15 -13 -15 -12 0 -44 0
-44 -13 0 -13 0 -12 12 -11 11 -34 -18 -34 -18 -13 5 -13 4 1 120 1 119 1 8 0
7 25 0 25 0 2 -12 1 -13 2 -30 1 -30 2 -59 2 -59 8 7 7 8 5 91 5 92 45 13 45
13 15 9 15 9 38 0 38 1 20 -10z m-834 -28 l13 -8 6 -47 7 -47 -15 -5 -16 -6
-28 26 -27 26 -11 -4 -11 -4 0 -24 0 -24 23 -3 22 -3 0 -20 0 -19 -25 -10 -25
-10 0 -22 0 -23 -21 -13 -21 -13 -6 5 -5 6 0 90 0 90 17 19 16 18 0 10 0 11
13 5 12 5 35 1 35 1 12 -8z m414 -2 l29 0 0 -18 0 -18 17 -24 18 -25 2 -58 3
-58 -15 -5 -14 -6 -36 27 -35 27 0 19 0 19 -32 14 -33 14 -45 43 -45 44 65 6
65 5 13 -3 14 -3 29 0z m-303 -28 l4 -23 19 6 20 7 -2 -49 -2 -48 3 -10 2 -10
-1 -36 -1 -37 -21 -5 -21 -6 6 -19 7 -20 -18 -6 -17 -7 -13 18 -13 18 -20 -13
-20 -12 -24 0 -24 0 -16 6 -16 6 0 13 0 12 20 18 20 18 0 14 0 13 24 0 25 0 3
-22 3 -23 28 -3 27 -3 0 18 0 18 -19 28 -18 28 19 37 19 37 -21 17 -20 16 0
17 0 16 28 -3 27 -3 3 -23z m-278 -43 l0 -41 -12 4 -13 5 -3 17 -4 18 6 24 7
25 9 -6 10 -6 0 -40z m1168 9 l3 -18 -39 0 -39 0 -6 6 -6 6 6 15 6 14 36 -3
36 -3 3 -17z m-740 -29 l42 -41 0 -17 0 -18 -26 -27 -27 -26 -22 0 -23 0 -5
38 -5 37 -1 38 -2 38 6 9 6 10 7 0 7 0 43 -41z m732 -34 l0 -15 -19 0 -20 0
-5 9 -5 8 6 7 6 6 19 0 18 0 0 -15z m1350 -35 l19 -10 53 -8 53 -7 3 -30 4
-29 21 -31 22 -30 18 -39 18 -39 -11 -11 -10 -10 -171 -4 -171 -5 -8 13 -7 12
3 111 3 112 0 8 1 7 71 0 70 0 19 -10z m-1384 -19 l12 -1 4 -18 5 -18 -9 -23
-8 -23 -33 5 -32 5 -17 -15 -18 -16 -4 14 -4 14 -6 18 -5 17 -10 0 -9 0 -6
-25 -6 -25 -15 0 -15 0 -16 25 -17 26 18 19 18 20 18 0 17 0 5 -12 5 -13 15
15 16 15 43 -1 43 -1 11 -2z m-561 -36 l35 -34 -12 -8 -13 -7 -20 -3 -20 -2
-52 -4 -53 -4 0 17 0 18 35 31 36 31 15 0 15 0 34 -35z m638 -11 l-3 -38 -9
-9 -9 -9 -12 36 -12 37 13 15 12 15 11 -4 11 -4 -2 -39z m67 21 l-12 -15 -17
1 -16 0 23 9 22 9 0 12 0 12 6 -6 7 -7 -13 -15z m-5830 1 l0 -15 -9 -6 -10 -5
-6 10 -6 10 6 10 6 10 10 0 9 0 0 -14z m6054 -23 l7 -16 -13 -9 -13 -8 -25 2
-25 3 -3 23 -3 22 34 0 35 0 6 -17z m84 -11 l4 -12 -21 0 -21 0 0 8 0 9 7 7 7
6 10 -3 10 -3 4 -12z m-214 -1 l6 -9 -16 -6 -16 -6 -9 6 -9 5 5 10 6 9 14 0
14 0 5 -9z m600 -47 l16 -15 0 -108 0 -108 -187 -9 -188 -9 -32 8 -32 8 -3
105 -3 106 11 9 10 8 170 7 169 6 4 4 4 4 23 0 23 0 15 -16z m-476 -13 l13 -8
-2 -102 -2 -102 -11 -14 -11 -14 -35 -6 -35 -6 -20 15 -20 14 -3 108 -4 107
14 8 13 9 45 0 45 0 13 -9z m-6690 -71 l12 -70 0 -48 0 -48 -16 -23 -17 -23
-149 5 -148 6 -12 7 -11 7 6 69 6 70 16 24 16 25 31 19 31 19 64 7 63 6 6 9 5
9 43 0 42 0 12 -70z m760 38 l3 -27 -23 -15 -23 -14 -78 2 -77 3 -11 -14 -12
-13 -13 11 -13 11 -21 -7 -21 -7 -14 12 -13 11 -7 -10 -6 -11 -92 3 -92 4 -23
12 -22 12 0 33 0 34 278 -1 277 -2 3 -27z m5159 21 l12 -12 47 12 48 12 11
-14 11 -15 36 -20 35 -20 17 16 16 16 59 3 59 3 6 -35 7 -34 11 -7 10 -7 9 14
9 14 0 28 0 27 38 0 38 0 22 -16 23 -16 18 16 18 16 22 0 21 0 -5 -97 -6 -97
-9 -11 -10 -12 -342 -8 -343 -8 -30 -1 -30 -1 -10 -6 -10 -6 -130 1 -130 1 -6
30 -7 30 -1 91 -1 92 31 6 32 6 161 1 161 1 30 8 30 8 6 1 5 1 11 -11z m-5849
-176 l-1 -73 -14 0 -13 0 0 73 0 72 7 55 7 55 8 -55 7 -55 -1 -72z m4543 97
l17 -35 -9 -17 -9 -18 20 -12 20 -13 0 -12 0 -13 -8 0 -8 0 -24 17 -25 18 -33
16 -32 17 -20 -5 -20 -5 0 19 0 19 -12 12 -11 11 12 15 13 15 41 4 42 4 15 -1
15 -1 16 -35z m749 -15 l35 -11 0 -69 1 -69 -18 -18 -18 -18 -48 4 -47 4 -11
1 -12 1 -12 86 -12 86 8 8 9 9 35 3 35 3 10 -5 10 -5 35 -10z m-1114 -17 l8
-12 -12 -4 -12 -4 -16 -30 -15 -30 -20 18 -19 17 0 23 0 23 28 4 27 4 12 2 12
1 7 -12z m206 -22 l73 -35 23 -19 22 -20 0 -21 0 -21 -14 0 -14 0 -5 13 -4 12
-14 -11 -14 -11 -152 -1 -152 -1 -7 11 -7 11 38 34 37 33 12 0 11 1 29 29 29
30 18 0 18 0 73 -34z m690 22 l5 -13 -2 -68 -2 -68 -10 -10 -10 -10 -63 3 -62
3 -4 74 -3 75 11 13 10 13 63 0 63 0 4 -12z m-4547 -28 l10 -8 0 -64 0 -63
-24 3 -24 2 -12 -10 -13 -11 -8 12 -7 12 -1 41 -1 41 -15 0 -15 0 0 -60 0 -60
-19 -3 -18 -4 -10 10 -9 9 15 16 16 16 -11 6 -11 7 6 21 5 21 -16 18 -16 18
-23 -6 -24 -6 0 11 0 11 -12 0 -12 0 -23 -22 -24 -22 -9 14 -10 15 0 17 0 17
20 6 19 6 56 -2 55 -2 4 4 4 4 73 -3 73 -3 11 -9z m9305 3 l0 -18 -14 -45 -13
-45 -21 -10 -22 -10 0 -19 0 -18 15 12 14 12 7 -26 6 -25 -18 -53 -18 -53 2
-20 1 -20 -16 -37 -17 -38 -65 -1 -66 -1 -93 -3 -94 -3 -5 -6 -6 -6 -15 12
-14 12 -9 -17 -10 -17 -10 0 -9 0 -10 26 -10 25 -10 -6 -10 -6 0 -15 0 -14
-11 0 -12 0 -13 18 -13 17 -15 -20 -15 -20 -13 17 -13 17 -45 -9 -45 -8 -15 8
-16 9 -14 -9 -14 -9 -15 8 -16 8 -38 -3 -38 -2 -14 -12 -15 -12 -52 2 -53 3
-58 1 -59 1 -12 -17 -13 -18 -8 0 -7 0 5 19 4 18 -18 -4 -19 -5 -14 11 -14 12
-7 -11 -7 -12 -25 5 -24 4 -47 -9 -47 -10 -14 -12 -14 -11 7 23 7 22 -18 -7
-18 -6 -17 -21 -17 -21 -6 18 -7 17 -13 0 -13 0 -6 -15 -5 -15 -11 0 -10 0 0
15 0 15 -15 0 -15 0 0 -10 0 -10 20 -20 20 -20 10 0 10 0 0 15 0 15 15 0 15 0
0 -14 0 -14 15 -6 15 -5 0 -11 0 -10 -15 0 -15 0 0 15 0 15 -15 0 -15 0 0 -20
0 -20 -15 0 -15 0 0 -10 0 -10 15 0 15 0 0 10 0 10 15 0 15 0 0 -10 0 -10 15
0 15 0 0 -7 0 -8 10 -15 9 -15 15 20 15 20 6 -17 7 -18 14 0 14 0 0 15 0 15
15 0 15 0 0 -15 0 -15 15 0 15 0 0 15 0 15 11 0 11 0 5 -20 5 -20 9 0 9 0 10
25 10 25 9 0 9 0 5 -20 5 -20 11 0 11 0 0 20 0 20 -10 0 -10 0 -20 20 -20 20
0 10 0 10 14 0 14 0 6 15 5 15 11 0 10 0 0 -15 0 -15 13 0 13 0 12 12 12 12 0
-21 0 -21 15 -12 15 -12 0 -9 0 -9 -20 0 -20 0 0 -14 0 -15 10 -6 10 -6 0 -20
0 -19 -14 0 -14 0 -6 13 -5 12 -16 -20 -16 -20 -19 25 -19 25 -10 -28 -11 -27
-8 0 -8 0 -11 28 -11 27 -7 -22 -7 -23 -12 0 -12 0 -11 11 -11 11 -14 -8 -13
-8 -37 -2 -38 -2 -6 10 -6 9 -19 -17 -19 -17 -14 19 -15 19 -7 -18 -7 -19 -36
7 -36 7 -13 10 -13 11 5 13 5 13 -17 10 -17 10 28 10 27 11 0 14 0 14 -12 4
-12 4 7 17 6 17 21 0 20 0 -15 24 -16 24 -30 6 -29 6 -171 -15 -171 -14 -47 9
-46 10 -30 -9 -30 -9 13 -1 12 -1 0 -20 0 -20 15 0 14 0 11 -19 10 -20 0 -4 0
-5 -25 11 -25 12 0 13 0 12 -15 0 -15 0 0 -15 0 -15 -14 0 -14 0 -5 -12 -4
-13 -26 14 -27 14 0 14 0 13 15 0 15 0 0 -15 0 -15 15 0 15 0 0 15 0 15 15 0
15 0 0 19 0 19 -22 7 -23 6 -385 3 -385 2 -34 -7 -34 -7 -19 11 -19 12 -8 -13
-8 -14 -23 14 -23 13 -4 -12 -5 -13 -13 0 -13 0 -5 13 -4 12 -20 -12 -20 -12
-12 12 -11 11 -19 -11 -18 -12 -11 11 -12 12 -20 -19 -20 -18 -6 17 -6 16 -13
0 -13 0 -7 -17 -6 -18 -15 20 -14 20 -20 -12 -19 -12 -28 14 -27 14 -26 -6
-25 -6 -7 -11 -8 -11 0 13 0 12 -16 0 -17 0 -13 -17 -13 -18 -6 18 -7 17 -13
0 -13 0 -6 -16 -6 -16 -18 4 -17 5 -3 -49 -3 -48 -9 -25 -9 -24 -36 6 -35 6 0
-12 0 -11 32 -20 32 -19 -28 -11 -27 -10 -25 0 -25 0 -20 10 -19 11 0 14 0 13
-45 18 -45 17 -7 -7 -7 -7 14 -9 15 -9 -11 -18 -11 -18 -17 -3 -16 -3 -16 16
-16 16 7 7 8 7 4 -12 5 -13 19 0 19 0 0 15 0 15 -15 0 -15 0 0 15 0 15 10 0
10 0 0 15 0 15 -10 0 -10 0 0 15 0 15 10 0 9 0 10 -17 10 -18 6 18 7 17 13 0
13 0 6 13 5 12 14 -17 14 -18 12 0 11 0 0 -10 0 -10 15 0 15 0 0 9 0 9 -15 6
-15 5 0 15 0 14 -15 6 -15 5 0 14 0 14 -24 11 -24 10 -10 -10 -10 -10 -20 11
-20 11 -6 -15 -5 -15 -16 0 -15 0 0 -10 0 -10 -15 0 -15 0 0 10 0 10 -15 0
-15 0 0 -10 0 -10 -15 0 -15 0 0 9 0 9 -23 4 -24 5 -24 -10 -24 -10 -27 2 -28
1 0 -10 0 -10 -14 0 -14 0 -5 13 -4 12 -20 -12 -20 -11 -15 14 -15 15 -37 -7
-37 -7 10 -10 11 -11 0 -13 0 -13 -22 0 -23 0 -15 10 -15 10 13 9 14 8 -24 6
-23 7 -45 0 -46 0 -12 -12 -12 -12 0 -19 0 -19 -14 11 -14 12 -16 -23 -17 -23
-9 15 -10 15 0 26 0 27 -21 5 -20 6 -37 -6 -37 -6 -11 -15 -10 -14 -13 16 -13
16 -20 0 -19 0 6 -20 6 -20 -10 0 -11 0 0 -12 0 -13 -25 -23 -25 -24 -6 16 -6
16 -14 0 -14 0 0 -15 0 -15 15 0 15 0 0 -15 0 -15 15 0 15 0 0 -15 0 -15 -15
0 -15 0 0 -15 0 -15 -15 0 -15 0 0 -10 0 -10 -14 0 -14 0 -5 13 -4 12 -22 -13
-23 -13 -12 10 -13 11 -6 -7 -7 -6 -75 -2 -75 -2 0 8 0 9 15 0 15 0 0 15 0 15
-14 0 -14 0 -7 -17 -6 -18 -14 19 -14 19 -18 -7 -18 -7 19 -15 20 -14 -5 -4
-5 -5 -42 10 -42 9 -20 -12 -20 -12 -11 11 -12 12 -20 -12 -20 -12 -4 13 -5
12 -14 0 -14 0 0 15 0 15 15 0 15 0 0 -15 0 -15 9 0 10 0 6 10 6 10 -15 6 -16
6 0 14 0 14 -15 0 -15 0 0 -12 0 -13 -24 -11 -25 -11 -9 9 -10 10 -13 -7 -12
-8 18 -14 19 -13 -5 -1 -4 -1 -40 -3 -40 -2 -12 9 -11 9 -6 -9 -5 -9 -218 -3
-218 -3 -47 1 -48 1 -36 35 -36 34 -38 7 -39 7 -21 -7 -21 -7 3 -21 3 -22 38
-3 37 -3 0 -8 0 -7 -130 2 -131 2 -5 5 -6 6 -20 -12 -21 -12 -4 13 -5 12 -13
0 -13 0 -5 -12 -4 -13 -26 14 -27 14 0 14 0 13 10 0 10 0 0 15 0 16 -16 -9
-17 -9 -18 4 -19 5 0 -11 0 -11 10 0 10 0 0 -15 0 -15 -10 0 -10 0 0 10 0 11
-17 6 -18 7 -12 15 -12 16 -6 -17 -7 -18 -10 0 -11 0 -13 18 -13 17 -6 -17 -7
-18 -14 0 -14 0 0 10 0 10 20 20 20 20 10 0 10 0 0 9 0 10 -10 6 -10 6 -6 -15
-6 -16 -14 0 -14 0 0 -15 0 -15 -15 0 -16 0 -5 -15 -6 -15 -9 0 -9 0 0 15 0
15 10 0 10 0 0 13 0 12 -20 13 -20 12 -20 -12 -20 -13 0 -12 0 -13 -15 0 -15
0 0 19 0 19 -26 6 -26 7 -16 -13 -17 -12 -19 -19 -18 -18 7 -7 8 -7 4 13 5 12
19 0 19 0 0 -15 0 -15 -15 0 -15 0 0 -10 0 -10 15 0 15 0 0 10 0 10 15 0 15 0
0 -15 0 -15 15 0 15 0 0 -9 0 -10 -11 -7 -11 -7 -10 14 -10 14 -5 -12 -5 -13
-23 0 -23 0 -4 11 -3 10 -45 -10 -45 -11 -37 0 -37 0 -6 10 -7 11 10 12 9 12
6 32 6 31 -15 13 -16 13 -62 2 -61 2 -12 -10 -11 -9 -22 13 -21 13 -9 -15 -9
-14 -19 17 -19 17 -6 0 -7 0 0 -15 0 -15 -26 0 -27 0 -33 -21 -34 -21 0 -9 0
-9 -14 0 -14 0 -6 15 -5 15 -11 0 -10 0 0 -15 0 -15 -15 0 -15 0 0 10 0 10
-11 0 -10 0 5 -22 6 -23 -6 13 -6 12 -19 0 -19 0 0 15 0 15 -15 0 -15 0 0 -10
0 -11 15 -5 15 -6 0 -14 0 -14 15 0 15 0 0 -15 0 -15 -15 0 -15 0 0 15 0 15
-11 0 -12 0 -11 -14 -11 -14 -25 -7 -25 -8 13 16 13 15 -10 6 -9 6 -16 -6 -16
-6 0 -14 0 -14 -16 0 -16 0 6 15 5 15 -19 0 -20 0 0 -21 0 -20 -17 3 -18 4 1
17 2 17 -13 0 -13 0 2 -17 1 -17 -61 -3 -61 -3 -13 25 -13 25 -13 0 -13 0 -6
10 -7 11 11 13 11 12 -9 10 -8 9 -6 25 -6 25 7 11 7 10 100 -2 100 -1 18 -1
17 -2 0 -15 0 -16 15 -5 14 -6 16 16 16 16 -3 21 -3 22 11 4 11 4 10 -23 11
-23 38 -20 39 -20 12 -15 12 -15 6 18 7 17 14 0 14 0 0 15 0 15 -15 0 -15 0 0
-15 0 -15 -15 0 -15 0 0 15 0 14 20 11 21 11 27 -3 27 -3 -3 -17 -3 -18 16 0
15 0 0 15 0 15 26 6 25 7 11 -11 12 -12 12 11 12 10 21 -13 21 -13 15 20 15
20 11 -18 11 -18 12 10 13 11 147 1 148 0 4 -4 5 -4 -10 -25 -10 -25 14 -39
13 -39 16 -3 16 -3 0 15 0 16 -15 0 -15 0 0 10 0 11 15 5 15 6 -6 33 -6 33 22
12 21 11 32 -6 32 -7 12 -10 11 -9 6 9 6 9 45 -1 46 -1 19 -25 19 -25 12 12
12 12 -16 7 -17 6 0 14 0 14 23 1 22 1 18 -2 18 -1 14 11 13 11 7 -10 6 -10
35 1 35 1 11 -11 11 -11 -13 -16 -12 -15 16 0 16 0 11 24 11 24 38 -2 38 -2
15 -13 16 -12 11 20 11 21 10 0 10 0 9 -22 9 -23 2 10 2 10 1 15 1 15 23 3 22
3 0 -10 0 -11 24 0 24 0 5 13 5 12 16 -20 17 -20 16 23 16 23 18 -17 18 -16
12 8 13 7 51 2 51 1 11 7 12 7 6 -10 7 -11 28 6 28 6 7 -11 6 -10 17 9 16 9
20 -12 21 -11 11 -14 11 -14 7 11 6 11 -10 6 -10 6 0 8 0 7 38 0 37 0 7 -10 7
-11 13 13 12 12 13 0 13 0 0 -20 0 -20 10 0 9 0 11 21 11 20 12 -4 12 -4 0
-19 0 -19 15 0 15 0 0 20 0 20 23 3 23 4 29 -11 30 -10 5 10 6 9 30 0 29 0 41
-12 40 -13 -6 -22 -5 -23 15 0 15 0 1 -17 1 -18 5 13 5 12 15 0 16 0 13 -17
13 -18 6 18 7 17 14 0 14 0 0 -10 0 -10 15 0 15 0 0 15 0 15 15 0 15 0 0 -15
0 -14 -16 -9 -17 -9 7 -12 7 -11 20 0 19 0 0 28 0 27 -9 14 -9 14 -27 -7 -26
-7 3 22 3 22 17 11 17 10 19 -17 19 -17 14 0 14 0 -14 9 -14 9 6 16 6 16 22 0
21 0 -4 12 -4 12 -25 18 -24 18 -70 -12 -70 -12 -155 2 -155 2 -115 -1 -115
-1 -85 -3 -85 -3 -385 1 -385 0 -160 -1 -160 -2 -120 -5 -120 -6 -150 2 -150
2 -25 -2 -25 -1 -33 0 -33 0 -27 15 -27 14 32 7 33 6 11 14 12 14 14 -11 13
-12 37 -3 36 -3 14 8 14 8 -16 13 -17 14 -18 -12 -18 -11 -6 15 -6 16 0 44 0
45 -12 3 -13 4 -62 6 -61 5 -5 -13 -5 -14 9 -41 9 -41 -15 -24 -15 -23 -41
-18 -40 -18 -10 10 -10 10 -6 90 -6 89 12 22 12 22 244 0 244 0 6 -10 6 -10
-22 -48 -23 -47 -30 -32 -29 -33 -13 11 -13 11 -11 -7 -10 -6 0 -14 0 -14 18
-5 17 -5 65 7 65 7 49 -7 50 -7 12 10 12 10 33 0 34 0 260 -1 260 0 13 0 12 0
15 0 15 0 13 0 12 0 165 5 165 4 377 5 377 6 68 9 68 10 445 1 445 2 25 -1 25
0 51 14 51 15 13 15 12 15 18 0 18 0 49 48 49 47 15 22 14 21 345 7 345 7 5 3
5 3 260 6 260 7 244 4 243 5 8 5 8 5 178 6 179 5 135 10 135 10 106 6 106 6 6
-29 6 -30 41 -27 42 -27 10 0 11 0 13 -17 13 -18 1 16 0 17 -32 31 -31 31 11
24 11 24 138 6 138 6 80 10 80 10 118 0 118 0 20 10 19 11 167 5 168 5 110 10
110 10 230 6 230 6 15 8 15 8 28 1 27 0 0 -17z m-9176 -1 l5 -8 2 -66 3 -67
-6 -6 -7 -7 -35 13 -36 13 -1 26 -2 25 3 35 2 35 12 7 11 8 22 0 22 0 5 -8z
m868 -10 l10 -10 -4 -23 -3 -24 -94 0 -94 0 -10 29 -9 28 13 9 14 9 83 -4 83
-3 11 -11z m-359 -37 l-5 -16 -11 4 -11 3 -4 12 -4 12 21 0 20 0 -6 -15z
m2096 -14 l15 -10 -26 -6 -27 -7 -11 7 -10 6 5 10 6 9 17 0 17 0 14 -9z m223
-6 l3 -10 -72 -3 -73 -3 0 9 0 9 4 4 4 4 66 0 66 0 2 -10z m103 5 l20 -8 -17
-7 -18 -7 -16 6 -15 6 6 10 6 10 7 -1 7 0 20 -9z m-445 -10 l0 -10 -37 0 -38
0 -15 10 -15 10 53 0 52 0 0 -10z m-842 -8 l12 -2 0 -9 0 -9 -52 -4 -53 -4 -9
7 -8 7 5 9 6 9 43 -1 43 -2 13 -1z m190 -18 l-6 -6 -29 4 -28 4 25 11 25 11 9
-9 10 -9 -6 -6z m-2161 -36 l-2 -41 -12 -5 -13 -4 1 44 2 43 4 8 4 7 9 -5 9
-5 -2 -42z m809 19 l1 -2 10 -19 11 -19 6 21 7 22 7 0 7 0 28 -19 29 -19 -23
-21 -23 -21 -9 0 -10 0 -12 17 -12 17 -12 -22 -12 -22 -18 9 -18 10 -21 -6
-22 -5 0 35 0 36 18 10 17 11 25 -6 25 -6 1 -1z m-2264 -2 l13 -5 0 -135 -1
-134 -6 -7 -7 -6 -159 -1 -158 0 -13 7 -12 8 5 75 6 75 25 20 25 19 0 13 0 13
25 11 26 12 22 0 22 1 75 18 75 19 12 1 11 1 14 -5z m2042 -1 l16 -6 0 -34 0
-34 -30 0 -30 0 0 33 0 34 7 6 6 7 8 0 7 0 16 -6z m104 -37 l3 -38 -32 3 -33
3 1 28 1 27 1 11 1 10 28 -3 27 -3 3 -38z m-182 11 l-6 -23 0 -10 0 -10 -10
15 -10 15 0 18 0 17 16 0 16 0 -6 -22z m602 -10 l-3 -33 -25 0 -25 0 -3 18 -4
18 6 15 5 14 26 0 26 0 -3 -32z m3322 22 l0 -10 -14 0 -15 0 -6 10 -6 10 20 0
21 0 0 -10z m-650 -21 l15 -1 -35 -9 -35 -8 -20 6 -20 6 20 8 20 8 20 -4 20
-5 15 -1z m125 1 l6 -10 -26 0 -26 0 6 10 6 10 14 0 14 0 6 -10z m-2691 -9 l6
-9 -15 -12 -14 -12 -10 6 -10 7 6 14 5 15 13 0 14 0 5 -9z m1830 -47 l16 -6 0
-19 0 -18 11 -23 10 -23 -13 -40 -13 -40 -13 1 -12 1 -32 2 -31 1 16 18 17 18
2 60 2 59 10 7 11 8 2 0 1 0 16 -6z m595 -20 l21 -27 0 -26 0 -26 -6 -22 -6
-21 -34 -6 -34 -7 -19 11 -20 10 -3 33 -3 32 10 30 10 30 10 7 10 8 22 0 22 0
20 -26z m148 18 l12 -7 6 -51 7 -51 -20 -15 -21 -14 -35 4 -35 4 -7 32 -6 33
4 29 3 29 30 6 30 7 10 1 10 1 12 -8z m471 -44 l3 -47 -21 -21 -21 -21 -117 3
-117 3 -3 53 -3 54 12 14 12 15 126 -3 126 -3 3 -47z m-1803 -49 l0 -63 -35
-8 -35 -8 -47 6 -47 6 -6 19 -7 20 12 14 12 15 -6 16 -6 17 15 24 16 24 17 -5
17 -6 13 9 14 8 36 -13 37 -12 0 -63z m367 73 l13 3 5 -63 5 -63 13 -8 14 -8
-39 -6 -38 -7 -51 0 -52 0 -13 16 -13 15 3 52 2 52 10 10 9 9 34 -2 34 -3 7
11 6 10 19 -10 19 -10 13 2z m334 -7 l6 -25 -12 -15 -12 -15 -14 0 -13 0 -4 8
-4 7 9 33 9 32 14 0 15 0 6 -25z m110 -10 l-6 -16 -22 3 -21 3 -5 13 -4 12 24
9 23 9 9 -8 9 -9 -7 -16z m245 -2 l4 -38 -3 -32 -3 -31 -24 -16 -23 -15 -32
29 -32 30 7 48 7 47 5 8 4 7 44 0 43 0 3 -37z m1099 17 l10 -15 0 -32 0 -32
-11 -7 -11 -7 -79 1 -79 0 -6 -9 -5 -9 -19 12 -20 12 -11 -11 -12 -12 -23 16
-24 15 0 29 0 29 18 18 17 17 123 0 123 0 9 -15z m138 8 l12 -12 0 -31 0 -31
-12 -12 -12 -12 -26 0 -26 0 -18 13 -18 13 7 42 7 42 37 0 37 0 12 -12z m111
3 l14 -9 -7 -26 -6 -25 -21 -11 -20 -11 -15 12 -14 11 0 25 0 24 23 9 22 9 5
0 5 1 14 -9z m-4692 -12 l193 0 9 5 9 6 25 -20 25 -20 80 0 81 0 6 -9 6 -10 0
-102 0 -101 -3 -3 -3 -4 -40 -3 -39 -3 -4 19 -4 19 22 17 22 17 -16 31 -17 32
-41 0 -41 0 -17 -15 -17 -16 -12 15 -13 15 -21 -12 -22 -12 -13 -15 -13 -15 3
25 3 25 -35 0 -35 0 -9 -27 -10 -28 29 -30 29 -30 -7 -6 -6 -6 -100 -1 -101
-2 -2 10 -3 10 30 3 30 3 14 5 14 4 -18 20 -17 19 6 9 6 10 -6 15 -5 14 -56 7
-56 7 -8 -13 -8 -12 -25 14 -26 13 -6 -6 -7 -6 -16 9 -17 9 -12 -8 -13 -8 3
-31 3 -31 -10 -3 -10 -3 3 38 4 37 -21 0 -20 0 -6 -19 -6 -19 7 -29 7 -28 19
-13 18 -13 -5 -10 -6 -9 -28 0 -29 0 -29 6 -30 6 3 101 3 102 37 34 36 34 82
-7 81 -6 192 -1z m2069 -3 l15 -6 -3 -67 -3 -68 -130 0 -130 0 -5 30 -5 30
-15 0 -15 0 2 -28 2 -28 -30 -6 -29 -6 -5 -8 -5 -8 -28 15 -27 14 -14 0 -13 0
12 15 12 15 -5 20 -5 20 10 6 9 6 9 22 9 21 0 -17 1 -18 18 0 18 0 11 11 11
11 12 -22 11 -21 22 3 22 3 3 27 3 27 25 8 24 8 95 -2 96 -1 15 -6z m-3166
-21 l15 -13 35 -4 35 -3 2 -102 3 -102 -10 -6 -10 -6 -156 -2 -156 -2 -14 20
-15 20 7 50 8 50 -2 32 -2 32 10 25 9 25 88 4 88 3 25 -4 25 -4 15 -13z m3566
-32 l2 -52 -22 -20 -21 -20 -30 4 -30 4 -6 0 -6 1 3 38 3 37 0 33 1 33 53 -3
52 -3 1 -52z m1299 13 l9 -38 -23 -19 -23 -19 -13 0 -12 0 -18 20 -18 20 1 30
1 30 5 8 5 9 38 -1 38 -2 10 -38z m-2827 -81 l3 -110 -18 -12 -17 -13 -127 0
-127 0 -7 60 -7 60 7 51 7 50 14 6 15 5 6 -6 7 -6 0 -53 1 -52 9 -13 8 -14 19
5 19 5 6 -9 5 -9 13 0 12 0 23 21 23 22 -7 64 -7 64 59 -3 58 -3 3 -110z
m-1574 89 l16 -6 0 -43 0 -43 -16 -13 -16 -13 -34 3 -35 3 -31 9 -32 9 -7 -12
-8 -12 -24 11 -25 11 -11 -11 -11 -11 0 -19 0 -20 25 -23 25 -23 0 -9 0 -10
-22 -5 -23 -5 -40 3 -40 4 -11 0 -11 1 -6 48 -6 47 6 62 6 62 16 4 16 5 142 1
141 1 16 -6z m140 -4 l25 -9 -2 -108 -2 -108 -40 -3 -40 -2 -15 9 -14 10 -4
102 -4 101 13 9 14 9 22 0 22 0 25 -10z m1102 -2 l8 -12 -2 -100 -2 -100 -9
-9 -9 -9 -66 7 -66 7 0 107 0 108 7 6 6 7 63 0 63 0 7 -12z m455 -33 l-3 -40
-5 -7 -4 -8 -34 27 -33 27 16 23 17 23 25 -3 25 -2 -4 -40z m1734 26 l0 -14
-20 -13 -20 -13 -24 18 -24 18 7 11 6 11 38 -3 37 -2 0 -13z m-2005 -41 l0
-18 -16 -6 -16 -6 -9 0 -9 0 0 12 0 11 16 18 17 19 8 -6 9 -5 0 -19z m2308 3
l3 -22 -11 -20 -11 -21 -44 0 -44 0 -11 21 -12 21 4 3 3 3 45 21 45 21 15 -3
15 -2 3 -22z m-6235 -22 l10 -10 -12 -15 -12 -15 -32 0 -32 0 -27 5 -27 5 10
23 11 23 50 -3 50 -2 11 -11z m142 9 l7 -11 -12 -14 -12 -15 -29 0 -29 0 0 19
0 20 18 4 17 5 17 1 17 1 6 -10z m4322 -6 l6 -16 -14 -13 -14 -14 -30 -3 -30
-3 3 20 3 20 4 13 4 12 31 0 31 0 6 -16z m1853 6 l0 -10 -27 0 -28 0 15 10 15
10 13 0 12 0 0 -10z m-6503 -36 l4 -12 -33 -6 -33 -6 -37 -5 -38 -4 0 6 0 6
15 17 15 17 52 -1 51 -1 4 -11z m3640 -20 l6 -15 -12 -12 -11 -11 -11 11 -12
12 6 15 6 16 11 0 11 0 6 -16z m746 2 l5 -14 -10 -10 -10 -10 -14 5 -14 5 0
13 0 13 13 5 12 5 6 1 7 1 5 -14z m-4588 -5 l5 -10 -10 -6 -11 -7 -17 7 -16 6
14 9 15 10 7 0 7 0 6 -9z m3425 -32 l0 -9 -20 0 -20 0 0 4 0 4 6 16 6 17 14
-12 14 -11 0 -9z m-3052 2 l13 -8 -24 -16 -25 -16 -18 14 -19 15 15 10 15 10
15 0 15 0 13 -9z m120 -24 l3 -17 -20 0 -21 0 0 13 0 14 7 7 7 6 10 -3 11 -4
3 -16z m3290 1 l12 -12 0 -17 0 -17 -16 -6 -17 -6 -34 6 -35 7 -5 13 -5 14 12
15 12 15 32 0 32 0 12 -12z m-426 -15 l18 -16 0 -14 0 -13 -44 0 -45 0 -7 11
-7 12 24 18 24 19 9 0 9 0 19 -17z m9058 2 l0 -15 -10 0 -10 0 0 -15 0 -15 10
0 10 0 0 -20 0 -20 -10 0 -10 0 0 -10 0 -10 -20 -20 -20 -20 -27 0 -28 0 -14
9 -14 9 17 17 17 18 12 -12 11 -11 13 0 13 0 0 16 0 17 -17 13 -18 13 18 6 17
7 0 14 0 14 15 0 15 0 0 15 0 15 15 0 15 0 0 -15z m-9570 -19 l0 -24 -37 2
-38 2 -2 7 -3 7 0 9 0 10 18 4 17 5 23 1 22 1 0 -24z m9170 -16 l0 -10 -15 0
-15 0 0 4 0 4 -7 17 -6 17 21 -11 22 -12 0 -9z m-108 3 l15 -18 7 -27 6 -28
16 0 15 0 5 15 6 15 20 0 20 0 5 -20 5 -20 14 0 14 0 0 20 0 20 15 0 15 0 0
-20 0 -20 14 0 15 0 3 22 3 21 12 4 11 4 4 -23 3 -23 22 0 23 0 15 -22 16 -23
27 0 27 0 14 -9 15 -9 -37 -7 -37 -7 -133 6 -132 6 -100 12 -100 13 0 19 0 20
33 8 33 9 -6 19 -6 19 11 21 11 20 23 0 23 0 15 -17z m377 -13 l11 0 0 -12 -1
-13 -19 -23 -19 -24 -11 7 -10 6 0 11 0 11 18 13 17 14 -18 11 -17 10 6 11 7
11 12 -16 12 -17 12 0z m-3049 10 l0 -10 14 0 15 0 7 -11 7 -11 -28 -24 -28
-24 -25 25 -25 25 19 20 19 19 13 0 12 1 0 -10z m540 1 l0 -10 33 -3 32 -3 3
-38 3 -38 15 12 14 12 8 -8 7 -8 -12 -4 -13 -5 0 -19 0 -19 10 0 10 0 0 -14 0
-14 -17 -7 -18 -8 -139 3 -140 2 -28 26 -28 27 0 34 0 33 13 -9 12 -10 38 -7
37 -7 6 16 6 15 14 0 14 0 0 -13 0 -13 18 -14 17 -15 52 3 51 3 18 -31 18 -30
18 0 18 0 0 15 0 15 -14 0 -13 0 -23 30 -23 30 -18 0 -19 0 0 5 0 5 13 21 12
22 -12 4 -13 5 0 9 0 9 10 0 10 0 0 -9z m-1290 -26 l0 -15 15 0 15 0 0 -15 0
-15 20 0 20 0 0 -11 0 -10 21 6 20 7 -13 -24 -13 -23 -10 -7 -10 -7 13 -21 12
-20 -10 0 -10 0 0 10 0 10 -20 0 -20 0 0 -15 0 -15 -10 0 -11 0 -5 15 -6 15
-14 0 -14 0 0 15 0 15 15 0 15 0 0 -15 0 -15 15 0 15 0 0 14 0 14 -17 7 -18 6
18 13 17 13 0 12 0 11 -15 0 -15 0 0 -10 0 -10 -15 0 -15 0 0 10 0 10 -14 0
-14 0 -6 -16 -6 -17 -20 18 -20 18 1 11 1 11 5 -12 5 -13 14 0 15 0 5 15 6 15
10 0 11 0 13 -17 12 -18 9 8 8 9 -18 12 -17 13 0 12 0 11 15 0 15 0 0 -15z
m238 4 l-3 -10 -10 0 -9 0 -4 10 -4 11 17 0 17 0 -4 -11z m962 -10 l0 -9 -15
0 -15 0 0 8 0 9 6 6 7 6 8 -5 9 -5 0 -10z m334 15 l16 -6 0 -14 0 -13 -20 -11
-20 -11 -10 6 -10 6 -19 -10 -19 -11 -5 22 -6 22 11 13 10 13 28 0 28 0 16 -6z
m296 -24 l0 -20 25 -12 25 -11 0 -9 0 -8 -39 0 -39 0 -5 -12 -4 -13 -9 8 -8 8
13 8 13 8 1 37 1 36 13 0 13 0 0 -20z m770 1 l-10 -20 0 -6 0 -6 30 -10 30
-11 -6 -9 -6 -10 11 -13 11 -13 -18 -15 -17 -15 -45 -6 -45 -6 -33 12 -33 11
-9 -14 -9 -14 -8 7 -7 8 14 9 15 9 -12 12 -12 12 -7 -16 -6 -17 -14 0 -14 0 0
-10 0 -10 -14 0 -14 0 -5 13 -4 12 -22 -13 -21 -12 0 9 0 10 10 6 11 7 -30 30
-30 31 5 9 5 8 24 -17 24 -18 1 -12 0 -13 15 0 15 0 0 15 0 15 15 0 15 0 0
-15 0 -15 15 0 15 0 0 14 0 14 -17 6 -16 7 12 12 12 12 9 -15 9 -15 20 12 20
13 7 -11 7 -11 -14 -9 -13 -8 7 -7 7 -7 12 10 13 10 38 7 37 7 0 7 0 8 -20 17
-21 18 6 9 6 10 30 0 30 0 -11 -19z m-10866 3 l16 -6 0 -14 0 -14 -12 0 -13 0
-24 -26 -24 -25 -13 13 -13 13 5 22 6 22 27 10 26 9 2 1 1 1 16 -6z m7044 -13
l5 -13 -14 4 -13 4 -4 13 -4 14 13 -5 13 -4 4 -13z m680 -7 l3 -19 5 -14 5
-14 29 33 30 33 6 -6 7 -7 -13 -15 -13 -16 11 -11 11 -11 7 16 6 17 18 0 18 0
6 -12 6 -13 6 13 6 12 14 0 14 0 0 -13 0 -14 -21 -19 -21 -19 -15 20 -14 20
-13 -17 -13 -18 -12 0 -11 0 0 15 0 15 -15 0 -15 0 0 -14 0 -14 -20 -5 -20 -5
0 -11 0 -11 20 0 20 0 0 -15 0 -15 -12 0 -13 0 -20 30 -20 30 -12 0 -13 0 0
19 0 19 -12 6 -13 6 23 -6 24 -6 -7 22 -7 22 13 9 14 9 10 -3 10 -4 3 -19z
m-6327 -6 l20 13 12 -8 12 -8 53 4 52 3 0 -10 0 -10 -15 -12 -15 -12 0 -13 0
-13 18 -22 17 -21 25 19 25 19 18 6 18 7 21 -11 20 -11 11 11 10 10 -14 17
-13 16 -25 9 -24 10 11 11 11 11 13 -11 13 -10 35 -4 35 -3 -2 -45 -2 -45 -6
-27 -7 -26 24 -7 23 -8 -20 -7 -20 -7 -95 5 -95 4 -9 8 -8 8 22 7 21 7 -4 11
-4 12 -77 3 -78 3 13 15 13 16 -13 20 -13 21 16 9 16 9 0 9 0 10 -20 0 -20 0
0 -15 0 -15 -10 0 -11 0 -5 15 -6 15 -14 0 -14 0 0 8 0 9 7 7 7 7 13 -18 13
-18 21 13z m1758 -8 l11 0 0 9 0 9 68 -3 67 -2 19 -8 20 -9 4 12 4 12 14 0 14
0 21 -21 21 -21 6 7 6 6 -14 9 -15 10 5 1 5 1 100 2 100 3 20 -11 20 -11 8
-10 9 -10 -6 18 -5 17 22 1 22 1 228 2 227 1 0 -31 0 -32 -26 -17 -26 -17 -13
19 -14 18 10 9 9 10 0 13 0 13 -11 0 -11 0 -5 -20 -5 -20 -32 0 -31 -1 18 -10
18 -11 -6 -29 -7 -29 16 0 16 0 0 -15 0 -15 -9 0 -9 0 -5 13 -4 12 -16 -13
-16 -13 -21 11 -20 11 -6 -16 -6 -15 -14 0 -14 0 0 20 0 20 10 0 10 0 0 22 0
22 -12 -12 -12 -12 -25 0 -25 0 12 -12 12 -12 0 -17 0 -16 -51 -7 -51 -7 -14
12 -14 11 -12 -9 -13 -10 -40 0 -40 -1 -25 13 -25 12 -15 -5 -15 -5 -18 -15
-18 -16 -8 13 -9 13 -21 -7 -22 -7 -14 19 -14 18 6 20 5 20 -13 -12 -13 -13
-13 0 -13 0 0 15 0 15 15 0 15 0 0 15 0 15 -10 0 -11 0 -5 -15 -6 -15 -14 0
-14 0 0 -15 0 -15 10 0 10 0 20 -20 20 -20 0 -5 0 -5 -15 0 -15 0 0 10 0 10
-14 0 -14 0 -6 -15 -6 -15 -27 6 -28 6 -27 11 -28 12 0 7 0 8 -17 0 -18 -1 18
-13 17 -13 0 -7 0 -6 -14 0 -14 0 -4 12 -4 12 -15 -9 -14 -9 -97 -3 -98 -2 0
49 0 49 11 6 10 7 -3 37 -3 36 33 3 32 3 0 -24 0 -25 -17 -7 -18 -6 18 -11 18
-10 15 6 16 6 -3 27 -3 28 8 14 9 14 12 -16 12 -17 12 0z m-2837 5 l0 -9 -11
-4 -11 -4 0 17 0 17 11 -4 11 -3 0 -10z m693 5 l6 -10 -15 0 -15 0 -6 -9 -6
-10 22 -11 21 -12 11 11 11 11 13 0 13 0 11 -26 10 -27 -6 -6 -6 -5 -8 13 -9
14 -12 -8 -13 -8 18 -14 19 -13 -12 -12 -11 -11 -28 31 -27 32 -8 0 -8 0 0
-15 0 -15 15 0 15 0 0 -6 0 -7 -26 -23 -25 -24 -3 0 -4 0 -4 24 -5 25 9 9 9 9
-7 17 -6 17 -30 15 -29 15 12 15 12 14 33 -6 34 -6 0 11 0 11 14 0 15 0 6 -10z
m55 -5 l0 -15 -20 0 -20 0 0 15 0 15 20 0 20 0 0 -15z m1265 5 l6 -10 -21 0
-21 0 6 10 6 10 9 0 9 0 6 -10z m258 -13 l37 6 0 -17 0 -16 11 0 12 0 12 17
13 17 15 -12 14 -12 19 6 19 6 -13 -10 -14 -9 3 -29 2 -29 -1 -17 -2 -18 -15
0 -15 0 0 19 0 19 13 6 12 6 -25 -6 -25 -7 -8 -14 -8 -14 -21 7 -20 6 7 -24 7
-23 -13 13 -13 12 -13 0 -13 0 0 -15 0 -15 15 0 15 0 0 -9 0 -10 -12 -7 -12
-8 -4 12 -4 12 -28 0 -29 0 -20 21 -19 21 -13 -7 -12 -8 18 -13 19 -14 -8 -7
-7 -7 -18 11 -18 11 -17 -16 -16 -16 -12 13 -13 12 19 14 19 14 -16 7 -17 6
-16 -6 -16 -6 5 -14 6 -14 -15 -6 -16 -6 -23 0 -23 0 -11 14 -12 14 7 26 6 26
21 15 21 15 34 0 33 0 5 -15 6 -15 9 0 9 0 0 14 0 14 -15 6 -15 5 0 21 0 20
32 0 32 0 -12 -12 -12 -12 0 -13 0 -13 9 0 9 0 27 23 27 22 16 17 16 17 16
-14 16 -14 37 6z m6665 11 l-4 -12 -12 -4 -12 -4 0 16 0 16 16 0 16 0 -4 -12z
m-8578 -18 l0 -21 15 -5 15 -6 -38 -38 -37 -37 -8 4 -8 5 17 26 18 27 -2 33
-3 32 16 0 15 0 0 -20z m1180 10 l15 -10 -19 -15 -20 -15 -13 0 -13 0 0 25 0
25 18 0 17 0 15 -10z m140 -10 l0 -20 11 0 12 0 12 17 12 16 7 -12 7 -11 -15
-6 -16 -6 0 -18 0 -18 13 -6 12 -6 -12 -6 -13 -6 0 -19 0 -19 14 0 14 0 6 23
6 22 14 -17 13 -18 8 0 8 0 12 17 12 16 26 -19 26 -19 1 -8 0 -8 -35 -15 -34
-14 -16 0 -15 0 0 15 0 15 -15 0 -15 0 0 -20 0 -20 -14 0 -14 0 -5 21 -6 21
-10 -7 -11 -6 0 -15 0 -14 -14 0 -15 0 -6 11 -7 10 16 18 16 18 0 11 0 12 -9
0 -9 0 -5 -12 -4 -13 -13 12 -13 12 14 17 14 17 -12 4 -13 5 0 10 0 11 -17 13
-18 12 7 8 8 7 15 -13 16 -13 17 16 16 17 8 0 8 0 0 -20z m240 -32 l0 -28 -24
0 -25 0 -5 9 -6 9 6 30 6 29 24 -11 24 -11 0 -27z m5810 42 l15 -9 -13 -21
-12 -20 15 -6 16 -6 34 5 35 6 7 -11 6 -12 -21 -14 -22 -14 0 -14 0 -14 -19 0
-19 0 -5 20 -5 20 -29 0 -29 0 -19 -14 -18 -13 -29 11 -29 11 3 20 3 20 38 3
37 3 0 18 0 17 12 12 12 12 11 0 10 0 15 -10z m940 -26 l0 -13 -19 -11 -20
-10 -21 0 -21 0 -6 17 -6 16 22 18 22 18 25 -11 24 -11 0 -13z m-840 5 l0 -20
-17 3 -18 3 -3 18 -3 17 20 0 21 0 0 -21z m2172 11 l11 0 -16 -18 -17 -19 0
-6 0 -7 15 0 15 0 0 -10 0 -10 -12 0 -11 0 -19 17 -18 16 0 17 0 17 7 7 7 7
14 -6 14 -5 10 0z m73 0 l6 -10 -15 -6 -16 -6 0 -14 0 -14 15 0 15 0 0 -14 0
-14 13 -5 12 -4 -9 -9 -9 -9 -4 13 -5 12 -9 0 -9 0 -20 20 -20 20 0 5 0 5 18
19 17 19 7 1 7 1 6 -10z m-10285 -30 l0 -19 20 -35 21 -34 16 -6 16 -6 12 10
13 11 26 -7 26 -6 6 15 6 16 21 -12 22 -12 7 -10 7 -9 8 8 8 9 -12 4 -13 5 0
10 0 10 29 -7 29 -6 7 11 7 11 18 -16 18 -16 7 10 6 11 10 0 10 0 -6 -21 -7
-21 20 6 20 7 7 -11 6 -10 15 0 14 0 0 14 0 14 26 6 26 7 14 -11 13 -12 -12
-18 -11 -19 8 -8 8 -8 12 18 13 17 12 0 11 0 0 15 0 15 15 0 15 0 0 14 0 15
11 7 11 6 11 -11 10 -10 -27 -26 -27 -25 -10 0 -9 0 0 -15 0 -15 15 0 15 0 0
-10 0 -10 -14 0 -14 0 -5 13 -4 12 -23 -13 -22 -13 -23 25 -24 26 -11 0 -10 0
0 -15 0 -15 15 0 15 0 0 -10 0 -10 -15 0 -15 0 0 10 0 10 -14 0 -14 0 -5 -12
-4 -13 -19 11 -19 11 -19 -11 -19 -11 -4 13 -5 12 -13 0 -13 0 -5 13 -4 12 -9
-8 -8 -8 13 -8 14 -9 -8 -12 -7 -11 -18 16 -17 16 -12 -15 -13 -15 -19 12 -19
11 -11 -11 -12 -12 -18 9 -18 10 -65 2 -66 2 -6 18 -5 18 -9 0 -8 0 -6 -15 -5
-15 -20 0 -20 0 -6 10 -6 9 7 26 6 25 14 0 14 0 0 11 0 11 -30 -7 -30 -7 0 7
0 6 15 28 14 29 16 6 17 6 23 -6 23 -6 7 11 6 11 10 -5 9 -6 0 -19z m8991 14
l13 -16 -15 -9 -14 -9 -15 0 -15 0 -14 9 -14 9 6 16 6 16 24 0 25 0 13 -16z
m922 -5 l-6 -22 -19 -4 -18 -5 0 -14 0 -14 15 0 15 0 0 -10 0 -10 -15 0 -15 0
0 10 0 10 -14 0 -14 0 -5 -12 -4 -13 -21 12 -21 13 -6 -10 -6 -10 -35 0 -35 0
-19 10 -19 10 -6 -10 -6 -10 -16 0 -15 0 23 25 24 25 13 0 12 0 0 -10 0 -10
11 0 10 0 -6 20 -6 20 20 2 21 1 12 1 11 1 5 -12 4 -13 -16 0 -16 0 0 -10 0
-10 15 0 15 0 0 10 0 10 15 0 15 0 0 15 0 15 15 0 15 0 0 -15 0 -15 15 0 15 0
0 19 0 20 23 4 22 4 2 2 1 1 -5 -21z m-8868 -3 l14 -14 -14 -18 -14 -19 -1 13
0 12 -20 0 -20 0 0 13 0 14 7 6 6 7 14 0 14 0 14 -14z m8082 -3 l4 -11 -16 -5
-15 -6 0 20 0 21 12 -4 12 -4 3 -11z m-7867 -8 l0 -15 15 0 15 0 0 -15 0 -15
-15 0 -15 0 0 14 0 14 -15 6 -15 5 0 11 0 10 15 0 15 0 0 -15z m6270 0 l0 -15
-10 0 -10 0 0 15 0 15 10 0 10 0 0 -15z m590 0 l0 -15 -10 0 -10 0 0 15 0 15
10 0 10 0 0 -15z m250 -6 l0 -9 -15 0 -15 0 0 8 0 9 6 6 7 6 8 -5 9 -5 0 -10z
m1290 6 l0 -15 -9 0 -10 0 -5 9 -5 8 6 7 6 6 9 0 8 0 0 -15z m720 0 l0 -15 15
0 15 0 0 -9 0 -10 -9 -5 -9 -6 -6 15 -5 15 -15 0 -14 0 -6 -16 -6 -15 -10 6
-10 6 0 10 0 9 14 0 14 0 6 15 5 15 11 0 10 0 0 -15z m1821 -8 l-11 -11 -6 7
-6 6 7 10 6 11 11 -6 10 -6 -11 -11z m69 8 l0 -15 15 0 15 0 0 -10 0 -10 -15
0 -15 0 0 10 0 10 -14 0 -14 0 -6 -16 -6 -15 -10 6 -10 6 0 10 0 9 15 0 15 0
0 15 0 15 15 0 15 0 0 -15z m-11560 -4 l0 -9 -12 -4 -12 -4 8 -12 7 -12 10 0
9 0 0 15 0 15 9 0 10 0 6 -10 6 -10 -15 -6 -16 -6 0 -14 0 -14 -11 0 -12 0
-13 18 -14 17 -11 -17 -10 -18 -9 0 -10 0 0 10 0 10 20 20 20 20 10 0 10 0 0
10 0 10 10 0 10 0 0 -9z m2060 -3 l0 -13 -10 -15 -9 -15 -13 13 -13 13 19 15
20 14 3 0 3 0 0 -12z m5553 -11 l17 -6 0 -8 0 -8 -21 -13 -21 -13 -18 18 -17
18 16 16 16 16 5 -7 5 -6 18 -7z m3790 8 l2 -10 -32 -3 -33 -3 0 10 0 10 18 4
17 5 13 -2 13 -1 2 -10z m-10373 -42 l0 -13 -8 0 -9 0 -19 21 -18 20 14 9 15
10 13 -17 12 -17 0 -13z m3108 7 l10 0 6 -15 5 -15 18 0 17 0 -16 -17 -17 -16
-17 14 -18 14 7 -17 6 -17 -17 6 -17 6 -19 19 -18 19 7 7 8 7 4 -12 5 -13 14
0 14 0 0 14 0 14 -16 6 -15 6 7 11 7 12 12 -16 12 -17 11 0z m44 15 l0 -9 -11
-4 -11 -4 0 17 0 17 11 -4 11 -3 0 -10z m88 0 l0 -15 -30 0 -30 0 0 8 0 9 7 6
6 7 24 0 23 0 0 -15z m336 -2 l13 -18 6 18 7 17 14 0 14 0 0 -15 0 -15 -15 0
-15 0 0 -15 0 -15 14 0 14 0 6 13 6 12 6 -12 6 -13 15 0 15 0 -4 -12 -5 -13
-25 -3 -26 -3 -31 30 -32 31 -9 0 -10 0 0 15 0 15 11 0 12 0 13 -17z m2364 2
l0 -15 14 0 14 0 6 17 7 16 12 -12 12 -12 -14 -8 -14 -9 6 -15 6 -15 -21 6
-21 5 -19 19 -18 18 0 10 0 10 15 0 15 0 0 -15z m411 2 l-1 -7 -7 -1 -7 0 -4
12 -4 12 12 -4 12 -4 -1 -8z m-8272 -27 l-11 -30 -9 0 -9 0 0 23 0 24 7 6 6 7
13 0 13 0 -10 -30z m10235 11 l20 -8 -25 -6 -24 -7 -27 0 -27 0 -5 9 -5 8 6 7
6 6 31 -1 31 0 19 -8z m-9283 -14 l-1 -7 -7 -1 -7 0 -4 12 -4 12 12 -4 12 -4
-1 -8z m3844 3 l6 -10 -15 -6 -16 -6 0 -14 0 -14 15 0 15 0 0 15 0 15 20 0 20
0 0 -9 0 -10 -32 -16 -33 -16 -3 11 -4 10 -14 0 -14 0 0 12 0 11 18 18 17 18
7 0 7 1 6 -10z m845 -5 l0 -15 15 0 15 0 0 15 0 15 15 0 15 0 0 -14 0 -14 13
-5 12 -4 -8 -9 -8 -8 -10 14 -9 15 -16 -20 -15 -20 -13 18 -13 17 -12 0 -11 0
0 15 0 15 15 0 15 0 0 -15z m120 0 l0 -15 15 0 15 0 0 -9 0 -10 -10 -6 -10 -6
-6 15 -6 16 -14 0 -14 0 0 15 0 15 15 0 15 0 0 -15z m1950 0 l0 -15 -10 0 -10
0 0 15 0 15 10 0 10 0 0 -15z m255 0 l0 -10 -22 -3 -23 -3 0 16 0 16 23 -3 22
-3 0 -10z m-5995 -16 l0 -21 -15 12 -15 12 0 9 0 9 15 0 15 0 0 -21z m-60 -38
l0 -9 -17 -4 -18 -5 -13 4 -12 5 6 9 5 9 25 0 24 0 0 -9z m100 -7 l0 -15 -17
3 -16 3 -5 13 -4 12 21 0 21 0 0 -16z m780 8 l0 -9 -6 -6 -7 -6 -9 5 -8 5 5
10 6 9 10 0 9 0 0 -8z m208 -39 l-3 -18 -10 2 -10 2 -3 15 -3 16 16 0 16 0 -3
-17z"/>
<path d="M9154 4625 l-6 -15 12 -15 12 -15 14 0 14 0 0 30 0 30 -20 0 -21 0
-5 -15z"/>
<path d="M9714 4409 l-6 -11 11 -11 11 -11 0 22 0 22 -4 0 -5 0 -7 -11z"/>
<path d="M13452 3980 l-22 -10 6 -27 6 -28 4 -17 5 -16 -11 -7 -12 -7 -11 11
-11 11 -17 0 -18 0 -15 -16 -16 -15 0 -24 0 -23 34 -30 35 -30 19 -6 20 -7 5
-19 5 -20 18 0 17 0 33 33 34 32 0 13 0 12 10 0 10 0 22 25 21 25 1 37 1 38
-28 3 -29 4 -30 34 -30 34 -17 -1 -16 0 -23 -9z"/>
<path d="M9960 3573 l0 -9 11 -11 11 -11 -11 -7 -11 -6 -6 15 -6 16 -14 0 -14
0 0 -15 0 -15 15 0 15 0 0 -15 0 -15 11 0 12 0 13 18 13 17 14 -19 14 -19 7
11 6 11 -10 6 -10 6 0 20 0 19 -14 0 -14 0 -16 6 -16 6 0 -9z"/>
<path d="M8780 3545 l0 -14 -19 -11 -20 -10 -13 0 -13 1 18 10 17 10 0 9 0 10
-10 0 -11 0 -20 -19 -21 -19 19 -10 18 -11 -22 -20 -22 -21 -11 0 -10 0 0 10
0 10 10 0 10 0 0 11 0 10 -20 -6 -20 -6 0 21 0 21 -16 6 -16 6 -9 -14 -9 -14
0 -17 0 -18 20 0 20 0 0 -10 0 -11 21 -22 20 -22 13 18 13 17 12 0 11 0 0 -15
0 -15 15 0 15 0 0 -15 0 -15 -15 0 -15 0 0 -15 0 -15 15 0 15 0 0 15 0 15 15
0 15 0 0 15 0 15 -15 0 -15 0 0 15 0 15 -15 0 -15 0 0 15 0 15 15 0 15 0 0 19
0 19 30 7 30 7 0 19 0 19 -15 0 -15 0 0 -15z"/>
<path d="M9082 3538 l5 -13 11 0 12 0 1 10 0 10 -17 3 -16 4 4 -14z"/>
<path d="M12260 3515 l0 -15 15 0 15 0 0 15 0 15 -15 0 -15 0 0 -15z"/>
<path d="M12620 3515 l0 -15 15 0 15 0 0 15 0 15 -15 0 -15 0 0 -15z"/>
<path d="M8785 3500 l-6 -10 6 -10 6 -10 10 0 9 0 0 14 0 15 -9 6 -10 5 -6
-10z"/>
<path d="M7490 3485 l0 -15 15 0 15 0 0 15 0 15 -15 0 -15 0 0 -15z"/>
<path d="M7550 3480 l0 -20 9 0 10 0 3 -22 3 -23 39 -3 39 -3 8 8 9 9 -25 34
-25 34 0 -17 0 -17 -20 0 -20 0 0 20 0 20 -15 0 -15 0 0 -20z"/>
<path d="M6862 3458 l4 -12 12 -4 12 -4 0 16 0 16 -16 0 -16 0 4 -12z"/>
<path d="M8450 3456 l0 -14 -12 -5 -13 -4 7 -8 7 -7 16 15 15 16 0 10 0 11
-10 0 -10 0 0 -14z"/>
<path d="M12243 3462 l-11 -7 -4 -20 -3 -20 30 0 30 0 0 25 0 25 -15 2 -15 3
-12 -8z"/>
<path d="M12320 3446 l0 -15 10 -6 10 -6 0 20 0 21 -10 0 -10 0 0 -14z"/>
<path d="M8125 3431 l-5 -10 8 -5 9 -5 7 6 6 6 0 9 0 8 -9 0 -10 0 -6 -9z"/>
<path d="M8480 3430 l0 -10 15 0 15 0 0 10 0 10 -15 0 -15 0 0 -10z"/>
<path d="M8540 3429 l0 -11 20 -5 20 -5 0 -11 0 -10 6 5 6 6 -12 21 -11 21
-14 0 -15 0 0 -11z"/>
<path d="M5600 3389 l0 -21 13 4 12 5 3 16 3 17 -15 0 -16 0 0 -21z"/>
<path d="M7046 3401 l-7 -11 15 -6 16 -6 0 -14 0 -14 15 0 15 0 0 15 0 15 -11
0 -12 0 -12 17 -12 16 -7 -12z"/>
<path d="M7102 3398 l4 -12 12 -4 12 -4 0 16 0 16 -16 0 -16 0 4 -12z"/>
<path d="M8272 3399 l4 -10 9 0 10 0 3 10 4 11 -17 0 -17 0 4 -11z"/>
<path d="M8692 3401 l4 -12 7 0 7 1 1 7 1 8 -12 4 -12 4 4 -12z"/>
<path d="M5747 3374 l-6 -7 5 -8 5 -9 10 0 9 0 0 15 0 15 -8 0 -9 0 -6 -6z"/>
<path d="M7010 3365 l0 -17 11 4 11 4 0 9 0 10 -11 3 -11 4 0 -17z"/>
<path d="M7670 3365 l0 -11 89 0 89 1 8 8 7 7 -9 1 -9 2 -87 2 -88 2 0 -12z"/>
<path d="M8000 3365 l0 -15 15 0 15 0 0 15 0 15 -15 0 -15 0 0 -15z"/>
<path d="M8547 3374 l-6 -7 5 -8 5 -9 10 0 9 0 0 15 0 15 -8 0 -9 0 -6 -6z"/>
<path d="M8660 3365 l0 -17 11 4 11 4 0 9 0 10 -11 3 -11 4 0 -17z"/>
<path d="M3245 3750 l-18 -20 13 -28 12 -27 8 -15 7 -15 12 1 11 1 30 2 30 1
0 49 0 50 -7 4 -8 4 -36 7 -36 6 -18 -20z"/>
<path d="M13340 3515 l0 -15 15 0 15 0 0 15 0 15 -15 0 -15 0 0 -15z"/>
<path d="M12960 3420 l0 -10 8 0 7 0 15 10 15 10 -22 0 -23 0 0 -10z"/>
<path d="M10588 3443 l-28 -4 0 -16 0 -16 45 6 46 5 7 6 6 7 -14 9 -15 10 -10
-2 -10 -1 -27 -4z"/>
<path d="M9500 3425 l0 -15 15 0 15 0 0 15 0 15 -15 0 -15 0 0 -15z"/>
<path d="M11846 3402 l-6 -11 11 -6 10 -7 6 6 7 6 -11 11 -11 11 -6 -10z"/>
<path d="M8900 3425 l0 -15 10 0 10 0 0 15 0 15 -10 0 -10 0 0 -15z"/>
<path d="M4732 3398 l4 -12 12 -4 12 -4 0 16 0 16 -16 0 -16 0 4 -12z"/>
<path d="M4861 3363 l0 -38 8 20 8 20 -5 17 -4 18 -4 0 -4 0 1 -37z"/>
<path d="M4920 3389 l0 -14 -6 -22 -6 -23 16 0 16 0 -7 33 -6 32 -3 4 -4 4 0
-14z"/>
<path d="M4250 3351 l0 -20 11 -7 11 -6 9 9 10 10 -7 16 -6 17 -14 0 -14 0 0
-19z"/>
<path d="M3620 3365 l0 -17 11 4 11 4 0 9 0 10 -11 3 -11 4 0 -17z"/>
<path d="M3167 3433 l-7 -6 0 -9 0 -8 20 0 20 0 0 15 0 15 -13 0 -14 0 -6 -7z"/>
<path d="M11120 3395 l0 -15 15 0 15 0 0 15 0 15 -15 0 -15 0 0 -15z"/>
<path d="M844 6558 l-8 -13 -3 -49 -3 -49 10 -11 9 -12 3 -69 3 -70 20 0 20 0
7 67 6 68 16 31 16 32 0 9 0 8 -21 0 -20 0 2 23 3 22 -7 13 -8 12 -19 0 -19 0
-7 -12z"/>
<path d="M1477 6539 l-18 -10 -27 6 -28 6 -23 -25 -24 -25 -30 15 -29 16 -37
-7 -36 -7 -12 -10 -13 -10 10 -18 10 -19 3 -68 2 -68 24 -3 23 -4 11 11 11 11
1 57 0 56 27 20 28 21 6 -6 6 -6 3 -71 4 -71 6 -10 6 -10 18 0 17 0 12 12 12
12 0 63 0 63 18 0 19 0 15 -17 15 -18 -2 -51 -3 -52 23 -12 23 -12 21 11 21
12 0 29 0 29 -15 68 -16 68 -21 18 -20 17 -12 0 -11 -1 -18 -10z"/>
<path d="M3010 6520 l0 -10 15 0 15 0 0 10 0 10 -15 0 -15 0 0 -10z"/>
<path d="M1056 6511 l-39 -6 -19 -30 -18 -30 -6 -13 -7 -14 12 -38 12 -39 25
-31 26 -30 56 0 57 0 13 28 12 27 -16 12 -17 12 -29 -15 -29 -15 -9 6 -10 6 0
14 0 13 28 11 27 12 28 15 27 15 0 20 0 21 -29 29 -29 29 -14 -1 -13 -2 -39
-6z m48 -59 l5 -8 -7 -9 -7 -10 -24 -13 -23 -14 -12 12 -11 11 25 19 25 20 12
0 12 0 5 -8z"/>
<path d="M2876 6503 l-6 -6 0 -9 0 -8 15 0 15 0 0 9 0 10 -9 5 -8 5 -7 -6z"/>
<path d="M3211 6473 l-135 -4 -13 -11 -14 -11 3 -31 3 -31 19 -3 19 -4 21 10
21 10 183 6 183 6 40 21 41 21 -11 11 -12 12 -107 1 -107 0 -134 -3z"/>
<path d="M4494 6325 l-6 -14 7 -11 6 -10 10 5 9 6 0 20 0 19 -10 0 -11 0 -5
-15z"/>
<path d="M4401 6256 l-11 -13 7 -6 6 -7 14 0 13 0 0 14 0 15 -9 5 -9 6 -11
-14z"/>
<path d="M4516 6234 l-6 -16 0 -9 0 -9 20 0 20 0 0 25 0 25 -14 0 -14 0 -6
-16z"/>
<path d="M4290 6183 l-21 -48 3 -50 3 -50 20 0 20 0 3 19 4 19 29 40 29 40 0
18 0 18 -26 20 -27 21 -8 0 -8 0 -21 -47z"/>
<path d="M4004 6151 l-41 -19 -12 -32 -11 -33 0 -38 0 -39 28 -31 27 -31 35
-7 35 -7 3 -15 3 -15 -26 -12 -25 -12 0 -14 0 -14 18 -21 17 -22 43 36 42 37
0 9 0 9 30 41 30 41 6 34 6 34 -6 35 -7 35 -37 35 -37 35 -40 0 -40 0 -41 -19z
m115 -77 l21 -27 0 -13 0 -14 -20 -20 -20 -20 -24 0 -23 0 -27 21 -26 20 0 13
0 13 21 27 20 26 29 0 29 0 20 -26z"/>
<path d="M3802 6148 l-12 -12 0 -9 0 -8 -40 -48 -40 -47 0 -8 0 -8 -32 -41
-33 -42 -12 -21 -12 -21 12 -12 11 -11 73 0 73 0 0 -18 0 -18 13 -18 14 -19
21 12 22 12 0 18 0 19 15 12 15 12 0 29 0 28 -20 11 -19 10 5 53 5 52 4 41 4
41 -25 12 -25 11 -2 0 -3 0 -12 -12z m-12 -183 l0 -26 -16 -6 -15 -6 -10 10
-9 9 16 22 15 22 10 0 9 0 0 -25z"/>
<path d="M1304 6116 l-6 -24 4 -52 3 -53 -47 -2 -48 -2 -24 -17 -25 -16 -12
-39 -12 -39 7 -35 6 -34 18 -15 17 -14 37 -19 37 -19 24 13 24 13 34 7 34 7 0
144 1 145 7 38 8 37 -40 0 -41 0 -6 -24z m2 -221 l6 -25 -6 -25 -6 -25 -38 0
-38 0 -12 12 -12 12 0 31 0 32 7 6 6 7 43 0 44 0 6 -25z"/>
<path d="M746 6121 l-6 -9 -64 5 -63 6 -23 -23 -22 -22 6 -24 6 -24 1 -140 0
-139 15 -15 15 -15 66 4 66 4 28 11 27 12 12 28 12 28 -7 47 -8 47 -13 5 -14
5 0 15 0 15 19 16 20 17 -8 46 -8 47 -26 31 -26 31 -5 -9z m-12 -82 l26 -20 0
-16 0 -16 -24 -22 -24 -22 -16 -6 -15 -6 -16 15 -15 15 0 38 0 37 12 12 12 12
17 0 16 0 27 -21z m2 -149 l24 0 0 -39 0 -39 -41 -16 -40 -16 -10 5 -9 6 0 49
0 48 13 5 12 5 13 -4 14 -4 24 0z"/>
<path d="M2875 6101 l-5 -10 10 -6 10 -6 10 6 10 6 -5 10 -6 9 -9 0 -9 0 -6
-9z"/>
<path d="M1017 6073 l-7 -6 0 -18 0 -18 19 -11 20 -10 15 6 15 6 6 19 6 19 -6
10 -6 10 -28 0 -28 0 -6 -7z"/>
<path d="M1830 6041 l0 -9 16 -6 16 -6 9 0 9 0 0 15 0 15 -25 0 -25 0 0 -9z"/>
<path d="M3360 6040 l0 -10 28 1 27 0 -20 9 -20 9 -7 0 -8 1 0 -10z"/>
<path d="M2930 6015 l0 -15 10 0 10 0 0 15 0 15 -10 0 -10 0 0 -15z"/>
<path d="M3047 5997 l-28 -22 23 -21 23 -22 225 10 225 11 23 8 22 9 0 8 0 9
-37 10 -38 11 -187 -4 -187 -4 -6 10 -6 10 -12 0 -12 0 -28 -23z"/>
<path d="M1731 6000 l-24 -11 -13 -17 -13 -17 -6 -36 -6 -37 9 -18 10 -19 11
-27 11 -28 16 0 17 0 31 -19 31 -18 32 13 32 14 11 21 12 21 -6 15 -6 16 -49
-5 -50 -5 -21 30 -22 29 13 24 12 24 20 0 19 0 -6 -24 -6 -24 21 -5 21 -6 29
21 29 22 0 18 0 18 -25 16 -25 16 -43 4 -42 4 -24 -10z"/>
<path d="M1458 5975 l-11 -25 -9 0 -8 0 0 -29 0 -29 18 -31 17 -31 18 -6 18
-6 15 13 14 12 21 -19 20 -18 -3 -25 -3 -26 -21 3 -21 3 -26 -10 -27 -11 0
-19 0 -19 13 -9 12 -10 45 2 45 2 8 2 7 1 20 33 20 32 0 24 0 24 -16 18 -16
18 12 66 12 65 -6 15 -5 15 -76 0 -75 0 -12 -25z m99 -33 l11 -7 2 -15 2 -15
-1 -12 -1 -12 -20 -6 -19 -6 -21 11 -20 11 0 9 0 10 20 20 20 20 8 0 7 0 12
-8z"/>
<path d="M1037 5962 l-17 -19 0 -90 0 -91 16 -13 16 -13 16 11 17 10 -3 99 -2
98 -13 14 -13 13 -17 -19z"/>
<path d="M867 5943 l-5 -8 2 -80 1 -81 19 -29 19 -28 13 18 14 19 0 67 0 68
14 8 14 8 4 20 3 20 -47 3 -46 3 -5 -8z"/>
<path d="M2980 5891 l-14 -10 16 -6 17 -7 16 4 16 3 2 10 2 10 -20 3 -20 2
-15 -9z"/>
<path d="M4520 5855 l0 -15 15 0 15 0 0 15 0 15 -15 0 -15 0 0 -15z"/>
<path d="M9061 5755 l0 -40 10 23 9 24 -10 16 -9 17 0 -40z"/>
<path d="M12477 5693 l-7 -6 0 -29 0 -28 49 0 49 0 10 13 10 12 -9 23 -8 22
-44 0 -44 0 -6 -7z"/>
<path d="M4306 5674 l-6 -16 0 -27 0 -27 -9 -9 -10 -10 19 -25 19 -25 18 11
17 11 24 44 23 44 -10 22 -11 23 -34 0 -34 0 -6 -16z"/>
<path d="M470 5585 l0 -16 18 3 17 3 -2 10 -2 10 -15 3 -16 3 0 -16z"/>
<path d="M3811 5563 l-20 -28 -26 -35 -26 -35 -55 -74 -56 -73 12 -12 11 -11
75 -3 75 -4 10 -26 10 -27 11 -6 11 -7 14 5 13 5 25 50 25 50 0 13 0 14 -19 6
-20 6 -6 53 -7 54 7 31 7 32 -16 24 -16 25 -10 0 -9 0 -20 -27z m9 -168 l0
-14 -18 -10 -18 -10 -13 9 -13 8 21 21 22 22 9 -6 10 -6 0 -14z"/>
<path d="M4077 5580 l-58 -5 -9 -15 -10 -15 0 -11 0 -12 -15 -12 -15 -12 0
-49 0 -49 13 0 14 0 23 -25 23 -25 29 0 28 0 0 -18 0 -18 -21 -17 -20 -18 3
-22 3 -22 31 -3 31 -3 16 24 16 24 15 15 15 15 21 46 22 46 1 59 2 58 -24 30
-23 29 -26 5 -27 5 -58 -5z m85 -91 l21 -37 -19 -26 -19 -25 -42 -1 -42 0 -11
19 -10 20 0 30 0 30 28 16 27 15 23 -3 23 -2 21 -36z"/>
<path d="M1511 5541 l-21 -21 0 -44 0 -45 8 -5 7 -4 3 -114 3 -113 13 -13 14
-14 22 12 22 12 -11 11 -11 11 0 23 0 23 8 0 7 -1 23 -18 22 -19 0 -10 0 -10
36 -12 36 -12 16 16 17 16 -11 18 -11 17 -26 13 -27 13 0 12 0 13 30 32 30 33
0 15 0 15 -36 -3 -37 -3 -11 -19 -11 -19 -17 -19 -18 -18 -10 0 -10 0 -1 48
-1 47 1 9 2 8 1 54 2 55 -16 15 -16 16 -21 -21z"/>
<path d="M475 5531 l-5 -10 10 -6 10 -6 10 6 10 6 -5 10 -6 9 -9 0 -9 0 -6 -9z"/>
<path d="M525 5530 l-6 -10 15 -6 15 -6 11 7 10 6 -5 10 -6 9 -14 0 -14 0 -6
-10z"/>
<path d="M615 5503 l-17 -16 -9 -24 -9 -24 0 -39 0 -39 25 -20 26 -20 32 -6
32 -7 10 -8 10 -7 29 -7 28 -7 -6 -31 -6 -31 -11 -14 -11 -13 -19 0 -18 0 -5
9 -6 9 -34 6 -33 6 -17 -6 -16 -6 0 -9 0 -9 22 -25 22 -25 64 0 64 0 30 25 30
26 3 39 3 39 -29 41 -30 41 -17 -2 -17 -3 -25 14 -25 13 -12 13 -13 13 0 25 0
26 25 6 26 6 40 -10 40 -10 12 25 11 25 -19 14 -19 14 -72 0 -73 0 -16 -17z"/>
<path d="M863 5423 l-13 -5 0 -57 0 -57 9 -9 9 -10 -9 -59 -10 -59 13 -9 13
-8 26 0 27 0 -3 68 -2 67 14 17 14 16 -15 31 -16 30 0 19 0 20 -16 6 -16 6 -6
-1 -7 -1 -12 -5z"/>
<path d="M3375 5415 l-40 -13 -111 -1 -111 -1 -32 -6 -31 -6 0 -19 0 -18 18
-10 18 -9 194 11 195 12 33 24 34 23 -11 11 -10 10 -53 3 -53 3 -40 -14z"/>
<path d="M1347 5381 l-39 -18 -19 -29 -19 -29 0 -37 0 -37 13 -13 13 -13 6
-15 5 -15 44 -13 44 -13 38 16 37 15 0 20 0 20 -58 0 -58 0 -16 28 -16 27 18
23 18 22 40 0 40 0 16 6 16 6 0 13 0 12 -17 15 -18 15 -25 6 -25 6 -38 -18z"/>
<path d="M1011 5348 l-30 -31 2 -50 2 -49 32 -34 31 -34 46 -1 45 -2 15 13 16
12 19 -5 19 -5 13 9 13 8 -3 88 -2 88 -8 8 -7 7 -87 5 -86 4 -30 -31z m149
-59 l22 -30 -23 -25 -22 -24 -24 0 -24 0 -20 10 -19 11 0 34 0 34 18 10 17 10
27 1 27 0 21 -31z"/>
<path d="M4343 5079 l-13 -13 0 -13 0 -13 -26 -10 -26 -10 10 -13 11 -12 3
-45 3 -45 17 -3 18 -3 9 23 9 23 21 19 21 19 0 26 0 26 -23 28 -22 28 -12 -12z"/>
<path d="M3667 5053 l-7 -6 0 -9 0 -8 20 0 20 0 0 15 0 15 -13 0 -14 0 -6 -7z"/>
<path d="M4495 5037 l-7 -25 4 -17 3 -16 10 -2 10 -2 3 34 3 34 -10 10 -10 10
-6 -26z"/>
<path d="M980 5029 l0 -11 -20 -25 -20 -26 0 -23 0 -24 -8 0 -7 0 -20 -37 -20
-37 -23 -28 -24 -28 -12 0 -12 0 -28 44 -28 44 -17 19 -17 18 -28 48 -28 47
-13 0 -14 0 -16 -16 -16 -17 4 -11 5 -11 -8 -124 -8 -124 9 -24 9 -23 13 0 14
0 15 18 16 17 5 79 6 78 5 5 5 5 16 -5 15 -6 0 -18 0 -18 40 -63 40 -63 27 3
26 3 46 84 47 83 9 2 9 1 8 -30 9 -30 3 -48 3 -49 14 -13 14 -13 20 -4 20 -3
-2 30 -2 30 -10 72 -10 72 -10 20 -11 20 0 29 0 30 -6 31 -6 31 -14 0 -14 0 0
-11z"/>
<path d="M513 4975 l0 -50 4 28 4 27 -4 23 -4 22 0 -50z"/>
<path d="M3743 5013 l-23 -4 -20 -29 -20 -28 0 -30 0 -30 15 -12 15 -12 0 -18
0 -17 -21 -27 -22 -28 12 -37 11 -38 18 -16 18 -16 54 -7 55 -6 31 28 32 29 5
42 5 42 -15 21 -15 21 16 39 16 40 -16 39 -16 39 -12 5 -13 5 -44 5 -44 5 -22
-5z m87 -73 l11 -20 -11 -21 -12 -21 -15 6 -15 6 -19 0 -19 0 0 15 0 15 12 20
13 20 22 0 22 0 11 -20z m6 -147 l13 -18 1 -7 0 -8 -25 -16 -25 -16 -25 16
-25 16 0 13 0 13 12 12 12 12 24 0 25 0 13 -17z"/>
<path d="M1571 4986 l-22 -24 -6 -54 -5 -54 15 -30 15 -29 -9 -22 -8 -22 15
-30 15 -31 14 0 14 0 26 12 25 11 -14 16 -13 16 -7 42 -6 42 17 37 18 36 -16
11 -16 12 -7 37 -7 37 -8 5 -8 5 -22 -23z"/>
<path d="M4028 4999 l-18 -10 0 -33 0 -33 6 -5 5 -6 38 21 39 21 16 -13 16
-13 0 -14 0 -14 -20 -20 -20 -20 -11 0 -10 0 3 -22 3 -23 29 -5 29 -5 10 -17
11 -16 -14 -17 -14 -17 -41 5 -40 6 -17 -13 -18 -13 0 -7 0 -6 19 -19 18 -18
37 -7 36 -7 46 27 45 27 -3 36 -3 36 18 -1 17 -2 0 18 0 19 -22 3 -23 3 3 66
4 66 -27 27 -26 26 -52 0 -52 -1 -17 -10z"/>
<path d="M1172 4900 l-32 -18 -20 -25 -20 -25 0 -46 0 -46 19 -19 18 -18 33
-17 33 -16 23 0 23 0 6 10 6 10 39 0 39 0 4 18 4 17 2 29 1 29 -17 12 -17 13
12 27 12 27 -20 27 -19 28 -48 0 -48 0 -33 -17z m88 -70 l20 -20 0 -19 0 -20
-22 -15 -22 -16 -20 0 -19 0 -19 17 -18 16 0 15 0 16 22 23 21 23 19 0 18 0
20 -20z"/>
<path d="M1422 4904 l-22 -15 -10 -19 -10 -19 10 -25 9 -25 31 -16 30 -16 0
-14 0 -15 -13 0 -13 0 -12 12 -11 11 -7 -16 -6 -16 4 -17 3 -18 34 -9 35 -8
22 11 22 12 11 24 11 25 -14 33 -13 32 -34 10 -34 10 -3 18 -4 18 23 -4 24 -3
3 19 4 19 -14 8 -13 9 -10 0 -11 0 -22 -16z"/>
<path d="M3253 4869 l-32 -9 -7 -12 -7 -11 22 -18 23 -18 165 4 166 4 8 12 7
12 -5 14 -5 13 -118 0 -119 0 -6 10 -6 10 -27 -1 -27 -1 -32 -9z"/>
<path d="M4915 4660 l-6 -10 15 -6 15 -6 11 7 10 6 -5 10 -6 9 -14 0 -14 0 -6
-10z"/>
<path d="M12290 4390 l-15 -10 40 1 40 0 -20 9 -20 9 -5 0 -5 1 -15 -10z"/>
<path d="M535 2981 l-5 -10 10 -6 10 -6 10 6 10 6 -5 10 -6 9 -9 0 -9 0 -6 -9z"/>
<path d="M474 2936 l-7 -17 11 -11 11 -11 7 17 7 17 -11 11 -11 11 -7 -17z"/>
<path d="M667 2857 l-15 -23 6 -157 5 -157 -12 -14 -12 -15 20 -10 20 -11 105
0 106 0 20 20 20 20 0 10 0 9 -19 11 -20 10 -70 0 -71 0 -6 26 -7 26 6 96 5
97 -10 43 -10 42 -23 0 -23 0 -15 -23z"/>
<path d="M1882 2863 l-9 -18 4 -145 3 -145 0 -22 0 -23 26 -6 26 -7 9 14 9 14
0 67 0 67 9 5 9 6 27 -10 27 -10 -4 -67 -3 -66 16 -10 16 -10 17 6 16 6 11 27
10 27 -10 29 -10 29 6 14 5 15 -6 25 -7 26 -31 19 -31 19 -30 -6 -29 -6 -9 14
-9 14 5 35 6 36 -10 27 -11 27 -19 0 -20 0 -9 -17z"/>
<path d="M5135 2872 l-11 -7 -22 -29 -22 -29 0 -43 0 -44 9 0 9 0 17 6 16 6
30 44 30 44 -13 27 -13 27 -10 3 -10 3 -10 -8z"/>
<path d="M4143 2848 l-33 -20 0 -19 0 -19 25 -12 25 -11 18 16 19 17 10 0 10
0 16 -18 17 -19 0 -16 0 -17 -12 -1 -13 -1 -12 1 -13 2 0 -16 0 -16 -31 -13
-31 -13 49 -13 48 -13 9 -8 9 -8 -7 -25 -6 -26 -33 0 -33 0 -12 12 -12 12 -20
-19 -20 -18 0 -13 0 -13 26 -20 27 -21 41 0 41 1 34 27 33 28 5 48 6 49 -17 9
-16 9 0 18 0 19 15 12 15 12 0 32 0 32 -16 22 -15 22 -29 15 -29 15 -28 -1
-28 -1 -32 -20z"/>
<path d="M4600 2842 l-14 -5 -18 -21 -17 -21 -1 -9 0 -8 -66 -79 -65 -79 3
-27 3 -28 70 -5 70 -5 -3 -39 -4 -39 17 7 17 6 14 0 14 0 6 24 6 25 19 17 19
17 0 18 0 18 -17 16 -17 17 3 98 3 97 -14 5 -13 5 -15 -5z m-30 -177 l0 -26
-16 -6 -15 -6 -11 11 -12 12 19 20 18 20 9 0 8 0 0 -25z"/>
<path d="M4840 2842 l-16 -7 -20 -15 -21 -15 -11 -22 -12 -22 0 -22 0 -23 22
-23 22 -24 -18 -29 -17 -30 -1 -31 -1 -31 29 -24 29 -23 60 -1 61 0 14 18 15
19 13 21 12 22 0 17 0 18 -20 25 -20 25 0 11 0 12 14 5 14 5 -5 25 -5 25 11 6
11 7 0 9 0 8 -38 30 -38 30 -34 6 -35 5 -15 -7z m73 -92 l5 -20 -21 -15 -21
-15 -13 0 -12 0 -11 21 -11 20 12 15 11 14 28 0 28 0 5 -20z m1 -126 l16 -6 0
-16 0 -15 -17 -19 -16 -18 -19 0 -18 0 0 11 0 12 -17 12 -17 13 13 16 13 16
23 0 23 0 16 -6z"/>
<path d="M1751 2780 l-20 -34 -7 -29 -6 -28 17 -25 17 -26 -12 -29 -12 -29 6
-24 6 -25 16 -16 16 -16 14 12 15 12 -2 73 -2 74 13 15 13 16 -11 11 -12 12 0
26 0 26 -14 19 -14 19 -21 -34z"/>
<path d="M2946 2736 l-40 -12 -7 -15 -7 -14 -16 -37 -16 -37 17 -40 18 -41 6
0 6 0 23 -20 24 -21 79 5 80 5 4 5 4 4 0 102 0 103 -13 8 -13 9 -31 -6 -32 -6
-6 11 -7 11 -17 -1 -17 -1 -39 -12z m84 -76 l20 -20 0 -17 0 -18 -8 -12 -7
-11 -28 -7 -28 -7 -19 17 -20 18 0 22 0 23 23 15 22 16 13 0 12 1 20 -20z"/>
<path d="M2368 2713 l-32 -23 -8 -12 -8 -13 0 -52 0 -52 33 -30 32 -31 56 0
57 0 31 27 31 27 0 13 0 13 12 20 12 19 -23 43 -24 43 -11 11 -11 12 -58 4
-58 5 -31 -24z m119 -65 l13 -10 0 -19 0 -18 -22 -21 -22 -20 -17 0 -18 0 -20
26 -21 26 12 22 11 21 11 8 11 7 25 -6 25 -6 12 -10z"/>
<path d="M2451 2621 l-13 -8 16 -6 15 -6 6 9 5 9 -8 5 -8 5 -13 -8z"/>
<path d="M1003 2696 l-37 -33 1 -51 1 -51 23 -30 24 -29 43 -13 43 -12 35 16
34 17 0 20 0 20 -22 2 -23 1 -30 -2 -30 -2 25 21 25 20 28 17 27 17 0 29 0 28
-25 24 -24 25 -41 0 -40 0 -37 -34z m82 -46 l7 -11 -12 -14 -12 -15 -10 0 -9
0 -6 16 -6 16 14 9 14 9 7 0 7 0 6 -10z"/>
<path d="M1508 2700 l-28 -29 0 -30 0 -30 28 -28 27 -27 34 -1 33 0 14 -20 13
-20 -9 -14 -8 -14 -45 1 -45 2 -6 -16 -6 -15 10 -19 10 -18 31 -11 32 -11 13
0 12 0 31 25 30 26 0 122 -1 122 -9 18 -10 17 -62 0 -62 -1 -27 -29z m117 -55
l0 -30 -37 -3 -38 -3 0 20 0 19 6 17 7 16 31 -3 31 -3 0 -30z"/>
<path d="M3483 2706 l-43 -21 0 -12 0 -12 18 -5 17 -5 95 -5 95 -5 146 -2 145
-2 22 12 22 12 0 14 0 14 -12 7 -11 7 -201 4 -201 4 -25 8 -25 8 -42 -21z"/>
<path d="M1335 2710 l-6 -10 -43 0 -44 0 -9 -12 -9 -13 1 -85 0 -85 33 -3 32
-3 1 23 1 23 -2 53 -2 52 36 0 35 0 3 -72 3 -73 35 0 35 0 -2 35 -1 35 -2 40
-2 39 -16 26 -17 25 -10 7 -10 8 -17 0 -17 0 -6 -10z"/>
<path d="M2620 2571 l-12 -30 7 -21 7 -21 31 3 32 3 12 25 12 25 -21 22 -21
23 -18 0 -17 0 -12 -29z"/>
<path d="M3186 2575 l-16 -24 10 -26 10 -25 28 0 28 0 12 12 12 12 0 21 0 22
-18 16 -19 17 -15 0 -16 0 -16 -25z"/>
<path d="M3987 2594 l-6 -7 5 -8 5 -9 20 0 21 0 -4 13 -5 12 -14 3 -15 3 -7
-7z"/>
<path d="M532 2333 l3 -16 13 -5 12 -4 0 21 0 21 -16 0 -15 0 3 -17z"/>
<path d="M495 2291 l-5 -10 10 -6 10 -6 10 6 10 6 -5 10 -6 9 -9 0 -9 0 -6 -9z"/>
<path d="M1824 2081 l-62 -29 -9 -17 -10 -16 -21 -12 -22 -12 -75 -52 -75 -53
-54 0 -54 0 -11 -14 -11 -13 -48 -5 -47 -5 -56 -27 -55 -27 -32 -30 -32 -30 0
-15 0 -14 -9 0 -10 0 -6 -17 -6 -18 -35 -40 -36 -40 -13 18 -13 18 -7 -10 -6
-11 10 -19 11 -19 -2 -188 -2 -188 12 -4 11 -3 25 -20 25 -19 3 -23 3 -22 16
-3 17 -3 51 -50 50 -49 12 0 12 0 33 -25 33 -25 13 0 14 0 21 -15 20 -14 44
-6 44 -7 26 -9 26 -10 14 -32 14 -32 45 -5 45 -5 27 -18 27 -19 -5 -13 -5 -13
23 -7 23 -7 21 -20 22 -19 76 -1 77 0 24 16 24 16 15 0 14 0 5 14 5 13 36 7
36 7 0 9 0 10 17 0 16 0 19 16 18 17 142 -16 143 -16 190 -6 190 -6 65 -9 65
-10 105 0 105 0 170 -14 170 -15 170 -6 170 -6 175 -9 175 -10 265 -5 265 -4
145 -9 145 -9 230 -2 230 -1 290 -7 290 -6 45 0 45 0 805 11 805 11 95 10 95
9 454 6 453 5 12 9 11 9 343 7 343 6 19 10 19 10 243 0 244 0 114 14 115 14
255 6 255 6 40 10 40 10 135 0 135 1 50 10 50 10 125 5 125 5 55 11 55 10 145
7 145 8 155 12 155 12 46 14 47 15 38 -1 39 0 20 -8 20 -8 69 24 69 24 66 -1
66 -2 37 16 37 16 43 0 43 0 80 16 80 15 55 14 55 13 45 12 45 11 45 8 45 7
20 11 20 11 60 10 60 9 55 23 55 22 27 13 27 13 18 -4 19 -5 18 20 19 21 24 0
24 0 5 15 6 15 28 0 29 0 6 11 7 10 21 10 22 9 18 10 17 10 18 10 17 10 31 14
31 14 6 43 6 44 -18 20 -19 20 -7 23 -7 23 -28 -6 -29 -6 -58 26 -58 26 -45
22 -45 21 -45 12 -45 12 -32 11 -33 11 -32 11 -33 11 -47 8 -47 9 -20 10 -20
11 -31 0 -31 0 -36 15 -35 15 -50 0 -49 0 -27 14 -27 13 -65 7 -64 6 -10 10
-10 10 -46 0 -47 0 -49 16 -49 15 -72 -1 -72 0 -58 18 -58 19 -52 -5 -51 -4
-69 12 -68 12 -130 9 -130 8 -120 11 -120 10 -90 11 -90 11 -505 8 -505 9 -61
10 -61 9 -339 3 -339 2 -45 4 -45 3 -95 5 -95 4 -425 6 -425 6 -360 3 -360 3
-470 12 -470 13 -710 -6 -710 -6 -175 -9 -175 -10 -738 0 -739 -1 -116 -10
-117 -11 -315 -8 -315 -9 -35 -5 -35 -5 -230 -7 -230 -7 -70 -14 -70 -14 -15
0 -15 0 -10 22 -10 23 -49 13 -48 14 -5 18 -5 18 -60 26 -59 26 -17 0 -17 -1
-61 -28z m3533 -84 l28 -5 1455 -1 1455 -1 438 -4 437 -5 11 -6 10 -7 -15 -17
-15 -16 -3 -70 -3 -70 -30 -3 -30 -4 -23 -21 -22 -21 6 -18 5 -18 -6 -19 -5
-18 -88 -7 -87 -7 -74 -4 -74 -4 -55 -12 -55 -11 -67 23 -66 22 -27 -7 -27 -6
0 -10 0 -10 34 0 35 0 6 -9 5 -9 30 -7 30 -7 0 -23 0 -23 -92 4 -93 4 -54 7
-54 8 -4 12 -4 11 20 7 21 6 0 11 0 10 -52 -4 -53 -3 0 40 0 40 -9 14 -9 13
-48 -5 -48 -6 -4 12 -4 12 -19 -11 -19 -11 -3 -41 -3 -42 -20 -11 -20 -10 -15
12 -14 11 0 39 0 39 -21 0 -21 0 7 -17 6 -18 2 -10 2 -10 -50 0 -50 0 0 27 0
28 -10 -1 -10 0 2 -26 2 -26 -10 -18 -10 -19 -142 0 -142 0 -29 15 -29 16
-206 6 -206 5 -160 4 -160 4 -40 1 -40 2 -40 -15 -40 -16 -3 -21 -3 -21 14 0
15 0 48 21 48 20 24 -10 23 -11 53 0 54 0 6 -16 6 -16 0 -30 0 -31 27 -25 27
-24 29 -9 28 -8 23 9 23 9 22 27 21 27 0 38 0 38 18 9 17 9 185 -3 185 -3 13
-18 13 -18 -3 -25 -3 -25 -178 -3 -178 -2 -11 -25 -11 -24 12 -15 12 -14 -11
-7 -10 -6 0 -23 0 -22 12 -12 12 -12 -12 -12 -12 -12 0 -17 0 -18 16 -16 16
-16 -17 -19 -17 -19 4 -18 3 -18 185 -5 185 -5 3 -38 3 -38 -11 -14 -12 -14 7
-11 7 -11 37 6 38 6 120 1 119 1 12 -7 12 -7 0 -48 0 -48 7 -6 6 -7 14 11 13
11 0 34 0 34 30 0 31 0 6 -16 6 -15 -12 -12 -11 -11 0 -13 0 -13 24 0 25 0 7
12 8 13 1 45 0 45 20 -2 20 -3 24 6 23 5 -6 7 -7 6 -252 3 -252 4 -8 8 -9 9 6
11 7 11 19 0 18 0 30 25 30 25 218 0 218 0 21 -20 22 -20 236 -1 237 0 10 6
10 6 0 22 0 22 35 28 35 28 0 -30 0 -30 -21 -11 -20 -11 4 -12 3 -11 28 -7 28
-8 21 9 22 8 19 7 20 6 -32 19 -32 20 0 106 0 105 -10 20 -11 19 -31 0 -31 0
-13 18 -13 17 -1 8 0 7 15 0 16 0 23 -15 24 -16 16 16 16 16 0 9 0 9 19 6 19
6 22 19 23 20 47 0 48 0 5 -21 6 -22 -6 -28 -5 -28 -24 -16 -23 -15 -15 0 -14
0 -36 -37 -36 -37 0 -26 0 -26 15 -21 15 -21 26 -6 26 -7 39 -25 39 -24 0 -9
0 -9 -14 -11 -15 -12 -13 2 -13 1 -27 -1 -28 -1 0 -10 0 -10 48 0 47 0 15 -10
15 -10 -15 -9 -14 -10 -63 6 -63 6 -12 -11 -13 -10 -38 -7 -38 -7 -14 18 -14
19 -1 -16 0 -17 14 -11 14 -12 48 0 49 0 15 0 15 -1 138 -5 137 -4 1 -12 1
-12 -2 -22 -1 -23 27 -25 27 -25 14 11 14 12 14 -19 14 -19 2 -5 1 -5 3 -53 2
-53 16 -16 16 -17 168 13 168 13 125 4 125 3 63 5 63 5 32 25 32 25 18 16 17
15 10 0 9 0 34 30 35 30 40 0 40 0 6 -23 5 -23 20 -23 20 -23 3 -6 3 -7 42
-23 42 -22 22 0 22 0 -5 -5 -5 -6 -148 -5 -148 -5 -11 -6 -10 -7 -335 -7 -336
-8 -100 -10 -100 -10 -310 -1 -310 0 -95 -14 -95 -15 -430 -1 -430 -1 -240
-11 -240 -11 -750 -3 -750 -3 -51 9 -51 9 -41 -11 -41 -10 -28 7 -28 7 38 31
37 32 0 12 0 12 31 24 31 24 17 49 17 49 17 27 18 26 -16 31 -16 31 -9 0 -10
0 0 18 0 19 36 46 37 47 46 0 46 0 39 -35 38 -36 -6 -33 -6 -32 -28 -27 -27
-26 -43 -7 -42 -7 -6 -8 -5 -9 34 -16 35 -17 23 7 24 6 35 30 35 31 1 68 0 69
13 16 13 16 -12 15 -12 15 -30 0 -29 0 6 10 7 11 16 -5 17 -6 15 10 15 10 -22
18 -23 17 4 93 3 93 -18 23 -19 24 0 26 0 25 17 9 17 10 4 65 4 65 -21 21 -21
21 0 9 0 8 -67 23 -67 23 -14 -22 -14 -21 -16 0 -16 0 -23 22 -23 21 0 14 0
14 -17 27 -18 27 -10 13 -10 13 -32 36 -33 36 0 7 0 7 7 7 7 7 7 -20 8 -19 28
-5z m-3428 19 l12 -15 -3 -27 -3 -28 -47 -12 -47 -12 -5 6 -6 5 0 43 0 43 23
4 22 4 21 2 22 1 11 -14z m113 -33 l18 -16 0 -9 0 -8 -24 0 -24 0 -13 16 -13
16 15 9 14 9 4 0 4 0 19 -17z m2918 -2 l0 -10 -30 -21 -30 -21 0 -15 0 -14 -8
0 -9 0 -19 -42 -18 -43 -6 -55 -5 -55 -350 4 -350 4 -39 38 -38 39 -57 1 -56
1 -142 -2 -142 -2 -38 -13 -37 -13 -4 -11 -4 -11 -25 6 -25 7 7 -22 6 -21 -17
0 -17 0 -36 -22 -36 -22 -3 -8 -4 -8 -11 0 -12 0 -67 -44 -68 -45 -20 -6 -20
-6 0 -9 0 -9 -18 -6 -19 -5 -11 -24 -10 -23 9 -14 9 -14 0 -35 0 -35 19 -36
19 -35 -5 -27 -5 -27 16 -24 16 -25 60 -27 60 -27 11 -13 11 -14 19 0 19 0 0
-8 0 -7 48 -25 47 -25 5 -5 5 -5 32 -23 32 -22 8 0 8 0 30 -16 30 -16 160 6
160 6 32 6 32 6 47 48 47 48 171 1 171 1 28 -11 27 -11 30 12 30 12 81 -12 81
-13 13 14 14 14 -7 12 -8 12 -169 10 -170 11 -162 -1 -163 -1 -43 -45 -44 -46
-89 -10 -89 -10 -35 1 -35 0 -65 9 -65 10 -87 46 -88 47 -40 25 -41 26 -24 9
-25 10 0 10 0 10 -12 0 -11 0 -34 26 -33 25 0 28 0 29 15 12 16 13 161 -7 161
-7 18 -9 18 -10 3 -63 3 -62 26 -12 26 -13 185 7 184 6 29 23 28 22 -2 134 -2
133 -22 22 -22 21 -200 7 -200 6 -19 -14 -20 -14 -4 -62 -4 -61 -172 2 -171 3
-3 34 -3 34 5 22 6 23 47 28 48 27 5 7 5 7 25 8 25 8 37 23 38 24 6 0 6 0 37
28 36 29 99 18 98 19 18 -12 19 -11 54 11 54 11 14 -6 14 -7 36 -22 36 -23 25
-18 25 -17 224 -1 224 0 154 6 155 5 16 15 17 15 49 -9 49 -9 8 5 8 5 25 -16
24 -17 -16 -31 -16 -32 17 -12 17 -12 44 3 44 4 10 6 11 7 -6 18 -6 18 18 6
17 7 13 -18 12 -18 11 -12 11 -13 23 0 22 0 27 41 27 40 11 39 12 38 -6 24 -6
23 -32 48 -32 48 -26 -6 -26 -6 -20 -24 -20 -24 -35 8 -35 7 3 17 3 16 -27 7
-26 7 -20 -20 -20 -21 11 -20 11 -21 -17 -16 -17 -17 -40 7 -41 7 -25 1 -25 1
-7 10 -7 10 20 19 19 18 0 17 0 17 46 40 46 40 51 17 52 17 41 1 41 0 36 -24
35 -24 38 -18 37 -18 11 -28 10 -28 7 0 7 0 13 -37 13 -38 -2 -55 -3 -55 8 11
8 10 17 7 17 6 7 26 6 25 14 0 13 0 35 21 36 21 26 -21 27 -21 11 0 12 0 12
-42 12 -43 -8 -35 -8 -35 -22 -10 -22 -10 0 -7 0 -8 -46 0 -46 0 -26 29 -27
29 -13 16 -13 16 -14 0 -15 0 0 -20 0 -21 46 -49 47 -50 46 0 47 0 34 -29 34
-28 2 -61 2 -61 -22 -33 -22 -33 -39 -3 -40 -3 -20 -19 -20 -18 -20 -6 -20 -6
-23 -50 -24 -51 12 -14 11 -13 -4 -49 -5 -48 -7 -30 -8 -30 -27 -42 -26 -43
-48 -30 -48 -31 -62 -5 -61 -6 -57 21 -56 22 -26 20 -25 20 -31 45 -30 45 0
29 0 29 -17 10 -18 10 10 10 10 9 28 -5 28 -6 -5 -13 -5 -14 4 -13 5 -12 47 4
47 3 12 -17 13 -17 -9 -24 -9 -24 5 -15 6 -15 10 0 9 0 21 11 21 12 12 -17 12
-16 21 0 21 0 6 10 6 10 -11 20 -11 21 -26 -3 -26 -3 -4 13 -5 12 32 0 32 0
35 -30 34 -30 22 0 23 0 22 16 22 15 11 22 12 21 4 62 4 62 -26 37 -25 38 -17
12 -17 13 -28 -10 -28 -10 -11 -19 -10 -19 -13 0 -13 0 -11 25 -12 25 -40 2
-40 1 -12 1 -13 1 3 -46 3 -46 -72 -7 -72 -8 -9 16 -9 15 -35 7 -35 7 -12 -12
-11 -11 26 -27 26 -28 -5 -27 -5 -27 16 -23 16 -22 0 -17 0 -16 25 -45 25 -45
40 -28 40 -28 -5 -5 -5 -5 -267 2 -268 2 -155 15 -155 14 -195 0 -195 1 -75 9
-75 10 -235 10 -235 10 -100 10 -100 9 -157 1 -158 0 -87 14 -88 15 -150 5
-150 6 -85 10 -85 10 -81 0 -81 0 -7 7 -7 8 -112 12 -112 11 -45 12 -45 12
-25 8 -25 8 -55 23 -55 23 -43 28 -43 28 -12 0 -12 1 -27 22 -27 22 -6 28 -7
27 23 0 24 0 40 -14 40 -14 102 -1 102 -1 28 -15 28 -15 46 0 47 0 12 15 12
14 -7 11 -7 11 10 12 9 12 -1 37 -2 38 -9 9 -10 8 -120 13 -120 13 -100 4
-100 4 -15 6 -15 6 -12 -2 -13 -2 -28 15 -29 15 -7 33 -7 33 19 16 20 15 81 2
82 2 17 8 17 9 168 7 168 7 14 5 13 6 5 12 5 12 -7 59 -6 59 -25 6 -25 7 -90
-10 -90 -10 -6 -9 -6 -10 -142 -1 -142 -2 -4 3 -4 4 17 26 17 27 54 52 54 52
39 6 38 7 6 9 5 9 23 0 24 0 12 15 12 15 82 0 81 0 60 11 60 10 105 5 105 5
80 10 80 10 200 9 200 8 35 11 35 11 180 0 180 0 120 10 120 10 435 12 435 11
135 6 135 7 328 2 327 2 0 -9z m-3182 -33 l-3 -23 -35 -3 -35 -2 28 25 28 25
10 0 10 0 -3 -22z m8432 7 l85 -3 38 -7 37 -7 6 -9 5 -9 -33 0 -33 -1 -20 -12
-21 -12 -32 -24 -32 -25 0 -22 0 -21 -31 -7 -31 -6 -29 0 -28 0 -34 30 -35 30
-7 0 -8 0 -41 33 -41 33 -45 12 -45 11 -190 6 -190 6 -93 1 -93 1 -6 10 -6 10
434 -7 434 -8 85 -3z m670 -29 l225 -5 315 -15 315 -15 70 -10 70 -11 70 0 70
0 35 -11 35 -10 115 -9 115 -9 130 -11 130 -11 52 -16 52 -16 62 1 62 1 35
-15 34 -14 48 0 48 0 35 -15 36 -15 71 0 70 0 0 -14 0 -15 -17 -4 -18 -5 52 5
52 5 33 -12 33 -12 60 -8 60 -8 30 -11 30 -11 105 -31 105 -32 20 -14 19 -13
28 0 27 0 6 -9 5 -10 75 -36 75 -36 -13 -20 -12 -20 -48 -30 -47 -29 -14 0
-14 0 -12 -15 -12 -15 -11 0 -11 0 -80 -31 -81 -31 -28 -14 -29 -14 -27 0 -27
0 -20 -15 -19 -14 -19 -1 -19 0 -56 -16 -56 -16 -32 -14 -32 -13 -34 6 -34 5
-24 -15 -24 -16 -63 -10 -62 -10 -11 -7 -12 -7 -61 -8 -61 -7 -40 -11 -40 -10
-80 -11 -80 -11 -97 -9 -97 -9 -20 -10 -20 -11 -78 0 -78 0 -75 -15 -75 -14
-100 -11 -100 -12 -155 -8 -155 -9 -35 -10 -35 -11 -105 -1 -105 0 -55 -10
-55 -10 -204 -9 -204 -8 -8 -13 -8 -14 -32 12 -32 13 -11 -9 -11 -9 -105 -1
-105 0 50 25 50 25 27 32 27 32 1 17 0 17 13 8 12 8 185 1 185 0 60 33 60 34
23 18 23 18 35 45 34 45 0 25 0 26 -9 0 -9 0 -11 50 -11 51 0 6 0 6 45 -5 44
-5 15 16 15 16 90 3 90 2 6 -22 7 -23 21 -43 21 -43 20 -4 21 -5 200 -3 200
-2 3 63 3 63 22 8 22 7 165 2 164 2 18 6 18 5 0 14 0 14 -22 7 -23 8 -180 0
-180 1 -7 70 -7 69 -18 14 -18 13 -35 -6 -35 -6 -155 -10 -155 -11 -21 -8 -20
-8 -14 -56 -13 -56 -13 -11 -13 -11 -98 6 -98 6 -37 0 -38 0 0 45 0 44 -9 6
-9 5 -7 29 -6 30 -15 11 -14 12 6 10 7 10 23 -27 24 -28 0 -12 0 -13 15 -6 15
-5 0 -20 0 -19 6 -16 6 -16 9 6 9 5 0 23 0 22 -12 12 -12 12 12 12 12 12 0 17
0 17 -15 12 -15 12 0 39 0 39 -15 0 -15 0 0 -26 0 -26 -12 4 -13 5 -3 21 -3
22 -5 0 -5 0 -19 -10 -19 -10 -17 17 -17 18 -36 13 -36 13 -35 11 -35 10 -30
4 -30 5 -95 -15 -95 -14 -50 16 -50 17 -11 23 -11 23 -53 39 -54 40 -8 0 -9 0
5 8 5 8 93 -3 93 -3 225 -4z m-1500 -56 l7 -25 -10 -12 -9 -13 -79 0 -79 0 0
40 0 41 82 -3 82 -3 6 -25z m193 20 l17 0 23 1 22 0 60 -9 60 -10 18 -7 17 -7
0 -34 0 -33 30 -16 29 -15 55 29 54 30 23 -20 22 -19 9 0 10 0 19 -22 18 -23
1 -15 0 -15 -230 2 -230 3 -25 16 -25 17 -40 -6 -39 -5 -16 -16 -16 -16 -18 0
-19 0 -12 -15 -12 -15 -13 0 -13 0 -11 -27 -12 -28 -12 -21 -13 -22 -11 -13
-10 -14 -8 -35 -7 -35 -5 -64 -5 -63 11 -11 11 -11 0 -18 0 -18 30 -62 30 -63
38 -37 37 -36 13 -16 13 -16 19 0 19 0 6 -10 6 -10 49 0 49 0 5 9 6 8 42 7 43
7 30 3 30 2 43 2 42 2 0 14 0 15 -10 6 -10 6 -21 -15 -21 -15 -25 10 -24 9
-12 -3 -12 -2 -3 38 -3 38 35 14 35 15 22 0 21 0 26 15 27 15 26 9 27 10 -5
93 -5 93 -7 55 -6 55 -27 -3 -26 -3 -10 16 -9 17 -62 5 -62 6 3 31 3 31 120 5
120 5 58 -3 57 -4 0 -13 0 -14 43 -19 42 -19 25 -37 25 -37 63 -35 62 -35 0
-14 0 -15 9 0 10 0 6 -20 6 -20 -23 -30 -23 -29 -11 0 -12 -1 -12 -15 -12 -15
-19 0 -19 0 -27 -32 -28 -33 -31 -30 -32 -30 -15 -12 -16 -13 -28 0 -28 -1
-37 -13 -37 -13 -3 20 -3 20 -17 11 -18 11 -17 -11 -18 -12 2 -32 1 -31 5 -6
5 -5 54 0 53 0 37 7 38 7 15 -5 14 -6 -13 -32 -13 -31 -44 -28 -44 -27 -33 28
-33 29 -14 0 -14 0 -30 -29 -29 -29 -17 -31 -16 -32 -157 3 -157 3 3 37 3 36
-18 5 -18 4 -85 -1 -85 -1 -3 -17 -3 -18 63 0 64 0 19 -14 18 -13 -5 -15 -6
-15 -70 -6 -70 -7 -15 6 -15 5 -7 147 -8 147 -3 35 -3 35 -6 238 -7 238 7 26
6 26 82 -5 82 -5 28 9 27 10 0 35 0 34 11 21 11 20 46 -6 47 -7 18 1z m302
-24 l18 -13 -6 -17 -6 -16 -20 0 -20 0 -12 21 -11 22 13 8 14 9 6 0 5 0 19
-14z m525 -9 l0 -13 -12 -12 -12 -12 -33 0 -33 0 -6 -24 -6 -25 6 -9 6 -9 38
-7 39 -6 12 -26 11 -26 15 12 14 11 3 22 3 22 25 3 25 3 15 5 15 5 -19 15 -20
14 -22 0 -22 0 -6 16 -6 16 0 19 0 19 13 0 14 0 46 -31 47 -31 0 -17 0 -17 10
-10 10 -10 5 -90 6 -89 11 -37 11 -38 13 0 13 0 6 10 6 10 -11 57 -10 57 14
15 15 14 62 6 63 6 6 25 6 25 68 3 68 3 51 -17 52 -17 45 -34 45 -35 0 -11 0
-12 -20 0 -20 -1 -14 -8 -13 -8 -156 -4 -155 -3 -16 -15 -15 -15 -17 -68 -18
-68 11 -45 11 -45 19 -37 18 -38 18 -1 17 0 179 -5 178 -4 9 -6 9 -5 0 -24 0
-24 -61 -47 -60 -48 -37 -15 -37 -14 -73 -4 -72 -5 -6 32 -7 32 -26 10 -26 11
-45 1 -45 1 -1 88 -2 87 -7 18 -6 17 -15 -19 -14 -20 0 -127 0 -128 -10 -6
-10 -6 0 -24 0 -24 -14 -8 -13 -8 -12 -22 -11 -22 -52 -16 -52 -15 -31 0 -32
0 -47 31 -46 31 -26 55 -26 54 6 24 6 24 -11 7 -12 7 -14 -19 -14 -19 6 -22 5
-23 -25 0 -25 0 0 29 0 29 25 16 24 16 37 36 36 36 24 -11 25 -11 18 0 17 0
27 28 27 28 0 12 0 11 -25 27 -25 27 0 13 0 13 10 6 10 6 0 34 0 34 -10 6 -10
6 0 18 0 19 15 12 16 13 -3 40 -3 40 -27 20 -28 21 -30 -23 -31 -22 -35 37
-34 38 0 9 0 8 15 15 15 15 0 27 0 27 6 23 6 22 12 0 12 0 34 35 34 35 38 0
38 0 0 -13z m-5112 -55 l4 -14 -18 4 -17 3 -5 13 -4 14 18 -4 17 -3 5 -13z
m-357 -42 l9 0 0 -9 0 -9 -22 -6 -23 -5 -8 8 -9 9 7 12 7 11 15 -5 15 -6 9 0z
m319 -18 l0 -8 -13 -19 -14 -18 -26 7 -27 6 0 20 0 20 40 0 40 0 0 -8z m3908
-90 l3 -93 -23 3 -23 3 -3 70 -3 70 6 23 6 23 17 -3 17 -3 3 -93z m1006 82 l6
-16 0 -14 0 -14 -14 0 -14 0 -12 15 -12 15 12 15 12 15 8 0 8 0 6 -16z m568
-5 l21 -11 -14 -9 -14 -9 -26 0 -26 0 -6 7 -7 6 11 14 11 13 15 0 14 0 21 -11z
m-2597 -29 l26 -10 -6 -10 -6 -10 -32 0 -32 0 -14 9 -13 9 18 11 19 10 7 1 7
0 26 -10z m-2859 -48 l-16 -16 -6 7 -7 7 19 21 18 21 4 -12 4 -12 -16 -16z
m4284 23 l30 -16 0 -34 0 -34 -20 -11 -20 -11 0 -14 0 -13 -14 -29 -14 -28
-11 -36 -11 -35 0 -19 0 -18 17 -56 17 -56 13 -8 13 -8 0 -15 0 -15 25 -25 25
-25 0 -21 0 -22 -22 -23 -21 -23 -17 0 -16 0 -42 20 -42 20 -24 38 -23 37 -16
13 -16 14 -24 41 -25 42 -7 53 -7 53 12 67 13 66 11 14 11 14 22 24 22 24 9
15 8 16 35 18 34 19 23 1 23 1 29 -15z m-2549 -52 l29 -17 0 -14 0 -14 -29
-29 -29 -29 -30 0 -29 0 -18 20 -17 19 6 35 7 35 12 4 12 5 28 1 29 1 29 -17z
m752 -39 l149 -7 8 13 8 13 127 5 128 5 -5 -14 -4 -13 -32 -7 -32 -6 -67 7
-68 7 -30 -16 -30 -16 -193 -1 -194 -1 -5 14 -5 13 5 14 5 14 44 -9 43 -8 148
-7z m-6133 -14 l0 -20 -14 0 -15 0 -6 10 -6 10 6 10 6 10 15 0 14 0 0 -20z
m-390 -41 l0 -18 -10 -6 -11 -7 -14 12 -15 12 0 23 0 22 7 6 6 7 19 -17 18
-16 0 -18z m208 29 l-3 -23 -21 -3 -21 -3 -7 17 -7 17 13 9 13 8 18 0 18 0 -3
-22z m95 2 l5 -20 -9 -6 -10 -6 -14 12 -15 12 0 14 0 14 19 0 19 0 5 -20z
m-208 -15 l0 -20 -20 0 -20 0 -3 23 -4 24 24 -4 23 -3 0 -20z m7745 0 l24 -25
30 -8 31 -8 0 -18 0 -18 -54 -29 -54 -29 20 0 21 0 16 -26 17 -25 -3 -37 -3
-37 -22 -3 -23 -3 0 -24 0 -24 -21 -12 -21 -11 -34 6 -33 7 -4 7 -5 7 9 24 10
24 11 -11 11 -11 19 10 18 10 0 9 0 9 -37 3 -37 3 -8 39 -8 39 11 14 12 14 21
-3 21 -3 0 15 0 15 -23 -2 -23 -3 -6 30 -6 30 -8 6 -9 5 0 23 0 22 12 12 12
12 46 0 47 0 23 -25z m-7952 -23 l4 -24 -24 4 -23 3 -3 23 -4 24 24 -4 23 -3
3 -23z m8574 -118 l6 -136 -5 -19 -5 -19 -24 0 -23 0 -26 12 -26 12 -20 45
-20 46 -12 23 -11 23 11 17 10 18 8 34 8 35 14 22 15 23 48 0 47 0 5 -136z
m128 109 l25 -26 0 -99 1 -98 -18 -6 -18 -5 0 -10 0 -10 -32 3 -33 3 -3 138
-3 137 28 0 28 0 25 -27z m-1623 5 l8 -13 1 -40 1 -40 -9 -12 -9 -12 -75 2
-74 1 0 19 0 18 10 20 11 19 20 -11 20 -10 6 21 6 22 31 14 31 13 7 1 7 0 8
-12z m118 -53 l0 -60 -38 1 -38 1 -3 4 -3 4 -5 47 -5 47 26 10 26 10 20 -2 20
-2 0 -60z m-4285 40 l29 -15 14 -20 14 -21 -4 -87 -4 -87 -22 -17 -21 -16 -35
-6 -36 -6 -67 0 -68 0 0 49 0 49 93 7 92 7 8 5 7 4 -10 18 -9 18 12 12 12 12
-24 19 -25 18 -35 6 -36 6 -42 0 -42 0 -5 9 -6 9 6 16 6 15 26 4 27 4 58 2 58
1 29 -15z m4545 -23 l42 -27 14 -30 13 -30 -2 -30 -2 -30 -12 -23 -12 -24 -58
-29 -57 -29 -28 0 -28 1 19 14 19 15 29 25 28 25 0 69 0 68 -20 18 -20 18 0
20 0 19 17 -6 17 -7 41 -27z m-4825 20 l0 -8 -11 -11 -11 -11 23 -15 22 -16
-23 -19 -23 -18 12 -37 13 -37 11 0 12 -1 -18 -10 -18 -11 5 -26 6 -27 -9 -13
-8 -14 -19 4 -19 3 -9 122 -9 123 13 15 12 15 24 0 24 0 0 -8z m4679 -31 l43
-40 -4 -13 -5 -13 -36 -3 -36 -3 -21 11 -20 11 0 39 0 38 13 5 12 5 6 1 6 1
42 -39z m-1019 3 l0 -16 -122 3 -123 3 -10 5 -10 6 45 6 45 6 88 1 87 2 0 -16z
m540 10 l32 -7 -14 -8 -13 -9 -157 0 -156 0 -17 6 -17 7 14 8 13 9 141 0 142
0 32 -6z m-4702 -38 l4 -17 -6 -16 -6 -15 -14 11 -13 11 5 25 4 26 12 -4 11
-4 3 -17z m5652 -17 l0 -19 -20 0 -20 0 0 -18 0 -18 -12 -12 -12 -12 -22 0
-23 0 -6 10 -6 10 11 20 11 20 29 0 30 0 0 18 0 19 6 6 6 6 14 -6 14 -5 0 -19z
m-4945 -19 l18 -20 -6 -6 -6 -7 -58 -2 -57 -3 -12 5 -13 5 6 14 5 14 32 0 31
0 15 10 15 10 6 0 6 0 18 -20z m3870 -10 l26 -10 -6 -11 -7 -10 -76 4 -77 5
-5 7 -5 7 43 3 44 3 6 6 5 6 13 0 13 0 26 -10z m-471 -9 l6 -9 -35 -6 -35 -7
-36 7 -36 7 14 8 13 9 52 0 52 0 5 -9z m3497 -28 l6 -33 -13 -11 -13 -11 -13
4 -12 4 -2 43 -2 42 21 -3 21 -3 7 -32z m-2764 -4 l11 -11 20 11 21 11 23 0
24 0 12 -12 12 -12 0 -28 0 -28 9 0 10 0 3 32 3 32 30 8 30 8 13 -5 13 -5 -3
-62 -3 -63 -23 -3 -23 -4 -14 12 -15 12 -44 -6 -44 -7 -27 36 -28 35 -18 -5
-18 -6 -15 30 -16 30 0 6 0 5 23 0 23 0 11 -11z m381 -10 l3 -17 -38 -36 -38
-36 -22 0 -22 0 4 47 4 46 13 9 13 8 40 -2 40 -3 3 -16z m449 -13 l-6 -16 -16
0 -15 0 0 5 0 5 12 20 12 20 10 -10 9 -9 -6 -15z m-982 -17 l9 -9 18 0 18 0 0
-10 0 -10 -160 -1 -160 -2 -10 -1 -10 -1 0 10 -1 10 38 6 38 6 25 12 25 11 80
-6 80 -6 10 -9z m-525 -19 l0 -10 -77 1 -78 1 25 8 25 8 53 1 52 1 0 -10z
m-202 -7 l-18 -4 -17 4 -18 5 35 0 35 0 -17 -5z m-6095 -27 l6 -15 -15 -12
-15 -12 -16 15 -15 16 6 11 7 11 19 0 18 0 5 -14z m122 -16 l0 -15 -37 -3 -38
-3 0 21 0 21 38 -3 37 -3 0 -15z m9093 3 l-3 -18 -10 2 -10 2 -3 15 -3 16 16
0 16 0 -3 -17z m-9000 -15 l3 -18 -24 0 -25 0 -5 14 -6 14 7 6 6 7 20 -3 21
-3 3 -17z m85 -3 l6 -14 -10 -7 -10 -6 -14 6 -15 5 0 16 0 15 19 0 19 0 5 -15z
m87 1 l0 -4 -6 -16 -6 -16 -19 0 -19 0 0 13 0 14 7 6 6 7 19 0 18 0 0 -4z
m100 -16 l0 -21 -15 -5 -15 -6 -15 12 -15 13 11 13 11 14 19 0 19 0 0 -20z
m9600 1 l0 -20 -10 -6 -10 -6 0 25 0 26 10 0 10 0 0 -19z m-3641 -15 l12 -14
-10 -6 -9 -6 -16 6 -16 6 0 7 0 8 7 6 6 7 7 0 8 0 11 -14z m1601 -80 l0 -85
-10 -6 -11 -7 -14 12 -15 12 0 79 0 79 25 0 25 0 0 -84z m-116 53 l10 -9 -5
-4 -4 -4 -30 -2 -30 -2 -22 1 -23 1 0 9 0 9 28 10 27 10 20 -5 20 -5 9 -9z
m-3750 -85 l6 -17 -4 -5 -5 -4 -16 5 -15 6 0 16 0 15 14 0 14 0 6 -16z m5424
0 l22 -6 0 -24 0 -24 -30 0 -31 0 -5 15 -6 15 6 15 5 15 8 0 8 0 23 -6z
m-5494 -50 l16 -16 -5 -9 -6 -9 -30 0 -29 0 0 18 0 19 7 6 6 7 13 0 13 0 15
-16z m90 -10 l6 -16 0 -28 0 -28 -24 -16 -25 -16 -15 6 -16 6 0 14 0 13 19 10
18 10 6 31 7 30 9 0 9 0 6 -16z m4597 -83 l23 -19 -39 -11 -40 -11 -12 0 -12
0 -6 11 -7 10 18 19 19 19 16 0 17 1 23 -19z m-8171 -91 l9 0 15 -15 15 -16
-5 -14 -6 -15 -15 0 -15 0 -19 23 -18 22 -1 14 0 13 16 -6 16 -6 8 0z m165
-36 l17 -26 -11 -24 -11 -24 -39 0 -39 0 -5 33 -5 32 10 18 9 17 28 0 29 0 17
-26z m109 -15 l-5 -9 -20 0 -19 0 0 9 0 9 13 5 12 4 12 -5 13 -4 -6 -9z"/>
<path d="M8350 1655 l0 -15 18 0 18 0 12 -12 12 -12 6 7 7 7 -18 20 -18 20
-19 0 -18 0 0 -15z"/>
<path d="M6506 1585 l-28 -30 -326 -5 -327 -5 -27 -12 -28 -13 0 -14 0 -15 37
-7 36 -7 116 6 116 5 55 -7 55 -7 -75 -7 -75 -7 -119 -4 -120 -4 -13 -18 -13
-18 10 -10 11 -11 162 0 162 0 2 -10 3 -10 -167 0 -167 0 -7 -27 -7 -28 11 -7
12 -7 192 -1 193 0 -3 -10 -2 -10 -181 0 -180 0 -37 -20 -37 -20 0 -11 0 -12
16 -6 16 -6 23 0 24 0 6 -10 6 -10 -46 0 -47 0 4 -12 5 -13 28 -3 28 -4 22
-14 22 -14 329 1 330 2 37 -18 38 -18 24 -41 25 -42 40 -23 41 -23 42 7 42 7
17 9 17 9 3 22 3 23 21 3 21 3 5 -19 5 -19 44 -6 44 -6 13 11 13 11 -5 14 -6
14 23 -6 22 -7 17 -19 16 -19 4 -10 3 -10 68 -7 68 -6 44 49 45 49 82 5 81 5
5 13 4 12 -79 0 -78 1 -40 15 -40 15 -72 4 -73 4 -10 6 -10 6 0 40 0 39 -24 9
-23 9 -6 16 -6 16 -51 0 -50 0 0 -25 0 -25 14 0 15 0 7 11 6 11 31 -6 30 -6
14 -11 13 -11 0 -28 0 -28 -16 -13 -17 -14 -41 2 -41 1 -105 1 -105 1 -58 -11
-58 -10 -34 28 -33 28 -6 14 -7 14 10 10 10 10 106 0 107 0 5 13 5 12 -12 21
-11 21 -77 2 -77 2 75 3 75 4 13 16 12 17 0 7 0 8 -15 14 -15 15 -92 -4 -93
-4 -37 -5 -37 -5 -26 10 -26 10 6 10 6 10 145 -6 144 -5 20 6 20 6 0 17 -1 17
-15 20 -15 20 23 17 23 18 -22 19 -22 19 -65 7 -65 7 -11 -7 -10 -6 -19 11
-20 10 -3 22 -3 23 -29 -30z m202 -105 l13 0 -6 -10 -6 -10 -180 0 -179 0 0
10 0 9 88 4 87 3 85 -2 85 -3 13 -1z m-178 -177 l45 -7 -50 -7 -50 -7 -57 -1
-57 -1 -6 10 -6 10 5 9 6 9 63 -4 62 -5 45 -6z m-67 -119 l37 -7 -10 -12 -11
-13 -307 2 -307 1 -14 9 -13 9 13 8 14 9 280 0 280 0 38 -6z m339 -122 l8 -8
-17 -16 -18 -15 -25 -6 -25 -6 -24 20 -23 19 6 15 5 15 53 -5 52 -5 8 -8z
m148 -7 l0 -15 -9 0 -10 0 -5 9 -5 8 6 7 6 6 9 0 8 0 0 -15z m277 -2 l4 -12
-29 -15 -29 -15 -24 6 -24 6 -12 10 -13 9 0 15 0 14 62 -3 61 -3 4 -12z"/>
<path d="M6867 1208 l-4 -13 5 -18 4 -17 14 11 14 11 0 19 0 19 -14 0 -14 0
-5 -12z"/>
<path d="M5555 1163 l-20 -5 -12 -10 -13 -10 0 -28 0 -28 25 -16 24 -16 14 0
14 0 21 23 22 23 0 15 0 16 -23 21 -23 22 -5 -1 -4 -1 -20 -5z"/>
<path d="M8467 1144 l-7 -7 -92 -1 -92 -1 -11 -22 -11 -22 -15 15 -15 14 -67
5 -68 4 3 -67 3 -67 15 0 15 0 0 34 0 34 19 7 20 7 23 -5 23 -4 7 -11 6 -10
-17 -12 -17 -13 27 -21 27 -21 12 0 13 0 6 -15 5 -15 20 0 19 0 31 -17 31 -18
31 31 31 32 8 41 7 41 -16 10 -16 9 10 10 10 10 69 3 69 3 4 11 3 10 -51 12
-51 12 -7 0 -8 0 -6 -6z m-74 -68 l17 -13 0 -16 0 -16 -12 -26 -11 -25 -37 0
-36 0 -12 12 -12 12 0 31 0 31 12 12 12 12 31 0 30 -1 18 -13z"/>
<path d="M8155 1021 l-5 -10 8 -5 9 -5 7 6 6 6 0 9 0 8 -9 0 -10 0 -6 -9z"/>
<path d="M1375 1780 l-7 -12 10 -10 10 -10 7 12 7 12 -10 10 -10 10 -7 -12z"/>
<path d="M5516 1724 l-16 -15 0 -30 0 -30 10 -20 11 -19 38 0 39 0 6 23 6 22
0 27 0 27 -16 15 -15 16 -24 0 -24 0 -15 -16z m48 -43 l6 -9 -6 -16 -6 -16 -9
6 -9 5 0 20 0 19 9 0 10 0 5 -9z"/>
<path d="M4437 1599 l-18 -11 -57 3 -57 3 -41 -2 -41 -2 -22 -19 -23 -20 -11
-4 -12 -4 -3 -144 -3 -144 6 -21 5 -22 36 -21 35 -21 18 0 19 0 12 15 13 15
13 -11 14 -12 80 5 81 5 11 11 12 12 47 0 48 0 7 -11 6 -11 37 6 36 7 51 7 52
8 18 14 19 14 35 39 36 40 -7 63 -6 64 -27 35 -27 35 -15 0 -15 0 -5 15 -6 15
-14 0 -13 0 -47 16 -48 16 -37 -12 -37 -12 -55 26 -56 26 -13 0 -13 -1 -18
-10z m-49 -59 l22 0 10 -25 10 -25 13 0 14 0 27 -21 26 -20 6 15 6 16 13 0 13
0 12 15 12 15 43 0 43 0 28 -15 29 -15 22 0 22 0 26 -35 27 -34 -7 -40 -6 -39
-14 -18 -13 -19 -64 -13 -63 -13 -75 -8 -75 -7 -21 -12 -22 -11 -106 -3 -107
-3 -19 25 -20 25 1 110 0 110 18 22 18 21 29 5 29 5 35 -4 35 -4 23 0z m127 1
l5 -10 -10 -6 -10 -6 -10 6 -10 6 5 10 6 9 9 0 9 0 6 -9z"/>
<path d="M4308 1448 l-3 -32 -33 -7 -34 -7 -10 -10 -10 -10 12 -21 11 -22 29
-5 28 -6 6 -24 6 -24 20 0 20 0 0 24 0 24 16 12 15 13 37 6 37 6 3 18 3 17
-41 0 -41 0 -20 10 -19 11 0 29 0 30 -14 0 -15 0 -3 -32z"/>
<path d="M4632 1431 l-13 -8 -8 -35 -8 -35 16 -20 16 -20 28 -7 27 -6 23 5 22
6 13 26 12 27 0 26 0 26 -12 12 -12 12 -45 0 -46 0 -13 -9z m68 -51 l0 -10
-15 0 -15 0 0 10 0 10 15 0 15 0 0 -10z"/>
<path d="M2627 1552 l-17 -19 0 -49 0 -50 -12 -12 -12 -12 -125 0 -126 0 -36
10 -37 10 -27 -10 -26 -10 3 -23 3 -22 190 -3 189 -2 7 -12 7 -11 7 -63 6 -63
16 -12 15 -13 107 12 107 12 84 1 85 1 25 7 25 7 8 44 9 45 5 59 5 58 -11 11
-11 11 0 27 0 28 -14 14 -14 14 -189 12 -188 12 -20 5 -21 5 -17 -19z"/>
<path d="M5402 1418 l-12 -12 0 -17 0 -17 6 -16 6 -16 27 0 27 0 12 12 12 12
0 17 0 17 -25 16 -24 16 -9 0 -8 0 -12 -12z"/>
<path d="M11247 1313 l-7 -6 0 -29 0 -30 13 4 12 5 3 31 3 32 -9 0 -9 0 -6 -7z"/>
<path d="M13400 1265 l0 -16 18 3 17 3 -2 10 -2 10 -15 3 -16 3 0 -16z"/>
<path d="M13197 1243 l-7 -6 0 -9 0 -8 15 0 15 0 0 15 0 15 -8 0 -9 0 -6 -7z"/>
<path d="M10412 1045 l-22 -25 -19 0 -19 0 -16 -6 -16 -6 0 -13 0 -13 31 -11
32 -11 17 0 18 0 5 -20 5 -20 16 0 16 0 0 25 0 25 30 0 31 0 6 16 6 16 -14 9
-14 9 -22 0 -22 0 -3 22 -3 21 -11 4 -10 3 -22 -25z"/>
<path d="M1293 1983 l17 -4 18 4 17 5 -35 0 -35 0 18 -5z"/>
<path d="M985 1730 l-7 -22 10 -10 10 -10 7 22 7 22 -10 10 -10 10 -7 -22z"/>
<path d="M13882 1631 l4 -12 7 0 7 1 1 7 1 8 -12 4 -12 4 4 -12z"/>
<path d="M14032 1538 l4 -12 12 -4 12 -4 0 16 0 16 -16 0 -16 0 4 -12z"/>
<path d="M14090 1506 l0 -15 11 -7 11 -7 8 14 9 13 -5 8 -5 8 -15 0 -14 0 0
-14z"/>
<path d="M14090 1409 l0 -21 13 4 12 5 3 16 3 17 -15 0 -16 0 0 -21z"/>
<path d="M13707 1184 l-6 -7 5 -8 5 -9 25 0 24 0 0 15 0 15 -23 0 -24 0 -6 -6z"/>
<path d="M13815 1149 l-7 -10 -24 -9 -24 -10 0 -10 0 -10 19 0 19 0 12 15 12
15 24 0 24 0 0 15 0 15 -24 0 -25 0 -6 -11z"/>
<path d="M12567 914 l-7 -7 0 -9 0 -9 38 3 37 3 0 10 0 10 -30 3 -31 3 -7 -7z"/>
<path d="M12897 914 l-6 -7 5 -8 5 -9 25 0 24 0 0 15 0 15 -23 0 -24 0 -6 -6z"/>
<path d="M12445 880 l-20 -8 27 -7 27 -7 11 7 10 6 -5 10 -6 9 -12 -1 -12 0
-20 -9z"/>
<path d="M2077 674 l-6 -7 5 -8 5 -9 20 0 19 0 0 -15 0 -15 15 0 15 0 0 15 0
15 -15 0 -15 0 0 15 0 15 -18 0 -19 0 -6 -6z"/>
<path d="M1980 624 l0 -16 14 11 15 12 21 -11 22 -12 5 6 5 5 -7 10 -6 11 -35
0 -34 0 0 -16z"/>
</g>
</svg>
