<?xml version="1.0" encoding="UTF-8" standalone="no"?>
<svg
   xmlns:i="http://ns.adobe.com/AdobeIllustrator/10.0/"
   xmlns:dc="http://purl.org/dc/elements/1.1/"
   xmlns:cc="http://creativecommons.org/ns#"
   xmlns:rdf="http://www.w3.org/1999/02/22-rdf-syntax-ns#"
   xmlns:svg="http://www.w3.org/2000/svg"
   xmlns="http://www.w3.org/2000/svg"
   xmlns:sodipodi="http://sodipodi.sourceforge.net/DTD/sodipodi-0.dtd"
   xmlns:inkscape="http://www.inkscape.org/namespaces/inkscape"
   i:rulerOrigin="0 0"
   overflow="visible"
   i:viewOrigin="52.7056 778.0547"
   i:pageBounds="0 792 612 0"
   version="1.1"
   xml:space="preserve"
   enable-background="new 0 0 472.951 465.479"
   viewBox="0 0 799.99984 186.53152"
   id="svg2"
   inkscape:version="0.91 r13725"
   sodipodi:docname="SubmarineSilhouette.svg"
   width="799.99982"
   height="186.53152"
   style="overflow:visible"><defs
     id="defs15" /><sodipodi:namedview
     pagecolor="#ffffff"
     bordercolor="#666666"
     borderopacity="1"
     objecttolerance="10"
     gridtolerance="10"
     guidetolerance="10"
     inkscape:pageopacity="0"
     inkscape:pageshadow="2"
     inkscape:window-width="1600"
     inkscape:window-height="837"
     id="namedview13"
     showgrid="false"
     fit-margin-top="0"
     fit-margin-left="0"
     fit-margin-right="0"
     fit-margin-bottom="0"
     inkscape:zoom="1.3800003"
     inkscape:cx="399.99991"
     inkscape:cy="93.265762"
     inkscape:window-x="-8"
     inkscape:window-y="-8"
     inkscape:window-maximized="1"
     inkscape:current-layer="svg2" /><metadata
     id="metadata11"><rdf:RDF><cc:Work><dc:format>image/svg+xml</dc:format><dc:type
           rdf:resource="http://purl.org/dc/dcmitype/StillImage" /><cc:license
           rdf:resource="http://creativecommons.org/publicdomain/zero/1.0/" /><dc:publisher><cc:Agent
             rdf:about="http://openclipart.org/"><dc:title>Openclipart</dc:title></cc:Agent></dc:publisher><dc:title></dc:title><dc:date>2009-07-14T06:19:16</dc:date><dc:description>Peace Symbol, Peace Sign</dc:description><dc:source>https://openclipart.org/detail/27178/peace-symbol-by-flowerpaz</dc:source><dc:creator><cc:Agent><dc:title>flowerpaz</dc:title></cc:Agent></dc:creator><dc:subject><rdf:Bag><rdf:li>externalsource</rdf:li><rdf:li>peace sign</rdf:li><rdf:li>peace symbol</rdf:li></rdf:Bag></dc:subject></cc:Work><cc:License
         rdf:about="http://creativecommons.org/publicdomain/zero/1.0/"><cc:permits
           rdf:resource="http://creativecommons.org/ns#Reproduction" /><cc:permits
           rdf:resource="http://creativecommons.org/ns#Distribution" /><cc:permits
           rdf:resource="http://creativecommons.org/ns#DerivativeWorks" /></cc:License></rdf:RDF></metadata><path
     inkscape:connector-curvature="0"
     style="color:#000000;fill:#000000;stroke:none;stroke-width:0.43174323;stroke-linecap:round"
     d="m 374.14362,0 0,39.65909 -1.05509,0 0,32.91868 -1.87822,0 0,1.23963 c -0.66401,-0.0868 -1.33029,-0.16923 -1.99589,-0.25169 l 0,-3.23553 -4.33308,0 0,-25.63266 1.45361,0 1.12536,-0.91945 0,-5.67407 -1.43078,0 0,-5.82748 -0.71539,-1.63657 -3.22082,0 -2.14776,2.35196 0,5.11209 -0.92118,0 0,4.44742 1.893,2.1461 1.54505,0 0,25.63266 -4.54538,0 0,2.06771 -2.2866,0.0308 -18.99988,0 0,-38.90136 2.09712,0 0,-3.69769 -4.40495,0 0,3.69769 0.0615,0 0,38.90136 -18.09501,0 c -0.84794,-0.79262 -2.86205,-1.35564 -4.44741,-1.35564 -1.58487,0 -2.26833,0.56308 -2.50217,1.35564 l -3.32212,0 c 0.0615,-0.12062 0.0997,-0.2437 0.0997,-0.37047 0,-1.1717 -2.79467,-2.12167 -4.85573,-2.12167 -2.06112,0 -2.60832,0.94997 -2.60832,2.12167 0,0.12677 0.0123,0.24985 0.0246,0.37047 l -2.83866,0 c -5.70275,1.56838 -10.19951,6.10434 -12.1303,12.24297 -0.93391,5.01006 -4.05504,10.00382 -7.24029,13.54476 l -1.83909,-0.44061 -199.009608,-0.24677 -0.005,0.002 c -34.06675,2.30346 -59.93504,13.22125 -70.7763399,31.39805 -0.0714,0.0695 -0.144,0.12615 -0.21538,0.19323 l 0.0997,0 c -2.16254,3.67221 -3.72895004,7.63131 -4.61234004,11.88211 -1.05453,10.10905 5.52650004,18.5795 16.06323994,25.28792 0.12739,0.0806 0.25539,0.16185 0.38401,0.24185 0.7768,0.48677 1.57213,0.96597 2.38949,1.43397 0.14462,0.0831 0.29046,0.16431 0.43631,0.24678 0.83034,0.46831 1.67816,0.92659 2.54629,1.37527 0.1317,0.0689 0.26462,0.13477 0.39693,0.20246 0.88776,0.45292 1.79115,0.89674 2.71448,1.32955 0.13046,0.0615 0.26215,0.12246 0.39385,0.18277 0.92179,0.42708 1.85742,0.84406 2.81091,1.25108 0.16246,0.0695 0.32677,0.13662 0.48985,0.20554 0.94376,0.39693 1.89859,0.78518 2.86968,1.1629 0.16184,0.0615 0.32554,0.12554 0.48862,0.18769 0.98979,0.38031 1.98912,0.75078 3.00358,1.11066 0.13477,0.0431 0.27016,0.0948 0.40493,0.14215 1.06315,0.37293 2.13608,0.73693 3.22242,1.0877 0.0665,0.0246 0.13292,0.0369 0.19939,0.0615 1.13914,0.36616 2.28721,0.72228 3.44783,1.06333 0.0492,0.0123 0.0991,0.0308 0.14831,0.0431 1.1714,0.34338 2.35023,0.67459 3.53929,0.99305 0.0554,0.0123 0.10892,0.0308 0.16308,0.0431 1.19785,0.31938 2.40124,0.62616 3.61276,0.91957 0.0185,0.004 0.0308,0.006 0.0492,0.006 1.21921,0.29477 2.44278,0.57785 3.67159,0.84597 0.0966,0.0246 0.19385,0.0369 0.29047,0.0615 2.44124,0.52923 4.89467,1.00881 7.34811,1.43404 0.0855,0.0123 0.17107,0.0308 0.25661,0.0431 10.09047,1.73416 20.13656,2.59017 29.00696,2.50543 l 478.167238,0 c 0.005,-4.9e-4 0.006,-8e-4 0.0123,-0.002 l 0.0185,0 c 53.22478,-5.70712 106.57676,-14.86133 159.14129,-25.01364 7.21998,5.13351 11.13293,18.39409 15.89013,27.07476 l 19.97816,0 -0.0917,-29.51816 3.28125,-3.09996 0,-2.17718 c 0.20431,-0.0369 0.41047,-0.0812 0.61539,-0.12247 l 12.55984,0.0554 0,-0.002 0.0308,0 0.005,-0.96524 4.03418,0 0,-1.3181 0.37723,0 a 2.3758736,6.3068645 0 0 0 -0.496,3.8447 2.3758736,6.3068645 0 0 0 2.37478,6.30774 2.3758736,6.3068645 0 0 0 0.54708,-0.17601 2.4618803,7.6697781 0 0 0 2.34863,5.39635 2.4618803,7.6697781 0 0 0 2.46131,-7.6699 2.4618803,7.6697781 0 0 0 -1.42413,-6.94626 l 4.39351,0 c 2.28321,-0.72388 4.31092,-1.9594 5.31634,-3.85947 -1.07354,-1.38856 -3.16876,-3.08402 -5.36699,-3.85941 l -4.17461,0 a 2.4618803,7.6697781 0 0 0 1.25588,-6.67684 2.4618803,7.6697781 0 0 0 -2.46131,-7.66984 2.4618803,7.6697781 0 0 0 -2.21472,4.3412 2.3758736,6.3068645 0 0 0 -0.68074,-0.26646 2.3758736,6.3068645 0 0 0 -2.37479,6.30613 2.3758736,6.3068645 0 0 0 0.66155,4.36409 l -0.54216,0 0,-0.60308 -4.07338,0 0,-0.89995 -8.01119,0.0246 c -0.37477,-0.15323 -0.75847,-0.2997 -1.13509,-0.45231 l -8.36571,-11.121 0,-32.4319 c 8.32325,-1.24235 16.04595,-3.25295 22.34814,-6.53469 1.09552,-0.54462 0.95601,-0.72616 -0.08,-1.41447 -7.78134,-5.50551 -39.42512,-11.61442 -59.00204,-10.15896 l 0.002,-0.002 c -7.21568,0.9565 -14.0804,2.43244 -14.86607,10.54123 0.28985,6.05241 4.62834,8.61452 9.74733,9.62647 3.78064,-0.0123 7.74054,-0.0369 11.7482,-0.0948 7.93008,8.77569 0.64228,19.08671 -5.76551,25.84657 l 0,0.82646 c -1.35903,-0.38092 -2.72556,-0.75385 -4.09455,-1.12536 l 2.26863,-0.0123 -2.31934,0 C 674.00066,111.68061 619.36363,104.32961 566.97516,100.93241 l -110.51063,-0.76616 c -12.26715,-8.44159 -27.94479,-14.30193 -45.04078,-18.9688 -7.8611,-1.66475 -15.67832,-3.29479 -23.53874,-4.72673 l 0,-7.35298 -3.13756,0 0,-17.83863 0.21231,0 -0.0123,-0.9309 0.88524,-0.0123 0,-2.94482 -2.15103,0 0,-12.27405 -0.81662,0 0,8.79187 -1.98771,0 0,3.89209 0.0369,0 0,3.48218 1.92893,0 0,17.83857 -3.00359,0 -1.91582,3.45769 -1.90445,0 0,-32.91862 -0.98486,0 0,-39.65921 -0.89829,0 z m -39.81755,26.07685 0,3.73528 2.35841,0 0,-3.73528 -2.35841,0 z m 49.4506,16.76884 0,1.90439 2.20819,0 0,-1.90439 -2.20819,0 z m 404.37586,99.7473 a 2.4618803,7.6697781 0 0 0 0.15385,0.22831 l -0.23385,0 a 2.3758736,6.3068645 0 0 0 0.08,-0.22831 z m 2.08734,0.17477 0,0.0554 -0.0369,0 a 2.4618803,7.6697781 0 0 0 0.0369,-0.0554 z m -1.99749,6.61801 1.99749,0 0,0.67613 a 2.4618803,7.6697781 0 0 0 -0.9832,-0.64382 2.4618803,7.6697781 0 0 0 -0.87552,0.50277 2.3758736,6.3068645 0 0 0 -0.13846,-0.536 z"
     id="rect5070" /></svg>